<svg width="60" height="57" viewBox="0 0 60 57" fill="none" xmlns="http://www.w3.org/2000/svg">
<circle cx="27.5" cy="52.5" r="4" stroke="#8F9368"/>
<circle cx="48.5" cy="52.5" r="4" stroke="#8F9368"/>
<path d="M22.7016 36.2116L18.8904 20.3508C16.8015 11.619 14.9774 4.18073 14.8449 3.81515C14.5596 3.01367 14.0399 2.26844 13.4591 1.84661C13.0515 1.53727 12.8782 1.5232 10.3816 1.4529H1M22.7016 36.2116L22.5182 36.8725C21.7743 39.5441 21.8048 39.4035 21.7947 41.1048C21.7947 42.4266 21.8354 42.8906 22.029 43.6639C22.6608 46.1949 24.169 47.0931 26.0745 47.7681H55M22.7016 36.2116L50.7857 34.3415C52.0086 34.0181 53.2823 33.1323 54.1892 31.9793C54.8516 31.1356 55.5344 29.6311 55.8808 28.239C56.2579 26.7345 59.0602 10.1707 58.999 9.81918C58.9277 9.41141 58.5812 8.93333 58.2246 8.73648C58.0615 8.65211 50.6634 8.45526 38.2314 8.21622H16.7491" stroke="#8F9368" stroke-width="1.2" stroke-linecap="round"/>
</svg>
