<svg width="558" height="431" viewBox="0 0 558 431" fill="none" xmlns="http://www.w3.org/2000/svg">
<path d="M374.545 119.858C373.02 119.696 371.77 120.558 370.383 120.895C365.821 122.02 363.172 125.465 361.458 129.303C358.762 135.316 358.108 141.999 356.425 148.35C355.776 150.786 355.463 153.312 354.488 155.662C354.187 156.374 353.113 157.321 354 157.77C354.812 158.195 355.549 156.999 356.075 156.224C356.225 155.999 356.262 155.7 356.363 155.449C358.559 150.049 359.82 144.375 360.934 138.691C361.633 135.104 362.547 131.616 364.384 128.454C365.146 127.14 365.896 125.804 367.309 124.904C369.508 123.478 371.759 122.271 374.384 121.846C375.017 121.745 375.766 121.558 375.816 120.671C375.642 119.958 375.104 119.907 374.545 119.858ZM402.887 105.537C402.713 104.787 401.837 104.787 401.163 104.762C398.663 105.137 396.313 105.895 394.251 107.345C391.054 109.595 389.142 112.808 387.328 116.232C385.317 120.02 382.953 123.703 378.917 125.841C377.704 126.478 376.542 127.217 375.429 128.016C374.959 128.366 373.829 128.579 374.321 129.416C374.654 130.029 375.567 129.64 376.217 129.416C382.792 127.129 386.754 122.308 389.604 116.17C390.979 113.245 392.9 110.57 395.974 108.921C397.75 107.957 399.625 107.37 401.487 106.696C402.05 106.496 403.1 106.483 402.887 105.537ZM411.521 112.295C410.821 111.982 410.571 112.671 410.296 113.096C409.783 113.908 409.275 114.733 408.912 115.62C407.613 118.807 405.274 121.27 402.937 123.641C397.4 129.266 390.141 131.854 382.916 134.378C379.553 135.553 377.141 137.591 375.37 140.562C375.154 140.911 374.833 141.312 375.255 141.649C375.691 141.987 375.966 141.512 376.267 141.25C379.63 138.154 383.666 136.09 387.841 134.517C392.638 132.703 397.2 130.791 401.388 127.666C405.637 124.491 408.346 120.283 411.259 116.12C411.746 115.42 411.821 114.445 411.959 114.007C412.034 113.07 411.996 112.508 411.521 112.295ZM453.963 93.7614C453.388 93.5742 452.774 93.4489 452.175 93.4001C448.637 93.1494 445.188 93.8249 441.855 94.8372C435.842 96.6748 431.892 101.037 428.717 106.232C425.579 111.333 423.396 117.008 419.246 121.496C418.608 122.17 417.897 123.053 417.796 124.491C420.37 123.491 421.946 121.683 423.333 119.744C426.922 114.696 429.216 108.87 433.017 103.9C435.654 100.436 438.917 97.8613 442.916 96.6243C446.313 95.5876 449.863 94.3376 453.6 95.2376C454.062 95.3499 454.612 95.1497 454.724 94.5866C454.838 94.0739 454.313 93.8867 453.963 93.7614ZM485.842 98.4115L485.829 98.4001C485.642 98.2747 485.442 98.1494 485.292 98.0371C484.179 97.1615 482.804 96.7366 481.791 95.5876C479.203 92.6367 476.583 89.6989 473.771 86.9661C470.709 83.9909 467.034 82.1533 462.496 82.1029C462.071 82.1533 461.533 82.2038 460.995 82.3031C460.359 82.4284 459.363 82.2786 459.4 83.1917C459.425 84.0544 460.408 83.8786 461.046 83.9909C462.921 84.3278 464.996 84.2415 466.647 85.0537C470.672 87.028 474.109 89.8372 476.708 93.6116C478.605 96.3623 481.342 98.2243 484.216 99.8372C484.916 100.225 485.917 100.35 486.329 99.7249C486.417 99.6126 486.454 99.4987 486.467 99.3864V99.375C486.254 99.0495 486.041 98.737 485.842 98.4115ZM491.254 109.757C486.855 109.482 482.529 110.908 478.03 109.845C474.384 108.983 471.022 107.933 467.971 105.658C466.108 104.274 465.034 101.987 462.521 101.162C461.983 102.236 462.47 102.962 463.033 103.7C465.146 106.483 467.822 108.433 470.984 110.07C475.595 112.458 480.354 112.345 485.255 112.284C487.392 112.244 489.329 111.683 491.316 111.071C491.879 110.908 492.779 111.12 492.755 110.321C492.717 109.421 491.817 109.795 491.254 109.757ZM502.438 175.129C501.762 174.279 501.3 175.241 500.825 175.641C500.563 175.866 500.312 176.117 500.025 176.279C493.637 179.928 488.417 184.816 485.242 191.45C483.767 194.549 482.504 198.149 485.255 201.8C485.416 201.362 485.504 201.187 485.541 200.999C486.054 198.286 485.592 195.462 486.804 192.837C489.016 188.016 492.429 184.229 496.562 181.016C498.325 179.666 500.063 178.278 501.788 176.891C502.338 176.44 502.9 175.716 502.438 175.129ZM502.763 222.057C501.35 219.119 499.513 216.395 498.6 213.208C497.175 208.258 497.638 203.312 498.688 198.424C499.125 196.387 499.962 194.399 500.95 192.562C501.788 191.004 502.75 189.504 503.313 187.804C503.487 187.279 504.176 186.566 503.551 186.128C502.825 185.617 502.424 186.629 501.863 186.929C501.65 187.041 501.5 187.329 501.363 187.554C498.738 191.849 496.7 196.411 495.987 201.4C494.962 208.457 495.738 215.257 499.775 221.445C500.813 223.045 501.625 224.87 502.138 226.704C503.626 232.028 502.376 236.966 499.675 241.667C498.837 243.112 498.3 244.749 498.162 246.45C498.8 246.624 499.013 246.224 499.275 245.924C501.788 243.062 503.325 239.84 504.313 236.079C505.637 231.053 504.9 226.515 502.763 222.057ZM441.217 142.712C439.716 140.449 438.354 138.104 436.754 135.916C436.155 135.091 435.042 134.266 434.005 134.429C432.966 134.591 433.18 135.941 432.854 136.803C431.692 139.925 432.291 143.162 431.967 146.336C431.666 149.362 432.104 149.811 435.217 149.487C435.755 149.437 436.316 149.499 436.842 149.386C439.355 148.849 441.604 147.824 441.542 144.762C441.58 144.149 441.692 143.424 441.217 142.712ZM494.155 167.933C491.666 164.67 489.192 161.421 484.203 162.52C482.053 162.983 481.38 163.483 481.417 165.732C481.479 168.646 484.329 172.746 485.304 175.353C485.367 175.529 485.442 175.692 485.491 175.866C488.191 174.092 490.829 172.321 493.342 170.321C494.137 169.683 494.863 168.883 494.155 167.933ZM489.828 148.286C489.692 146.737 488.329 146.675 487.167 146.637C485.354 146.562 483.979 148.249 484.016 150.863C484.08 151.763 484.342 153.187 485.966 153.275C488.18 153.411 490.042 150.949 489.828 148.286ZM461.808 165.695C461.533 165.046 460.746 165.083 460.183 165.12C455.8 165.409 452.125 164.146 449.475 160.446C449.099 159.907 448.487 159.744 447.825 159.696C446.562 159.57 446.238 160.682 446.337 161.408C446.562 163.032 447.175 164.696 448.938 165.27C450.963 165.908 452.224 167.72 454.488 168.245C455.662 168.521 456.687 168.646 457.774 168.47C458.976 168.27 460.234 168.045 461.121 167.083C461.484 166.707 462.058 166.27 461.808 165.695ZM451.7 132.028C451.588 131.004 449.537 129.215 448.512 129.253C447.088 129.303 445.501 130.679 445.712 131.942C445.888 132.992 445.624 134.616 447.587 134.479C449.938 134.316 451.826 133.216 451.7 132.028ZM481.754 224.784C478.129 227.004 474.571 229.391 471.284 232.153C469.433 233.703 467.32 235.029 465.709 236.803C461.733 241.154 458.313 245.975 456.1 251.462C454.575 255.275 452.475 258.996 452.7 263.333C452.763 264.495 453.137 265.607 452.988 266.808C452.717 269.108 452.405 271.408 452.133 273.708C448.608 276.053 441.887 282.778 438.829 285.067C435.304 287.728 431.855 290.492 428.105 292.866C424.545 295.112 421.196 297.7 417.459 299.712C416.858 300.037 416.583 300.999 415.621 300.575C414.758 300.187 414.47 299.437 414.409 298.574C413.984 293.037 413.009 287.578 411.821 282.166C411.108 278.966 409.959 275.882 408.188 273.07C406.038 269.683 403.688 266.496 401.1 263.382C396.925 258.35 392.101 254.224 386.666 250.724C382.867 248.275 379.117 245.762 375.667 242.812C371.77 239.479 369.221 235.067 366.259 230.991C362.12 225.291 357.387 220.257 351.238 216.67C350.263 216.108 349.812 215.369 350.937 214.421C353.325 212.383 354.788 209.645 356.438 207.075C359.146 202.85 362.584 199.624 367.534 198.136C371.959 196.8 375.642 194.111 378.429 190.524C382.691 185.003 387.366 179.854 392.25 174.904C393.8 173.345 394.9 171.432 396.524 170.057C399.15 167.845 401.425 165.332 403.487 162.658C405.063 160.596 406.163 158.07 409.425 159.995C409.521 160.057 409.697 160.02 409.833 160.008C412.296 159.795 413.37 162.057 415.17 163.032C415.758 163.358 415.258 163.921 414.871 164.383C411.633 168.296 408.146 171.982 405.074 176.053C401.025 181.403 396.938 186.704 393.901 192.661C392.688 195.062 391.754 197.861 392.405 200.737C393.313 204.787 395.65 208.171 398.212 211.232C400.95 214.482 403.076 218.107 405.501 221.545C407.926 224.966 410.322 228.39 413.583 231.117C417.87 234.704 422.096 238.39 426.433 241.929C427.953 243.162 429.942 243.55 431.855 243.149C436.741 242.113 440.317 238.691 444.326 236.053C446.438 234.666 448.287 232.804 450.475 231.678C454.363 229.679 457.475 226.579 461.358 224.621C462.272 224.159 463.172 223.646 463.984 223.032C468.159 219.858 472.558 217.008 477.254 214.67C479.855 213.371 480.803 213.807 481.741 216.533C482.254 218.008 482.467 219.595 482.991 221.071C483.578 222.72 483.578 223.657 481.754 224.784ZM140.349 290.228C140.387 288.916 141.45 288.542 142.438 288.416C143.45 288.278 145.637 290.692 145.576 291.753C145.475 293.374 144.163 293.325 143.188 293.486C141.751 293.486 140.3 291.766 140.349 290.228ZM128.979 246.961C128.967 245.474 130.092 244.888 131.292 244.899C132.83 244.912 133.53 246.05 133.578 247.5C133.616 248.75 132.729 249.062 131.791 249.124C130.354 248.911 128.992 248.713 128.979 246.961ZM292.887 382.804C292.026 382.778 291.025 382.904 291.025 381.515C291.025 379.979 292.462 377.682 293.463 377.882C294.724 378.12 295.213 379.066 295.162 379.904C295.188 381.854 294.575 382.842 292.887 382.804ZM181.917 294.774C186.979 289.603 191.3 283.779 196.113 278.39C199.251 274.87 202.95 271.857 206.583 268.807C209.046 266.733 211.733 264.995 214.283 263.096C217.659 260.583 221.391 258.499 225.104 256.437C226.716 255.55 228.417 254.811 229.742 253.262C230.867 251.937 232.83 251.349 234.379 250.35C239.575 246.961 244.713 243.499 249.938 240.166C253.775 237.703 257.571 235.116 261.633 233.091C264.646 231.603 267.67 230.003 270.995 229.154C271.666 228.978 272.221 228.315 272.846 227.891C274.342 226.867 275.579 227.415 276.217 228.841C278.316 233.542 281.417 237.642 283.741 242.188C286.391 247.337 288.85 252.599 290.963 258.024C291.799 260.182 292.713 262.308 293.674 264.421C294.013 265.158 294.612 265.957 295.488 265.908C296.5 265.858 296.55 264.757 296.813 264.02C297.112 263.182 297.213 262.207 296.676 261.432C294.601 258.374 293.963 254.699 292.376 251.424C290.838 248.286 289.374 245.112 287.766 242.012C287.229 240.954 287.617 240.679 288.487 240.166C289.929 239.316 291.676 239.504 293.001 239.479C295.387 239.416 297.512 238.441 299.838 238.366C301.025 238.328 301.275 238.779 301.388 239.704C301.625 241.704 301.887 243.724 302 245.711C302.2 249.349 303.263 252.899 303.338 256.45C303.474 262.057 305.3 267.22 306.733 272.433C308.308 278.192 310.333 283.892 313.308 289.191C314.97 292.14 315.984 295.462 317.646 298.411C319.833 302.3 322.096 306.162 324.492 309.95C326.829 313.657 329.166 317.358 332.267 320.369C334.166 322.22 335.392 324.744 338.054 325.97C339.179 326.483 339.553 328.328 340.912 329.191C345.226 331.904 348.837 335.791 354.013 337.078C354.449 337.191 354.775 337.391 354.825 337.866C354.9 338.454 354.537 338.691 354.075 338.953C346.051 343.529 337.491 346.424 328.329 347.712C321.533 348.662 314.871 350.361 308.146 351.763C299.176 353.638 290.292 356.162 281.017 356.374C279.317 356.411 277.654 357.124 276.155 356.737C269.658 356.287 263.396 356.237 257.184 354.875C251.949 353.724 246.788 352.45 241.625 350.999C235.517 349.287 229.841 346.699 224.241 343.828C221.433 342.391 218.984 340.379 216.358 338.628C211.145 335.153 206.721 330.791 202.288 326.445C199.251 323.47 196.687 320.07 194.05 316.733C189.975 311.571 186.879 305.775 183.266 300.312C182.517 299.162 182.379 297.637 181.492 296.45C181.104 295.911 181.454 295.249 181.917 294.774ZM411.77 303.662C405.838 306.611 400.538 310.62 394.687 313.77C388.73 316.971 383.116 320.858 377.341 324.421C372.184 327.591 367.021 330.767 361.808 333.879C359.47 335.278 357.083 334.367 354.887 333.467C350.312 331.592 346.487 328.628 342.7 325.382C338.754 321.982 334.967 318.534 331.917 314.295C327.83 308.587 324.179 302.612 320.846 296.411C317.646 290.465 315.058 284.253 312.459 278.04C310.095 272.37 308.583 266.357 307.483 260.332C306.363 254.137 305.862 247.812 305.138 241.541C304.638 237.191 304.687 237.316 309.046 236.629C311.733 236.203 314.358 235.391 316.959 234.603C319.933 233.703 322.833 232.529 325.816 231.704C328.266 231.016 330.367 229.741 332.48 228.441C335.629 226.515 338.816 224.658 341.9 222.645C343.663 221.496 345.3 220.133 346.887 218.758C347.6 218.145 348.087 217.995 348.813 218.657C352.162 221.745 355.624 224.696 358.858 227.891C362.258 231.266 364.734 235.391 367.547 239.242C370.095 242.725 372.934 245.9 376.679 248.374C382.092 251.937 387.667 255.399 392.438 259.795C397.862 264.795 403.062 270.12 406.188 277.004C407.8 280.566 408.771 284.328 409.308 288.203C409.895 292.34 410.496 296.475 411.096 300.599C411.259 301.637 412.109 302.15 412.846 302.599C412.708 303.325 412.158 303.462 411.77 303.662ZM268.495 207.524C265.084 201.536 261.358 195.749 257.47 190.067C255.125 186.629 252.213 183.628 250.213 179.941C249.475 178.579 248.225 177.516 247.237 176.291C246.887 175.879 246.438 175.391 246.837 174.829C247.175 174.354 247.763 174.565 248.175 174.766C250.25 175.791 252.651 175.754 254.737 176.779C255.995 177.404 257.32 177.866 258.808 178.016C261.033 178.241 262.783 180.041 265.034 180.353C267.234 180.654 269.083 182.241 271.508 181.942C272.67 181.79 273.53 183.216 274.841 183.353C280.191 183.953 285.354 185.529 290.662 186.266C295.1 186.878 299.575 187.479 304.05 187.604C307.822 187.716 311.596 187.34 315.383 186.79C322.87 185.716 329.866 183.403 336.292 179.616C341.912 176.304 347.563 173.008 353.038 169.408C356.826 166.921 361.021 165.008 365.121 162.97C369.008 161.045 373.121 160.046 377.229 159.87C380.204 159.757 383.229 159.333 386.267 159.383C389.441 159.445 392.737 159.132 395.987 159.058C397.563 159.02 399.137 159.007 400.699 159.058C401.075 159.058 401.762 158.857 401.687 159.72C401.15 160.483 400.974 161.533 400.087 162.046C397.638 163.47 396.188 165.908 394.374 167.933C393.137 169.295 391.703 170.42 390.491 171.82C388.041 174.666 385.055 177.091 382.817 180.091C380.554 183.154 377.83 185.767 375.442 188.703C373.033 191.662 370.021 193.937 366.083 195.112C363.258 195.962 360.37 197.199 358.258 199.736C355.312 203.262 351.287 205.337 346.988 206.8C345.074 207.45 343.287 208.296 341.612 209.357C339.592 210.645 337.341 211.432 335.242 212.52C334.317 212.995 333.816 212.933 333.167 212.145C329.553 207.799 324.604 206.637 319.259 206.4C315.146 206.224 311.096 206.299 307.045 207.337C303.562 208.211 300.787 210.107 298.351 212.495C296.762 214.045 294.962 215.508 293.963 217.62C293.325 218.958 292.213 218.582 291.113 218.395C286.091 217.557 281.38 215.308 276.454 214.546C271.783 213.807 270.359 210.796 268.495 207.524ZM243.012 170.171C242.387 170.27 242.026 169.87 241.663 169.421C234.866 160.895 227.216 153.136 220.009 144.974C217.796 142.474 215.17 140.337 213.009 137.816C207.558 131.416 201.751 125.342 196.313 118.945C192.363 114.308 187.963 110.083 184.166 105.324C183.404 104.375 182.405 103.612 181.505 102.775C180.367 101.737 180.779 101.125 182.066 100.863C182.867 100.7 183.704 100.674 184.516 100.575C185.904 100.513 187.338 100.5 188.663 100.238C193.65 99.2122 198.575 99.8747 203.551 100.225C206.471 100.425 209.283 101.25 212.197 101.224C213.058 101.224 213.808 101.499 213.958 102.324C214.895 107.708 219.033 111.045 222.529 114.421C225.667 117.433 229.716 119.683 234.08 121.208C237.392 122.383 240.776 122.679 244.163 123.267C244.612 123.353 245.151 123.291 245.562 123.104C246.9 122.508 247.488 123.241 247.9 124.303C249.713 129.015 251.438 133.729 252.363 138.729C253.175 143.2 254.713 147.575 255.175 152.075C255.595 156.213 256.695 160.208 257.058 164.346C257.296 167.046 257.584 169.733 257.771 172.445C257.87 173.678 257.333 173.857 256.533 173.457C254.625 172.495 252.451 172.708 250.475 171.808C248.175 170.745 245.712 169.757 243.012 170.171ZM277.953 163.07C277.892 163.846 277.579 164.87 276.791 165.369C275.842 165.97 275.191 165.008 274.592 164.395C273.917 163.683 272.358 163.846 272.592 162.207C272.83 160.62 274.016 159.471 275.616 159.508C276.767 159.546 277.98 161.283 277.953 163.07ZM403.813 37.3291C404.35 36.9157 404.801 37.1615 405.312 37.4495C410.546 40.3369 414.596 44.2741 416.495 50.0993C417.547 53.3366 418.284 56.6455 418.321 60.057C418.746 61.2451 418.046 62.4951 418.658 63.6947C418.909 64.196 418.608 65.0081 418.121 65.3695C417.696 65.695 417.283 65.1204 416.871 64.8958C413.958 63.2454 412.333 60.3825 410.595 57.7832C407.908 53.7874 405.688 49.4743 404.513 44.7363C404.037 42.8369 403.613 40.9115 403.225 38.999C403.1 38.374 403.263 37.762 403.813 37.3291ZM385.816 70.7454C385.842 72.3161 384.441 74.0039 383.292 73.9665C382.117 73.929 380.017 71.9417 380.042 70.9082C380.079 69.2074 381.967 67.5325 383.854 67.6204C386.091 67.7197 385.042 69.8828 385.816 70.7454ZM361.983 53.1738C361.909 55.1204 360.483 55.3955 358.762 55.4574C357.625 55.3451 356.513 55.0081 356.575 53.3252C356.625 51.5365 357.683 50.249 359.184 50.2246C360.621 50.2002 362.034 51.6374 361.983 53.1738ZM347.138 83.5417C348.437 83.5286 350.899 86.1035 350.963 87.5407C351.012 88.6654 348.674 90.6999 347.312 90.7243C345.825 90.7617 343.938 88.6654 343.901 86.9531C343.875 85.4281 345.65 83.5531 347.138 83.5417ZM418.383 165.933C419.946 167.72 420.771 169.883 421.909 171.883C423.759 175.116 424.654 178.817 426.967 181.828C430.304 186.178 434.016 190.041 439.192 192.249C440.717 192.899 441.93 194.186 443.613 194.512C443.938 194.575 444.238 194.875 444.55 194.875C448.025 194.837 451.438 195.487 454.938 195.337C458.738 195.174 462.558 194.888 466.371 195.449C467.395 195.599 468.071 196.424 468.709 197.049C472.296 200.562 475.784 204.186 478.504 208.446C479.08 209.346 478.754 210.046 477.879 210.483C472.47 213.158 467.708 216.932 462.421 219.821C459.687 221.32 457.275 223.42 454.612 225.07C447.812 229.253 441.655 234.367 434.879 238.59C433.767 239.279 432.529 239.266 431.567 239.741C430.141 239.404 428.88 239.416 427.779 238.429C423.183 234.29 418.447 230.304 413.871 226.154C412.521 224.928 411.334 223.433 410.408 221.857C408.238 218.221 405.512 214.971 403.25 211.395C401.249 208.224 398.487 205.625 396.775 202.225C395.325 199.312 395.549 196.549 396.912 193.825C399.601 188.454 403.65 183.991 407.026 179.079C409.062 176.104 411.495 173.446 413.746 170.645C414.895 169.22 416.484 167.97 417.021 166.034C417.283 165.057 417.683 165.133 418.383 165.933ZM518.209 184.878C518.009 183.467 517.796 182.054 517.558 180.654C514.796 183.379 512.358 186.416 510.637 190.016C507.651 196.25 507.125 202.637 510.037 208.97C511.025 211.12 512.87 212.933 514.496 214.744C517.197 217.746 517.87 221.12 517.346 225.07C516.946 228.04 516.521 230.954 515.533 233.791C513.759 238.903 510.696 243.224 507.512 247.524C504.288 251.875 500.4 255.775 498.313 260.908C497.838 262.046 497.213 263.12 497.288 264.421C497.312 264.883 497.275 265.508 496.65 265.532C496.137 265.558 496.137 264.982 496.051 264.595C495.162 261.095 494.75 257.463 493.73 254.036C492.48 249.888 492.592 245.55 491.217 241.403C490.317 238.654 489.641 235.628 489.516 232.567C489.441 230.553 488.655 228.566 488.18 226.566C487.304 222.869 486.679 219.082 485.504 215.47C483.741 210.033 481.342 204.899 477.392 200.575C476.121 199.162 474.996 197.599 474.171 195.636C473.233 193.387 470.296 192.274 467.571 192.174C462.558 191.987 457.55 191.724 452.499 192.049C446.1 192.474 440.779 189.554 435.803 185.716C430.33 181.491 427.654 175.617 425.017 169.533C422.633 164.007 418.608 159.696 413.009 157.321C409.508 155.85 405.65 155.537 401.837 155.524C396.775 155.5 391.703 155.387 386.655 155.612C380.504 155.887 374.267 156.138 368.383 158.058C363.683 159.595 359.146 161.745 354.938 164.445C352.288 166.146 349.55 167.695 346.9 169.37C344.225 171.071 341.713 173.083 338.928 174.528C334.892 176.641 331.004 179.092 326.591 180.417C325.541 180.729 324.566 181.266 323.546 181.654C323.095 181.816 322.558 181.916 322.179 181.504C321.721 181.004 322.258 180.692 322.509 180.304C324.446 177.166 326.23 173.966 329.104 171.507C330.442 170.358 332.092 170.02 333.567 169.258C336.017 167.995 338.88 167.383 340.955 165.521C343.95 162.845 346.238 159.808 347.451 155.662C348.95 150.474 347.9 145.2 349 140.099C350.074 135.067 350.512 129.84 353.087 125.166C355.8 120.246 359.072 115.807 363.295 112.046C366.271 109.408 369.259 106.619 372.708 104.824C375.867 103.174 378.816 100.938 382.804 100.537C385.667 100.249 388.629 99.5361 391.524 98.9502C393.375 98.5742 395.175 98.75 396.988 98.6247C397.325 98.6116 397.675 98.7744 398.001 98.737C401.55 98.2991 405.074 98.8737 408.6 98.999C410.733 99.0739 412.908 98.999 415.058 99.1113C416.759 99.1862 418.733 98.6751 420.558 98.2113C427.355 96.4876 432.555 92.4626 436.73 87.0036C439.592 83.2406 443.362 80.529 447.05 77.7165C449.412 75.9163 452.25 74.5915 454.962 73.654C456.938 72.9655 459.288 72.2656 461.559 72.2786C462.934 72.2917 464.308 72.1403 465.672 72.0036C464.684 70.8822 463.671 69.7835 462.659 68.6947C423.321 26.429 367.208 0 304.924 0C263.808 0 225.379 11.5072 192.7 31.5039C191.637 32.1403 190.587 32.7913 189.55 33.4668C189.612 33.5661 189.649 33.6784 189.687 33.8037C190.45 36.4665 191.826 38.8997 192.838 41.4616C193.738 43.737 194.062 46.1865 194.326 48.4375C193.824 53.8363 191.55 58.0827 187.7 61.5446C186.762 62.3958 185.867 63.8704 184.579 63.3447C183.554 62.9199 183.73 61.1702 183.266 60.1074C182.229 57.8076 181.842 55.4085 181.892 52.9997C181.992 49.0999 181.617 45.2002 182.916 41.3249C183.442 39.7868 183.941 38.2617 184.505 36.7659C182.867 37.8613 181.254 38.999 179.641 40.1497C167.534 48.8249 156.358 58.7207 146.3 69.6582C145.437 70.5957 144.575 71.5413 143.725 72.5033C144.588 73.291 145.437 74.0918 146.287 74.8909C147.875 76.3786 149.687 77.8044 151.487 79.1536C153.671 80.791 155.434 82.9915 157.421 84.9154C161.308 88.6995 165.571 92.0622 169.433 95.887C170.616 97.0752 172.042 98.0371 173.054 99.4238C173.517 100.062 173.829 100.674 173.578 101.525C172.542 105.137 172.991 108.783 173.404 112.445C173.88 116.659 175.654 120.22 178.191 123.516C180.092 126.004 182.604 127.567 185.33 129.028C190.074 131.566 194.962 131.079 199.913 130.265C201.725 129.966 202.438 131.341 203.287 132.303C206.596 136.104 209.783 139.987 213.458 143.462C215.095 145.011 216.433 146.886 218.02 148.475C221.417 151.862 224.104 155.911 227.83 158.983C228.442 159.482 228.779 160.107 229.229 160.682C229.291 160.758 229.355 160.845 229.404 160.92C229.78 161.47 230.079 162.121 230.592 162.557C230.891 162.821 231.279 163.021 231.817 163.058C232.892 163.145 232.053 164.357 232.667 164.92C235.191 167.284 237.179 170.133 239.625 172.596C240.65 173.62 241.775 174.891 242.488 176.416C243.225 178.016 244.788 179.204 245.925 180.628C248.987 184.453 251.799 188.467 254.412 192.612C256.134 195.361 258.471 197.712 260.058 200.575C263.408 206.686 267.483 212.396 270.396 218.77C271.396 220.957 273.504 222.583 273.692 225.203C269.946 224.992 266.909 227.078 263.645 228.366C261.233 229.316 258.909 230.591 256.695 231.942C253.399 233.94 250.3 236.253 247 238.229C242.963 240.641 239.112 243.35 235.104 245.812C231.254 248.162 227.617 250.911 223.754 253.312C220.346 255.425 217.008 257.637 213.608 259.757C209.334 262.433 205.208 265.295 201.476 268.721C197.574 272.295 193.738 275.957 190.338 280.003C188.762 281.878 187.312 283.892 185.717 285.767C184.203 287.516 182.678 289.242 181.104 290.916C180.178 291.916 179.479 292.14 178.717 290.516C176.716 286.266 174.916 281.953 173.204 277.567C171.404 272.933 169.809 268.232 168.383 263.494C167.421 260.27 166.471 257.025 165.571 253.774C164.008 248.136 163.146 242.375 161.896 236.691C161.196 233.529 160.934 230.265 160.795 226.991C160.634 223.107 160.058 219.22 160.108 215.321C160.133 212.345 159.933 209.37 160.196 206.374C160.509 202.786 160.133 199.137 160.309 195.513C160.458 191.987 160.221 188.467 160.746 184.941C160.934 183.641 160.121 182.329 160.095 180.916C159.996 175.941 159.658 170.994 158.159 166.183C156.884 162.02 155.084 158.158 152.512 154.674C148.525 149.3 143.188 145.399 137.574 142.049C132.467 139.004 127.566 135.666 122.617 132.391C118.258 129.504 114.184 126.304 110.37 122.791C109.783 124.015 109.221 125.228 108.658 126.466C107.633 128.716 106.646 131.004 105.696 133.304C105.095 134.754 104.521 136.216 103.958 137.679C106.446 136.541 109.046 135.679 111.62 134.766C112.333 134.517 113.22 134.404 113.696 133.916C115.558 132.017 116.783 133.229 118.596 134.242C121.554 135.879 124.155 138.003 126.917 139.888C131.03 142.7 135.4 145.112 139.601 147.749C142.162 149.349 144.099 151.488 146.225 153.363C148.15 155.049 149.825 157.295 151.287 159.632C152.937 162.284 153.471 165.283 154.796 168.008C156.62 171.795 156.108 173.358 152.708 175.89C149.887 178.003 147.288 180.379 144.213 182.191C141.337 183.892 138.399 185.441 135.45 186.979C129.379 190.142 123.017 192.687 116.596 195.011C111.572 196.838 106.471 198.675 101.051 199.186C99.013 199.375 97.0876 200.374 94.9619 200.324C93.3132 200.324 91.6628 200.337 90.0124 200.35C89.9245 201.525 89.8496 202.712 89.7878 203.9C89.5876 207.72 89.4883 211.558 89.4883 215.433C89.4883 233.579 91.7376 251.2 95.9629 268.032C96.2119 269.033 96.4626 270.02 96.7246 271.007C98.3245 270.62 99.9619 270.433 101.609 270.295C105.821 269.958 110.095 269.771 114.072 271.533C115.084 271.995 116.145 272.083 117.171 272.458C118.508 272.957 118.604 273.371 117.809 274.445C115.821 277.153 112.921 278.617 109.996 279.84C107.896 280.716 105.509 280.929 103.258 281.44C102.112 281.504 100.963 281.541 99.8252 281.541C100.162 282.578 100.501 283.617 100.851 284.653C129.679 369.683 210.159 430.866 304.924 430.866C355.063 430.866 401.188 413.745 437.792 385.016C439.192 383.94 440.567 382.829 441.93 381.704C436.817 382.103 431.703 381.979 426.609 381.654C423.183 381.429 419.772 381.803 416.297 381.304C412.483 380.741 408.508 380.815 404.687 380.142C397.688 378.903 390.742 377.42 383.779 375.946C381.58 375.483 378.754 374.445 376.78 377.033C376.666 377.17 376.241 377.158 375.979 377.108C372.67 376.37 369.308 376.733 365.958 376.582C360.37 376.346 354.788 376.357 349.187 376.258C348.749 376.245 348.338 376.232 348.225 375.732C348.113 375.22 348.525 374.958 348.912 374.858C349.838 374.608 350.787 374.482 351.713 374.22C352.138 374.095 352.688 373.883 352.675 373.283C352.662 372.708 352.175 372.445 351.713 372.37C351.676 372.37 351.65 372.358 351.612 372.358C350.3 372.158 349.013 372.132 347.763 372.321L341.337 370.558C341.401 370.508 341.438 370.457 341.476 370.396C341.799 369.845 341.337 369.52 340.963 369.207C340.6 368.908 340.104 368.62 340.426 368.045C340.755 367.495 341.35 367.495 341.9 367.557C344.588 367.869 347.262 368.158 349.9 368.807C350.937 369.071 351.975 369.258 353.038 369.295C354.337 369.357 355.637 369.207 356.925 368.67C357.438 368.457 358.038 368.283 357.971 367.583C357.908 366.945 357.338 366.707 356.812 366.558C356.088 366.346 355.3 366.12 354.575 365.994C354.4 365.957 354.225 365.933 354.062 365.92C352.013 365.708 349.975 365.257 347.937 364.933L343.912 362.308C344.4 362.095 344.099 361.52 344 361.108C343.6 359.399 344.601 359.312 345.725 359.8C348.551 361.012 351.487 361.733 354.513 362.207C355.151 362.321 355.6 362.244 355.912 361.733C356.35 361.037 355.725 360.749 355.3 360.449C354.213 359.674 353.062 359.062 351.887 358.55L349.251 355.124C349.412 354.963 349.588 354.774 349.762 354.525C350.2 353.924 350.712 353.162 351.324 353.512C352.862 354.386 354.75 354.45 356.1 355.636C356.887 356.325 357.758 356.8 358.683 357.15C359.721 357.549 360.833 357.799 361.933 358.062C363.484 358.149 364.096 358.075 364.195 357.599C364.409 356.686 363.709 356.125 363.108 355.786C363.071 355.762 363.02 355.737 362.983 355.724L361.996 352.474C362.096 352.487 362.184 352.5 362.283 352.5C363.308 352.487 363.046 351.549 363.058 350.911C363.058 350.324 363.084 349.749 363.709 349.549C364.422 349.312 364.558 350.062 364.933 350.425C366.484 351.937 367.496 354.049 369.483 355.062C371.559 356.112 372.921 357.786 374.291 359.525C375.058 360.5 376.129 361.012 377.317 361.108C379.117 361.261 380.829 361.883 382.566 362.244C385.367 362.832 388.129 362.271 390.904 362.62C393.351 362.933 395.925 362.308 398.437 362.207C401.35 362.108 404.176 362.546 407.088 361.157C411.546 359.049 415.995 356.862 420.621 355.024C426.642 352.637 432.879 351.675 439.203 350.986C444.137 350.449 449.099 350.55 454.024 350.799C456.7 350.938 459.334 350.575 461.996 350.711C464.059 350.812 466.446 350.612 468.447 349.461C468.845 349.237 469.446 349.1 469.358 348.486C469.27 347.925 468.683 347.812 468.246 347.738C466.546 347.463 464.846 347.212 463.146 347.025C461.959 346.886 461.371 346.437 461.695 345.137C462.008 343.841 461.746 342.578 461.508 341.279C460.634 336.554 459.288 331.942 458.688 327.158C458.474 325.409 458.15 323.646 457.713 321.932C456.826 318.408 456.612 314.757 455.851 311.221C455.113 307.799 455.437 304.3 454.801 300.874C454.612 299.888 454.4 298.862 454.55 297.812C455.087 294.287 454.326 290.741 454.801 287.191C455.113 284.854 454.788 282.453 454.999 280.104C455.362 276.082 455.888 272.057 456.412 268.045C456.7 265.858 456.038 263.62 456.262 261.571C456.788 256.737 459 252.249 461.471 248.162C464.208 243.662 467.32 239.303 471.746 236.029C475.471 233.278 479.179 230.503 482.991 227.853C483.917 227.217 484.617 226.991 484.866 228.628C485.354 231.867 485.854 235.116 486.767 238.241C487.641 241.191 487.905 244.25 488.567 247.225C489.43 251.125 490.379 255 491.116 258.924C491.741 262.207 492.328 265.495 493.175 268.721C493.875 271.357 492.929 274.282 494.75 276.729C495.138 277.254 494.951 278.192 495.063 278.94C495.426 281.216 495.538 283.529 495.825 285.815C496.738 292.979 496.799 300.174 497.149 307.362C497.237 309.087 497.262 310.807 497.275 312.546C498.45 310.22 499.588 307.861 500.688 305.487C511.051 283.003 517.646 258.449 519.684 232.591C520.084 227.516 520.309 222.383 520.346 217.207C520.359 216.619 520.359 216.021 520.359 215.433C520.359 205.062 519.62 194.862 518.209 184.878Z" fill="#DF958B"/>
<path d="M351.612 372.357L351.198 373.257L347.763 372.319C349.013 372.132 350.298 372.157 351.612 372.357Z" fill="#482523"/>
<path d="M354.062 365.921C354.223 365.934 354.399 365.959 354.573 365.996L353.036 369.295C351.973 369.258 350.937 369.071 349.9 368.809C347.263 368.157 344.587 367.871 341.902 367.558C341.352 367.495 340.751 367.495 340.427 368.045C340.102 368.62 340.601 368.908 340.964 369.207C341.339 369.52 341.801 369.845 341.477 370.395C341.439 370.457 341.402 370.508 341.339 370.558L340.614 370.358L339.052 368.795L340.839 366.121L352.312 367.783L347.937 364.933C349.975 365.259 352.011 365.708 354.062 365.921Z" fill="#482523"/>
<path d="M355.911 361.735C355.599 362.248 355.149 362.323 354.511 362.21C351.487 361.735 348.549 361.011 345.726 359.798C344.601 359.31 343.602 359.398 344.002 361.11C344.101 361.522 344.401 362.097 343.914 362.31L343.289 361.898L342.176 359.385L347.838 358.885L352.524 359.385L351.888 358.548C353.061 359.061 354.212 359.673 355.299 360.448C355.724 360.747 356.349 361.035 355.911 361.735Z" fill="#482523"/>
<path d="M359.56 355.262L358.686 357.149C357.759 356.799 356.885 356.323 356.098 355.637C354.748 354.45 352.86 354.387 351.324 353.513C350.712 353.163 350.199 353.924 349.761 354.525C349.587 354.774 349.411 354.961 349.249 355.124L348.524 354.186L350.749 351.537L359.56 355.262Z" fill="#482523"/>
<path d="M363.334 356.849L359.56 355.262L360.121 354.05L361.096 351.937L361.547 350.975L361.996 352.474L362.984 355.724L363.334 356.849Z" fill="#482523"/>
<path d="M495.727 348.713C495.238 353.112 492.94 356.711 490.341 360.135C486.303 365.459 481.018 369.22 475.318 372.383C475.481 369.108 474.369 364.684 478.28 359.948C482.693 354.598 487.066 350.075 493.114 347.051C494.602 346.3 495.914 347.075 495.727 348.713Z" fill="#DF958B"/>
<path d="M552.438 132.642C552.013 138.003 550.274 142.45 547.849 146.763C544.954 151.899 541.591 156.662 537.766 161.108C532.792 166.883 527.333 172.158 521.495 177.078C520.146 178.216 518.821 179.391 517.558 180.654C514.796 183.379 512.358 186.416 510.637 190.016C507.651 196.25 507.125 202.637 510.037 208.97C511.025 211.12 512.87 212.933 514.496 214.744C517.195 217.746 517.87 221.12 517.346 225.07C516.946 228.04 516.521 230.954 515.533 233.791C513.758 238.903 510.696 243.224 507.512 247.524C504.288 251.875 500.4 255.775 498.313 260.908C497.838 262.046 497.213 263.12 497.288 264.421C497.312 264.883 497.275 265.508 496.65 265.532C496.137 265.558 496.137 264.982 496.049 264.595C495.162 261.095 494.75 257.463 493.73 254.036C492.48 249.888 492.592 245.55 491.217 241.403C490.317 238.654 489.641 235.628 489.516 232.567C489.441 230.553 488.653 228.566 488.18 226.566C487.304 222.869 486.679 219.082 485.504 215.47C483.741 210.033 481.342 204.899 477.392 200.575C476.121 199.162 474.996 197.599 474.171 195.636C473.233 193.387 470.296 192.274 467.571 192.174C462.558 191.987 457.55 191.724 452.499 192.049C446.1 192.474 440.779 189.554 435.803 185.716C430.33 181.491 427.654 175.617 425.017 169.533C422.633 164.007 418.608 159.696 413.009 157.321C409.508 155.85 405.65 155.537 401.837 155.524C396.775 155.5 391.703 155.387 386.655 155.612C380.504 155.887 374.267 156.138 368.383 158.058C363.683 159.595 359.147 161.745 354.938 164.445C352.288 166.146 349.55 167.695 346.9 169.37C344.225 171.071 341.713 173.083 338.928 174.528C334.892 176.641 331.004 179.092 326.591 180.417C325.541 180.729 324.566 181.266 323.546 181.654C323.095 181.816 322.558 181.916 322.179 181.504C321.721 181.004 322.258 180.692 322.508 180.304C324.446 177.166 326.23 173.966 329.104 171.507C330.442 170.358 332.091 170.02 333.567 169.258C336.017 167.995 338.88 167.383 340.955 165.521C343.95 162.845 346.238 159.808 347.451 155.662C348.95 150.474 347.9 145.2 349 140.099C350.074 135.067 350.512 129.841 353.087 125.166C355.8 120.246 359.07 115.807 363.295 112.046C366.271 109.408 369.259 106.619 372.708 104.824C375.867 103.174 378.816 100.938 382.804 100.537C385.667 100.249 388.629 99.5361 391.524 98.9502C393.375 98.5742 395.175 98.75 396.987 98.6247C397.325 98.6117 397.675 98.7744 398.001 98.737C401.551 98.2992 405.074 98.8737 408.6 98.999C410.733 99.0739 412.908 98.999 415.058 99.1113C416.759 99.1862 418.733 98.6751 420.558 98.2113C427.355 96.4876 432.555 92.4626 436.73 87.0036C439.591 83.2406 443.362 80.529 447.05 77.7165C449.412 75.9163 452.25 74.5915 454.962 73.654C456.938 72.9655 459.288 72.2656 461.559 72.2787C462.934 72.2917 464.308 72.1403 465.672 72.0036C467.346 71.8034 469.021 71.6162 470.659 71.7155C472.958 71.8538 475.471 72.3031 477.796 73.029C481.078 74.0413 484.329 75.2409 486.778 77.7409C488.966 79.9789 490.929 82.4528 492.83 84.9414C495.362 88.2666 497.6 91.9613 501.249 94.0999C504.075 95.7487 507.213 97.1745 510.746 96.499C512.083 96.25 513.471 96.5251 514.809 96.5739C519.97 96.8115 525.258 96.5251 530.229 98.112C532.429 98.8119 534.254 100.625 536.292 101.862C540.154 104.237 542.254 108.158 544.654 111.72C547.726 116.27 549.799 121.395 551.476 126.603C552.125 128.628 552.801 130.815 552.438 132.642ZM417.021 166.034C417.283 165.057 417.683 165.133 418.383 165.933C419.946 167.72 420.771 169.883 421.909 171.883C423.758 175.116 424.654 178.817 426.967 181.828C430.304 186.178 434.016 190.041 439.192 192.249C440.717 192.899 441.93 194.186 443.613 194.512C443.938 194.575 444.238 194.875 444.55 194.875C448.025 194.837 451.438 195.487 454.938 195.337C458.738 195.174 462.558 194.888 466.371 195.449C467.395 195.599 468.071 196.424 468.709 197.049C472.296 200.562 475.784 204.186 478.504 208.446C479.08 209.346 478.754 210.046 477.879 210.483C472.47 213.158 467.708 216.932 462.421 219.821C459.687 221.32 457.275 223.42 454.612 225.07C447.812 229.253 441.655 234.367 434.879 238.591C433.767 239.279 432.529 239.266 431.567 239.741C430.141 239.404 428.88 239.416 427.779 238.429C423.183 234.29 418.445 230.304 413.871 226.154C412.521 224.928 411.334 223.433 410.408 221.857C408.237 218.221 405.512 214.971 403.25 211.395C401.249 208.224 398.487 205.625 396.775 202.225C395.325 199.312 395.55 196.549 396.912 193.825C399.601 188.454 403.65 183.991 407.026 179.079C409.062 176.104 411.495 173.446 413.746 170.645C414.895 169.22 416.484 167.97 417.021 166.034ZM481.754 224.784C478.129 227.004 474.571 229.391 471.284 232.153C469.433 233.703 467.32 235.029 465.709 236.803C461.733 241.154 458.313 245.975 456.1 251.462C454.575 255.275 452.475 258.996 452.7 263.333C452.763 264.495 453.137 265.607 452.988 266.808C452.716 269.108 452.403 271.408 452.133 273.708C448.608 276.053 441.887 282.778 438.829 285.067C435.304 287.728 431.855 290.492 428.105 292.866C424.545 295.112 421.196 297.7 417.459 299.712C416.858 300.037 416.583 300.999 415.621 300.575C414.759 300.187 414.47 299.437 414.409 298.574C413.984 293.037 413.009 287.578 411.821 282.166C411.108 278.966 409.959 275.882 408.188 273.07C406.038 269.683 403.688 266.496 401.1 263.382C396.925 258.35 392.101 254.224 386.666 250.724C382.867 248.275 379.117 245.762 375.667 242.813C371.77 239.479 369.221 235.067 366.258 230.991C362.12 225.291 357.387 220.257 351.238 216.67C350.263 216.108 349.812 215.369 350.937 214.421C353.325 212.383 354.788 209.645 356.438 207.075C359.147 202.85 362.584 199.624 367.534 198.136C371.959 196.8 375.642 194.111 378.429 190.524C382.691 185.003 387.366 179.854 392.25 174.904C393.8 173.345 394.9 171.432 396.524 170.057C399.15 167.845 401.425 165.332 403.487 162.658C405.063 160.596 406.163 158.07 409.425 159.995C409.521 160.057 409.695 160.02 409.833 160.008C412.296 159.795 413.37 162.057 415.17 163.032C415.758 163.358 415.258 163.921 414.871 164.383C411.634 168.296 408.146 171.982 405.074 176.053C401.025 181.403 396.938 186.704 393.901 192.661C392.688 195.062 391.754 197.861 392.403 200.737C393.313 204.787 395.65 208.171 398.212 211.232C400.95 214.482 403.076 218.107 405.501 221.545C407.924 224.966 410.32 228.39 413.583 231.117C417.87 234.704 422.096 238.39 426.433 241.929C427.953 243.162 429.942 243.55 431.855 243.149C436.741 242.113 440.317 238.691 444.326 236.053C446.438 234.666 448.287 232.804 450.475 231.678C454.363 229.679 457.475 226.579 461.358 224.621C462.272 224.159 463.172 223.646 463.984 223.032C468.159 219.858 472.558 217.008 477.254 214.67C479.855 213.371 480.803 213.807 481.741 216.533C482.254 218.008 482.467 219.595 482.991 221.071C483.578 222.72 483.578 223.657 481.754 224.784ZM411.77 303.662C405.838 306.611 400.538 310.62 394.687 313.77C388.73 316.971 383.116 320.858 377.341 324.421C372.184 327.591 367.021 330.767 361.808 333.879C359.47 335.278 357.083 334.367 354.887 333.467C350.312 331.592 346.487 328.628 342.7 325.383C338.754 321.982 334.967 318.534 331.917 314.295C327.83 308.587 324.179 302.612 320.846 296.411C317.646 290.466 315.058 284.253 312.459 278.04C310.095 272.37 308.583 266.357 307.483 260.332C306.362 254.137 305.862 247.813 305.138 241.541C304.638 237.191 304.687 237.316 309.046 236.629C311.733 236.203 314.358 235.391 316.959 234.603C319.933 233.703 322.833 232.529 325.816 231.704C328.266 231.016 330.367 229.741 332.48 228.441C335.629 226.515 338.816 224.658 341.9 222.645C343.663 221.496 345.3 220.133 346.887 218.758C347.6 218.145 348.087 217.995 348.813 218.657C352.162 221.745 355.624 224.696 358.858 227.891C362.258 231.266 364.734 235.391 367.547 239.242C370.095 242.725 372.934 245.9 376.679 248.374C382.091 251.937 387.667 255.399 392.438 259.795C397.862 264.795 403.063 270.12 406.188 277.004C407.801 280.566 408.771 284.328 409.308 288.203C409.895 292.341 410.496 296.475 411.096 300.599C411.258 301.637 412.109 302.15 412.846 302.599C412.708 303.325 412.158 303.462 411.77 303.662ZM354.075 338.953C346.049 343.529 337.491 346.424 328.329 347.712C321.533 348.662 314.871 350.361 308.146 351.763C299.174 353.638 290.292 356.162 281.017 356.374C279.317 356.411 277.654 357.124 276.153 356.737C269.658 356.287 263.396 356.237 257.184 354.875C251.949 353.724 246.788 352.45 241.625 350.999C235.517 349.287 229.841 346.699 224.241 343.828C221.433 342.391 218.984 340.379 216.358 338.628C211.145 335.153 206.721 330.791 202.288 326.445C199.251 323.47 196.687 320.07 194.05 316.733C189.975 311.571 186.879 305.775 183.266 300.313C182.517 299.162 182.379 297.637 181.492 296.45C181.104 295.911 181.454 295.249 181.917 294.774C186.979 289.603 191.3 283.779 196.113 278.39C199.251 274.87 202.95 271.857 206.583 268.807C209.046 266.733 211.733 264.995 214.283 263.096C217.659 260.583 221.391 258.499 225.104 256.437C226.716 255.55 228.417 254.811 229.742 253.262C230.867 251.937 232.83 251.349 234.379 250.35C239.575 246.961 244.713 243.499 249.938 240.166C253.775 237.703 257.571 235.116 261.633 233.091C264.646 231.603 267.67 230.003 270.995 229.154C271.666 228.978 272.221 228.315 272.846 227.891C274.342 226.867 275.579 227.415 276.217 228.841C278.316 233.542 281.417 237.642 283.741 242.188C286.391 247.337 288.85 252.599 290.963 258.024C291.799 260.182 292.713 262.308 293.674 264.421C294.013 265.158 294.612 265.957 295.488 265.908C296.5 265.858 296.55 264.758 296.813 264.02C297.112 263.182 297.213 262.207 296.674 261.432C294.601 258.374 293.963 254.699 292.376 251.424C290.838 248.286 289.374 245.112 287.766 242.012C287.229 240.954 287.617 240.679 288.487 240.166C289.929 239.316 291.674 239.504 293.001 239.479C295.387 239.416 297.512 238.441 299.838 238.366C301.025 238.328 301.275 238.779 301.388 239.704C301.625 241.704 301.887 243.724 302 245.711C302.2 249.349 303.263 252.899 303.338 256.45C303.474 262.057 305.3 267.22 306.733 272.433C308.308 278.192 310.333 283.892 313.308 289.191C314.97 292.14 315.984 295.462 317.646 298.411C319.833 302.3 322.096 306.162 324.492 309.95C326.829 313.657 329.166 317.358 332.267 320.369C334.166 322.22 335.392 324.744 338.054 325.97C339.179 326.483 339.553 328.328 340.912 329.191C345.226 331.904 348.837 335.791 354.013 337.078C354.449 337.191 354.775 337.391 354.825 337.866C354.9 338.454 354.537 338.691 354.075 338.953ZM178.717 290.516C176.716 286.266 174.916 281.953 173.204 277.567C171.404 272.933 169.809 268.232 168.383 263.494C167.421 260.27 166.471 257.025 165.571 253.774C164.008 248.136 163.146 242.375 161.896 236.691C161.196 233.529 160.934 230.265 160.795 226.991C160.632 223.107 160.058 219.22 160.108 215.321C160.133 212.345 159.933 209.37 160.196 206.374C160.509 202.786 160.133 199.137 160.309 195.513C160.458 191.987 160.221 188.467 160.746 184.941C160.934 183.641 160.121 182.329 160.095 180.916C159.996 175.941 159.658 170.994 158.159 166.183C156.882 162.02 155.084 158.158 152.512 154.674C148.525 149.3 143.188 145.399 137.574 142.049C132.467 139.004 127.566 135.666 122.617 132.391C118.258 129.504 114.184 126.304 110.37 122.791C106.521 119.245 102.945 115.382 99.6624 111.17C93.8242 103.7 89.8626 95.3988 87.4993 86.3412C85.9499 80.3662 85.1507 74.2415 85.4421 67.9948C85.5755 64.8324 84.9294 61.6699 84.1042 58.571C83.6159 56.7334 83.2171 54.8958 82.5661 53.112C81.2168 49.3864 78.8291 46.5495 75.1784 45.0993C69.9294 43.0127 65.084 40.4622 61.8336 35.6543C59.446 32.1159 57.1331 28.5417 55.971 24.3408C55.3704 22.1908 53.5329 20.5664 53.0706 18.3203C52.9583 17.7702 52.1575 17.1208 52.8834 16.6829C53.3961 16.3704 54.3581 16.2695 54.8463 16.5446C56.8955 17.6953 59.2832 17.6709 61.4333 18.2324C65.9075 19.4076 69.6917 21.9157 73.9544 23.3789C76.404 24.2155 78.1422 26.1784 80.3411 27.1794C83.2041 28.4912 85.5999 30.529 88.4499 31.7529C91.137 32.8906 93.362 34.7168 95.613 36.4404C96.7506 37.3031 98.0755 37.9622 99.2246 38.5612C101.521 39.7624 103.196 41.7367 105.533 42.8239C108.233 44.0869 110.183 46.4502 112.659 48.0876C113.671 48.7614 114.771 49.349 115.709 50.0749C118.746 52.474 122.053 54.4987 125.029 57.0199C126.954 58.6572 129.091 60.2083 131.23 61.6195C133.067 62.8451 134.329 64.5833 136.025 65.8952C138.688 67.9704 141.238 70.2083 143.725 72.5033C144.588 73.291 145.437 74.0918 146.287 74.891C147.875 76.3786 149.687 77.8044 151.487 79.1537C153.671 80.791 155.434 82.9915 157.421 84.9154C161.308 88.6996 165.571 92.0622 169.433 95.8871C170.616 97.0752 172.042 98.0371 173.054 99.4238C173.517 100.062 173.829 100.674 173.578 101.525C172.542 105.137 172.991 108.783 173.404 112.445C173.88 116.659 175.654 120.22 178.191 123.516C180.092 126.004 182.604 127.567 185.33 129.028C190.074 131.566 194.962 131.079 199.913 130.265C201.725 129.966 202.438 131.341 203.287 132.303C206.596 136.104 209.783 139.987 213.458 143.462C215.095 145.011 216.433 146.886 218.02 148.475C221.417 151.862 224.104 155.911 227.83 158.983C228.442 159.482 228.779 160.107 229.23 160.682C229.291 160.758 229.355 160.845 229.404 160.92C229.817 161.458 230.178 161.958 230.592 162.557C230.829 162.896 231.078 163.258 231.367 163.67C232.267 164.958 232.053 164.357 232.667 164.92C235.191 167.284 237.179 170.133 239.625 172.596C240.65 173.62 241.775 174.891 242.488 176.416C243.225 178.016 244.788 179.204 245.925 180.628C248.987 184.453 251.799 188.467 254.412 192.612C256.134 195.361 258.471 197.712 260.058 200.575C263.408 206.686 267.483 212.396 270.397 218.77C271.396 220.957 273.504 222.583 273.692 225.203C269.946 224.992 266.909 227.078 263.645 228.366C261.233 229.316 258.909 230.591 256.695 231.942C253.399 233.94 250.3 236.253 247 238.229C242.963 240.641 239.112 243.35 235.104 245.812C231.254 248.162 227.617 250.911 223.754 253.312C220.346 255.425 217.008 257.637 213.608 259.758C209.334 262.433 205.208 265.295 201.476 268.721C197.574 272.295 193.738 275.957 190.338 280.003C188.762 281.878 187.312 283.892 185.717 285.767C184.203 287.516 182.678 289.242 181.104 290.916C180.178 291.916 179.479 292.14 178.717 290.516ZM152.708 175.89C149.887 178.003 147.288 180.379 144.213 182.191C141.337 183.892 138.399 185.441 135.45 186.979C129.379 190.142 123.017 192.687 116.596 195.011C111.57 196.838 106.471 198.675 101.049 199.186C99.013 199.375 97.0876 200.374 94.9619 200.324C93.3131 200.324 91.6628 200.337 90.0124 200.35C87.5628 200.361 85.1003 200.374 82.654 200.286C78.4287 200.15 74.2165 199.787 70.0042 199.512C66.2575 199.274 62.5075 199.025 58.7575 198.761C55.6829 198.537 52.6214 198.812 49.5631 198.862C45.9368 198.937 43.9626 200.85 42.387 203.638C42.0501 204.237 41.7002 204.774 41.1745 205.262C37.1624 209.007 32.7418 211.995 27.6409 214.233C20.5543 217.358 13.3587 217.458 5.94497 216.571C4.85773 216.432 3.85838 215.957 3.8714 214.958C3.88279 213.895 3.13247 212.757 4.50779 211.633C6.60903 209.92 7.73371 207.287 9.64614 205.286C12.7956 202.012 15.6081 198.4 18.7298 195.086C21.4658 192.174 24.4297 189.479 27.304 186.691C32.9909 181.216 38.9381 176.016 45.3623 171.421C47.2373 170.083 49.3743 169.071 51.3454 167.832C55.4713 165.257 59.5957 162.62 63.9202 160.433C67.3333 158.708 70.416 156.496 73.8291 154.8C78.541 152.45 82.9665 149.536 87.5742 146.987C91.1631 145.011 94.4622 142.524 98.3376 141.024C99.3874 140.612 100.226 139.661 101.212 139.079C102.112 138.553 103.02 138.091 103.958 137.679C106.446 136.541 109.046 135.679 111.62 134.766C112.333 134.517 113.22 134.404 113.696 133.916C115.558 132.017 116.783 133.229 118.596 134.242C121.554 135.879 124.155 138.003 126.917 139.888C131.03 142.7 135.4 145.112 139.601 147.749C142.162 149.349 144.099 151.488 146.225 153.363C148.15 155.049 149.825 157.295 151.287 159.632C152.937 162.284 153.471 165.283 154.796 168.008C156.62 171.795 156.108 173.358 152.708 175.89ZM177.053 104.474C177.854 104.25 178.679 104.725 179.179 105.387C182.192 109.346 185.829 112.733 189.125 116.421C192 119.632 195.362 122.453 197.7 126.165C198.1 126.803 198.338 127.279 197.288 127.404C196.401 127.503 195.525 127.629 194.675 127.741C187.963 127.354 182.953 124.354 179.579 118.534C177.379 114.707 177.091 110.433 176.417 106.245C176.305 105.583 176.305 104.688 177.053 104.474ZM182.066 100.863C182.867 100.7 183.704 100.674 184.516 100.575C185.904 100.513 187.338 100.5 188.663 100.238C193.65 99.2122 198.575 99.8747 203.549 100.225C206.471 100.425 209.283 101.25 212.195 101.224C213.058 101.224 213.808 101.499 213.958 102.324C214.895 107.708 219.033 111.045 222.529 114.421C225.667 117.433 229.716 119.683 234.08 121.208C237.392 122.383 240.776 122.679 244.163 123.267C244.612 123.353 245.151 123.291 245.563 123.104C246.9 122.508 247.488 123.241 247.9 124.303C249.713 129.015 251.438 133.729 252.363 138.729C253.175 143.2 254.713 147.575 255.175 152.075C255.595 156.213 256.695 160.208 257.058 164.346C257.296 167.046 257.584 169.733 257.771 172.445C257.87 173.678 257.333 173.857 256.533 173.457C254.625 172.495 252.451 172.708 250.475 171.808C248.175 170.745 245.712 169.757 243.012 170.171C242.387 170.27 242.026 169.87 241.663 169.421C234.866 160.895 227.216 153.136 220.008 144.974C217.796 142.474 215.17 140.337 213.009 137.816C207.558 131.416 201.751 125.342 196.313 118.945C192.363 114.308 187.963 110.083 184.166 105.324C183.404 104.375 182.403 103.612 181.505 102.775C180.367 101.737 180.779 101.125 182.066 100.863ZM218.57 101.987C221.559 102.899 224.841 102.562 227.641 104.124C228.455 104.575 229.179 104.087 230.004 104.437C236.041 107.046 240.712 111.12 244.013 116.82C244.513 117.708 245.325 118.408 245.662 119.395C245.712 119.533 245.763 119.658 245.8 119.795C245.712 120.396 245.3 120.308 244.887 120.22C239.288 119.082 233.704 117.858 228.891 114.57C225.367 112.17 222.317 109.207 219.745 105.796C219.059 104.875 218.172 104.087 217.833 102.912C217.633 102.199 217.758 101.75 218.57 101.987ZM298.95 216.346C299.775 215.933 300.413 215.332 301 214.683C303.963 211.483 307.996 210.195 311.959 209.971C315.659 209.771 319.571 208.996 323.233 210.345C325.167 211.058 327.28 211.445 328.891 212.933C329.991 213.958 330.354 214.707 328.692 215.521C325.079 217.284 321.246 218.371 317.32 219.045C315.808 219.308 314.334 220.096 312.408 219.72C308.434 220.633 304.15 220.257 299.85 219.87C298.938 219.784 297.713 219.696 297.587 218.895C297.451 218.021 297.95 216.833 298.95 216.346ZM304.326 224.196C304.537 224.295 304.9 224.258 305.112 224.146C308.084 222.445 311.396 223.657 314.521 223.096C315.833 222.869 317.158 222.533 318.458 222.271C325.13 220.946 331.305 218.221 337.429 215.246C340.592 213.721 343.463 211.496 346.975 210.671C347.101 210.633 347.262 210.596 347.338 210.495C348.063 209.72 349.099 208.783 349.85 209.795C350.488 210.633 349.262 211.619 348.562 212.308C345.725 215.133 342.937 217.92 339.412 220.057C337.392 221.283 335.517 223.333 333.404 224.282C330.379 225.654 327.704 227.716 324.529 228.742C318.909 230.553 313.246 232.14 307.433 233.328C302.363 234.354 297.2 234.979 292.149 236.229C290.912 236.541 289.601 236.566 288.316 236.716C284.804 237.591 283.979 235.003 282.566 232.703C280.416 229.216 279.054 225.291 276.417 222.095C276.179 221.808 276.142 221.333 276.067 220.92C275.891 219.971 274.291 219.17 275.242 218.245C276.041 217.445 277.291 218.446 278.255 218.732C282.192 219.958 286.342 220.558 290.175 221.82C294.863 223.371 299.85 222.121 304.326 224.196ZM265.034 180.353C267.234 180.654 269.083 182.241 271.508 181.942C272.67 181.79 273.53 183.216 274.841 183.353C280.191 183.953 285.354 185.529 290.662 186.266C295.1 186.878 299.575 187.479 304.05 187.604C307.82 187.716 311.596 187.341 315.383 186.79C322.87 185.716 329.866 183.403 336.292 179.616C341.912 176.304 347.563 173.008 353.038 169.408C356.826 166.921 361.022 165.008 365.121 162.97C369.008 161.045 373.121 160.046 377.229 159.87C380.204 159.757 383.229 159.333 386.267 159.383C389.441 159.445 392.737 159.132 395.987 159.058C397.563 159.02 399.137 159.007 400.699 159.058C401.075 159.058 401.762 158.857 401.687 159.72C401.15 160.483 400.974 161.533 400.087 162.046C397.638 163.47 396.188 165.908 394.374 167.933C393.137 169.295 391.703 170.42 390.491 171.82C388.041 174.666 385.055 177.091 382.817 180.091C380.554 183.154 377.83 185.767 375.442 188.703C373.033 191.662 370.021 193.937 366.083 195.112C363.258 195.962 360.37 197.199 358.258 199.736C355.312 203.262 351.287 205.337 346.987 206.8C345.074 207.45 343.287 208.296 341.612 209.357C339.591 210.645 337.341 211.432 335.242 212.52C334.317 212.995 333.816 212.933 333.167 212.145C329.553 207.799 324.604 206.637 319.259 206.4C315.146 206.224 311.096 206.299 307.045 207.337C303.562 208.211 300.787 210.107 298.351 212.495C296.762 214.045 294.962 215.508 293.963 217.62C293.325 218.958 292.213 218.582 291.113 218.395C286.091 217.557 281.38 215.308 276.454 214.546C271.783 213.807 270.359 210.796 268.495 207.524C265.084 201.536 261.358 195.749 257.47 190.067C255.125 186.629 252.213 183.628 250.213 179.941C249.475 178.579 248.225 177.516 247.237 176.291C246.887 175.879 246.438 175.391 246.837 174.829C247.175 174.354 247.763 174.565 248.175 174.766C250.25 175.791 252.651 175.754 254.737 176.779C255.995 177.404 257.32 177.866 258.808 178.016C261.033 178.241 262.783 180.041 265.034 180.353ZM495.725 348.713C495.237 353.112 492.942 356.712 490.341 360.137C486.305 365.457 481.017 369.22 475.32 372.383C475.483 369.108 474.371 364.683 478.279 359.95C482.691 354.6 487.066 350.075 493.116 347.049C494.601 346.299 495.912 347.075 495.725 348.713ZM555.375 127.529C554.788 124.479 553.738 121.595 552.675 118.87C550.312 112.845 546.837 107.308 542.48 102.45C537.83 97.2738 532.154 93.9746 525.034 93.5498C520.87 93.2992 516.708 93.2243 512.547 93.3366C507.801 93.4489 503.8 91.6748 500.501 88.4245C496.5 84.4792 494.187 79.1537 489.63 75.5404C487.366 73.7533 485.304 71.9287 482.529 71.0579C479.553 70.1074 476.708 68.9828 473.495 68.7321C469.871 68.4456 466.22 68.3203 462.659 68.6947C461.647 68.7956 460.646 68.9453 459.662 69.1325C454.838 70.07 450.151 71.7529 445.899 74.5785C440.867 77.9411 436.542 81.9906 432.604 86.5153C431.804 87.4414 431.342 88.5872 430.266 89.3376C427.491 91.2874 424.908 93.5986 421.521 94.4124C419.147 94.974 416.708 95.5746 414.283 95.625C408.426 95.7373 402.574 94.6615 396.713 95.3874C395.437 95.5501 394.262 94.6875 393.05 95.1497C389.78 96.3737 386.254 96.0872 382.867 96.9369C377.517 98.2747 372.897 100.887 368.295 103.649C365.758 105.174 363.683 107.271 361.533 109.282C358.071 112.546 354.687 115.858 352.25 120.008C349.913 124.015 348.124 128.229 346.925 132.754C345.712 137.279 345.662 141.862 345.125 146.424C344.588 150.874 344.737 155.462 341.788 159.508C339.392 162.795 336.217 164.733 332.729 166.058C328.966 167.495 325.779 169.32 323.458 172.671C321.871 174.966 320.234 177.391 320.37 180.116C320.483 182.453 319.345 183.003 317.771 183.104C314.459 183.315 311.258 184.728 307.859 183.953C307.213 183.804 306.471 183.753 305.813 183.879C301.738 184.629 297.838 183.39 293.875 182.904C291.1 182.578 288.38 181.929 285.642 181.654C282.841 181.366 280.117 180.716 277.429 180.104C274.08 179.328 270.784 178.179 267.459 177.279C262.859 176.029 261.845 175.666 261.559 171.32C261.183 165.82 259.545 160.532 259.208 155.049C258.984 151.4 257.883 147.912 257.358 144.349C256.695 139.754 255.037 135.428 254.288 130.853C253.562 126.466 251.5 122.396 249.526 118.47C247.312 114.045 244.5 109.87 240.587 106.558C238.692 104.963 236.466 104.074 234.392 102.837C230.867 100.749 226.954 99.9121 223.041 99.2122C219.233 98.5238 215.309 98.4001 211.458 97.8239C205.971 97.0117 200.501 95.9749 194.924 96.1621C189.675 96.3363 184.404 96.6374 179.516 98.9372C178.316 99.4987 177.242 98.9876 176.666 98.0371C174.754 94.9365 171.767 92.9248 169.216 90.4736C162.558 84.0658 155.52 78.0664 148.712 71.8164C147.913 71.0954 147.112 70.3695 146.3 69.6582C142.612 66.4079 138.8 63.3073 135.162 60.0081C132.242 57.3454 128.966 55.057 125.755 52.7376C120.13 48.6621 114.47 44.624 108.757 40.6624C106.246 38.9242 103.645 37.2917 101.126 35.5908C97.5742 33.1787 93.8616 31.0417 90.3249 28.6165C87.0631 26.3916 83.5784 24.554 80.1409 22.6042C73.6159 18.9209 66.8336 15.8708 59.5713 13.9828C57.1461 13.3578 54.6706 12.8451 52.0827 13.1706C50.7627 13.3333 49.9375 13.8704 49.8952 15.1449C49.8382 17.9085 50.0254 20.7536 51.1712 23.2162C53.2952 27.8044 55.2581 32.4788 57.9583 36.8034C60.2077 40.3988 63.3213 43.1364 66.666 45.3239C68.7672 46.6862 71.4414 47.5374 73.8291 48.6621C75.0791 49.2367 76.5911 49.7119 77.2666 51.0124C78.2285 52.8744 79.4411 54.6208 79.9424 56.7334C80.6048 59.5833 80.7415 62.5326 81.3535 65.3451C82.4668 70.4329 81.8418 75.6038 82.7288 80.7162C83.5036 85.153 84.5745 89.4743 85.875 93.7126C87.2373 98.1494 89.4378 102.262 91.8369 106.32C94.8122 111.357 98.3994 115.845 102.12 120.257C104.07 122.557 106.321 124.554 108.658 126.466C109.695 127.316 110.758 128.141 111.821 128.966C112.271 129.316 113.183 129.416 112.996 130.19C112.82 130.89 112.045 131.104 111.409 131.379C109.558 132.166 107.571 132.567 105.696 133.304C105.221 133.491 104.745 133.703 104.283 133.94C99.5745 136.416 94.9245 138.991 90.2874 141.587C87.138 143.363 84.179 145.474 80.8799 147.075C76.7409 149.1 72.7923 151.563 68.7168 153.75C65.9075 155.249 62.8835 156.549 60.359 158.345C56.3714 161.195 52.0127 163.382 47.9372 166.058C41.9997 169.933 36.137 173.892 30.8668 178.553C27.042 181.916 23.2659 185.454 19.8545 189.29C18.541 190.762 16.9036 191.961 15.7708 193.524C13.5215 196.649 10.3704 198.9 8.10805 202.012C5.4339 205.7 1.94594 208.796 0.258118 213.158C-0.666361 215.558 1.02146 219.159 3.27081 219.67C7.25845 220.583 11.2965 220.433 15.333 220.57C18.4922 220.682 21.4544 219.832 24.3548 219.007C26.2917 218.457 28.6159 218.521 30.1295 217.196C31.4658 216.021 32.9665 215.321 34.4492 214.52C38.3001 212.445 41.7506 209.821 44.5745 206.549C46.3877 204.45 47.4131 202.062 51.0329 202.337C52.9453 202.487 55.1833 201.974 57.1331 202.262C60.2451 202.712 63.3831 202.637 66.4837 202.799C73.5166 203.162 80.5674 203.649 87.6116 203.874C88.3376 203.9 89.0618 203.911 89.7878 203.9C92.6881 203.887 95.5625 203.675 98.3506 203.187C102.187 202.511 106.07 201.875 109.871 200.749C113.984 199.536 118.02 198.136 121.954 196.563C125.204 195.262 128.404 193.787 131.604 192.362C136.091 190.379 140.475 188.216 144.799 185.903C148.95 183.691 152.262 180.304 156.334 177.466C156.458 180.142 156.596 182.516 156.633 184.915C156.733 191.462 156.646 198 156.446 204.549C156.371 207.324 156.108 210.145 156.297 212.845C156.533 216.408 156.858 220.02 156.909 223.545C156.946 227.591 157.408 231.554 157.958 235.503C158.445 239.004 159.083 242.487 159.933 245.949C160.784 249.424 161.633 252.936 162.384 256.45C163.271 260.695 164.771 264.832 166.158 268.97C167.771 273.745 169.404 278.516 171.279 283.192C173.004 287.503 174.866 291.79 177.016 295.911C178.928 299.587 180.592 303.424 182.979 306.849C184.742 309.375 186.604 311.883 188.1 314.52C191.188 319.958 195.538 324.333 199.412 329.092C201.425 331.566 203.938 333.703 206.759 335.404C209.171 336.841 210.87 339.178 213.108 340.929C216.308 343.416 219.695 345.462 223.129 347.487C224.254 348.149 225.255 349.325 226.417 349.487C228.829 349.837 230.704 351.336 233.017 351.961C236.941 353.037 240.662 354.787 244.7 355.7C248.688 356.611 252.499 358.237 256.65 358.486C257.459 358.537 258.258 358.675 259.059 358.825C263.546 359.688 268.071 360.137 272.646 360.112C273.653 360.099 274.667 360.011 275.691 360.137C278.829 360.537 281.93 359.787 285.055 359.699C287.617 359.613 290.226 358.9 292.8 358.486C297.013 357.799 301.126 356.699 305.338 356.024C309.708 355.324 313.92 353.836 318.346 353.162C322.459 352.549 326.529 351.488 330.642 350.711C334.579 349.963 338.541 349.175 342.363 347.987C345.862 346.886 349.55 345.737 352.475 343.654C355.274 341.667 358.522 340.516 361.108 338.341C363.359 336.453 366.433 335.866 368.346 333.516C368.596 333.216 369.021 333.016 369.409 332.917C372.971 331.966 375.528 329.253 378.629 327.492C380.616 326.346 382.63 324.945 384.579 323.657C389.916 320.12 395.712 317.295 401.15 313.908C403.113 312.695 405.151 311.608 407.075 310.308C410.958 307.674 415.058 305.337 418.995 302.762C420.758 301.624 422.771 300.799 424.358 299.587C427.854 296.886 431.58 294.487 435.154 291.904C439.716 288.604 444.213 285.265 448.362 281.453C448.701 281.149 450.229 279.707 451.671 278.27C451.617 278.924 451.57 279.583 451.537 280.241C451.175 286.904 450.851 293.599 451.062 300.262C451.275 306.662 452.35 312.995 453.487 319.32C454.213 323.296 455.087 327.233 455.825 331.178C456.65 335.617 457.338 340.067 458.512 344.416C459.171 346.862 458.837 347.349 456.188 347.425C450.624 347.612 445.074 347.087 439.505 347.599C435.704 347.949 431.879 348.112 428.204 349.063C424.345 350.062 420.509 351.149 416.821 352.837C413.808 354.212 410.971 355.975 407.849 357.113C405.151 358.099 402.662 359.837 399.487 359.137C398.05 358.825 396.5 359.049 394.988 359.049C391.192 359.025 387.379 359.237 383.605 358.9C381.129 358.687 378.717 357.712 376.305 357.025C375.792 356.886 375.271 356.649 374.991 356.087C373.546 353.05 370.608 351.287 368.546 348.75C367.408 347.349 365.795 346.336 364.334 345.212C363.284 344.391 362.008 344.216 360.821 344.8C359.671 345.387 359.959 346.549 360.084 347.562C360.221 348.7 360.258 349.862 360.571 350.949C360.672 351.299 360.846 351.662 361.096 351.937C361.334 352.212 361.633 352.412 361.996 352.474C362.096 352.487 362.184 352.5 362.283 352.5C363.308 352.487 363.046 351.549 363.058 350.911C363.058 350.324 363.084 349.749 363.709 349.549C364.422 349.312 364.558 350.062 364.933 350.425C366.484 351.937 367.496 354.049 369.483 355.062C371.559 356.112 372.921 357.786 374.291 359.525C375.058 360.5 376.129 361.012 377.317 361.108C379.117 361.261 380.829 361.883 382.566 362.244C385.367 362.832 388.129 362.271 390.904 362.62C393.351 362.933 395.926 362.308 398.437 362.207C401.35 362.108 404.174 362.546 407.088 361.157C411.546 359.049 415.995 356.862 420.621 355.024C426.642 352.637 432.879 351.675 439.203 350.986C444.137 350.449 449.099 350.55 454.024 350.799C456.7 350.938 459.334 350.575 461.996 350.711C464.059 350.812 466.446 350.612 468.445 349.461C468.845 349.237 469.446 349.1 469.358 348.486C469.27 347.925 468.683 347.813 468.246 347.738C466.546 347.463 464.846 347.212 463.146 347.025C461.959 346.886 461.371 346.437 461.695 345.137C462.008 343.841 461.746 342.578 461.508 341.279C460.633 336.554 459.288 331.942 458.688 327.158C458.474 325.409 458.15 323.646 457.713 321.932C456.826 318.408 456.612 314.758 455.851 311.221C455.112 307.799 455.437 304.3 454.799 300.874C454.612 299.888 454.4 298.862 454.55 297.813C455.087 294.287 454.326 290.741 454.799 287.191C455.112 284.854 454.788 282.453 454.999 280.104C455.362 276.082 455.888 272.057 456.412 268.045C456.7 265.858 456.038 263.62 456.262 261.571C456.788 256.737 459 252.249 461.471 248.162C464.208 243.662 467.32 239.303 471.746 236.029C475.471 233.278 479.179 230.503 482.991 227.853C483.917 227.217 484.617 226.991 484.866 228.628C485.354 231.867 485.854 235.116 486.767 238.241C487.641 241.191 487.905 244.25 488.567 247.225C489.43 251.125 490.379 255 491.116 258.924C491.741 262.207 492.328 265.495 493.175 268.721C493.875 271.357 492.929 274.282 494.75 276.729C495.138 277.254 494.951 278.192 495.063 278.94C495.424 281.216 495.538 283.529 495.825 285.815C496.738 292.979 496.8 300.174 497.149 307.362C497.237 309.087 497.262 310.807 497.275 312.546C497.312 315.745 497.262 318.945 497.25 322.132C497.237 327.69 497.213 333.241 497.125 338.804C497.112 339.616 497.101 340.428 497.088 341.242C497.063 342.567 496.025 343.341 494.75 343.467C491.754 343.753 489.042 344.912 486.666 346.587C482.042 349.862 478.329 353.975 475.095 358.713C470.795 365.02 472.833 370.257 472.195 374.058C471.596 374.37 470.995 374.683 470.384 374.982C467.758 376.296 465.071 377.482 462.109 378.195C457.438 379.316 452.774 380.19 448.05 380.978C446.012 381.317 443.963 381.554 441.93 381.704C436.817 382.103 431.703 381.979 426.609 381.654C423.183 381.429 419.772 381.803 416.297 381.304C412.483 380.741 408.509 380.815 404.687 380.142C397.688 378.903 390.742 377.42 383.779 375.946C381.58 375.483 378.754 374.445 376.778 377.033C376.666 377.17 376.241 377.158 375.979 377.108C372.67 376.37 369.308 376.733 365.958 376.582C360.37 376.346 354.788 376.357 349.187 376.258C348.749 376.245 348.338 376.232 348.225 375.732C348.113 375.22 348.525 374.958 348.912 374.858C349.838 374.608 350.787 374.482 351.713 374.22C352.138 374.095 352.688 373.883 352.675 373.283C352.662 372.708 352.175 372.445 351.713 372.37C351.674 372.37 351.65 372.358 351.612 372.358C350.3 372.158 349.013 372.132 347.763 372.321C346.126 372.533 344.55 373.096 343.076 374.058C342.288 374.557 341.874 375.446 342.088 376.395C342.325 377.495 343.276 378.39 344.187 378.408C347.25 378.433 350.226 379.253 353.276 379.204C356.212 379.167 359.195 378.779 362.045 378.966C366.658 379.29 371.171 378.304 375.742 378.591C376.179 378.628 376.703 378.42 377.091 378.158C378.679 377.07 380.453 377.383 381.804 378.195C385.491 380.379 389.767 380.203 393.637 381.579C395.538 382.254 397.651 382.241 399.588 382.679C404.013 383.678 408.474 384.429 412.945 384.541C419.134 384.691 425.296 385.265 431.492 385.278C433.592 385.278 435.691 385.116 437.792 385.016C439.667 384.941 441.542 384.891 443.412 385.054C445.888 385.265 448.25 384.154 450.699 383.966C456.813 383.478 462.584 381.716 468.258 379.565C469.658 379.041 471.046 378.433 472.408 377.795C473.233 377.42 474.046 377.033 474.846 376.633C478.028 375.07 480.779 372.62 483.829 370.745C486.855 368.87 489.392 366.421 491.567 363.745C494.913 359.624 497.913 355.313 499.174 349.824C499.913 346.637 500.274 343.429 500.512 340.254C500.525 339.979 500.55 339.717 500.563 339.442C500.851 335.116 501 330.767 500.912 326.395C500.8 320.77 500.688 315.12 500.712 309.474C500.712 308.149 500.712 306.812 500.688 305.487C500.624 300.962 500.413 296.437 500.087 291.929C499.788 287.679 499.425 283.416 498.749 279.191C498.412 277.017 497.438 274.632 498.712 272.407C500.05 270.107 500.475 267.62 500.776 265.02C500.987 263.158 501.551 261.307 502.537 259.583C505.237 254.875 509.137 251.099 512.296 246.763C514.946 243.125 517.12 239.303 518.758 235.228C519.109 234.367 519.409 233.478 519.684 232.591C520.733 229.178 521.258 225.604 521.108 222.02C521.033 220.369 520.833 218.745 520.346 217.207C519.796 215.457 518.883 213.82 517.408 212.383C514.184 209.22 511.821 205.524 511.695 200.786C511.62 198.037 512.12 195.462 513.284 192.874C514.583 189.941 516.209 187.303 518.209 184.878C518.271 184.792 518.346 184.704 518.421 184.616C520.683 181.942 523.645 179.992 526.134 177.578C529.942 173.892 533.966 170.433 537.48 166.432C540.88 162.57 543.928 158.457 547.138 154.474C549.262 151.825 550.688 148.799 552.2 145.825C555.125 140.062 556.674 134.204 555.375 127.529Z" fill="#482523"/>
<path d="M552.186 296.336C549.825 296.562 547.499 297.187 544.253 296.999C539.266 296.437 533.591 295.599 528.457 292.129C526.182 290.604 523.858 289.054 521.545 287.541C520.645 286.942 520.17 286.242 521.171 285.029C523.97 281.629 527.953 280.853 532.103 282.204C535.754 283.403 539.429 284.603 542.653 286.515C546.387 288.729 550.287 291.016 552.699 294.912C553.137 295.612 553.324 296.237 552.186 296.336ZM555.8 292.391C551.037 286.79 545.188 282.842 538.291 280.391C533.441 278.665 528.57 277.091 523.396 279.103C521.22 279.953 519.296 281.053 518.708 283.553C518.633 283.879 518.583 284.178 518.27 284.429C516.783 285.617 516.721 287.054 518.108 288.504C522.533 293.074 527.533 296.587 533.741 298.587C538.265 300.037 542.803 299.974 546.737 300.399C549.913 300.086 552.461 300.2 554.838 298.724C557.837 296.862 558.15 295.137 555.8 292.391Z" fill="#482523"/>
<path d="M117.809 274.445C115.821 277.153 112.921 278.617 109.996 279.84C107.897 280.716 105.509 280.929 103.258 281.44C102.112 281.504 100.963 281.541 99.8254 281.541C94.9995 281.541 90.2371 280.967 85.4878 280.179C84.0295 279.941 83.8504 279.517 84.7 278.366C86.7622 275.62 89.7505 274.207 92.6379 272.583C93.9497 271.833 95.325 271.346 96.7248 271.007C98.3247 270.62 99.9621 270.433 101.609 270.295C105.821 269.958 110.096 269.771 114.072 271.533C115.084 271.995 116.145 272.083 117.171 272.458C118.509 272.957 118.605 273.371 117.809 274.445ZM120.742 270.933C116.033 267.858 110.821 266.707 104.446 266.683C101.708 266.571 98.8634 267.132 95.963 268.032C93.8634 268.683 91.7508 269.508 89.6252 270.396C86.9884 271.483 85.2257 273.534 83.0041 275.033C80.8166 276.515 79.7293 279.242 80.2925 281.667C80.7922 283.866 83.5672 283.966 85.5382 284.004C90.6131 284.066 95.5871 285.641 100.787 284.666C100.813 284.666 100.825 284.653 100.851 284.653C103.658 284.141 106.559 284.191 109.446 283.454C114.521 282.166 118.121 279.066 121.455 275.42C122.991 273.758 122.641 272.183 120.742 270.933Z" fill="#482523"/>
<path d="M187.699 61.5446C186.762 62.3958 185.867 63.8704 184.579 63.3447C183.554 62.9199 183.73 61.1703 183.266 60.1074C182.229 57.8076 181.842 55.4085 181.892 52.9997C181.991 49.0999 181.617 45.2002 182.916 41.3249C183.441 39.7868 183.941 38.2617 184.504 36.766C184.916 35.6657 185.354 34.5915 185.854 33.5287C186.204 32.7913 186.617 31.7155 187.48 31.9287C188.262 32.1289 189.136 32.5293 189.55 33.4668C189.612 33.5661 189.649 33.6784 189.687 33.8037C190.45 36.4665 191.825 38.8997 192.838 41.4616C193.738 43.737 194.062 46.1865 194.325 48.4375C193.824 53.8363 191.55 58.0827 187.699 61.5446ZM197.213 43.112C196.962 40.2865 195.237 38.0501 194.337 35.4915C193.863 34.1537 193.35 32.7913 192.699 31.5039C192.162 30.4037 191.524 29.3538 190.738 28.3789C189.325 26.6162 188.249 26.5658 186.366 27.7669C182.829 30.0293 181.591 33.8281 180.466 37.3291C180.167 38.2487 179.892 39.1992 179.641 40.1497C178.767 43.4749 178.191 46.9124 178.292 50.4248C178.303 55.1335 179.154 59.6452 181.467 63.8086C183.466 67.4333 186.217 68.208 188.588 65.4948C192.112 61.4828 195.912 57.6823 197.349 52.1126C198.175 48.9372 197.475 46.1117 197.213 43.112Z" fill="#482523"/>
<path d="M418.121 65.3694C417.696 65.6949 417.283 65.1204 416.871 64.8958C413.958 63.2454 412.333 60.3824 410.595 57.7832C407.908 53.7874 405.688 49.4742 404.513 44.7363C404.037 42.8369 403.613 40.9114 403.225 38.999C403.1 38.374 403.263 37.762 403.813 37.3291C404.35 36.9157 404.801 37.1614 405.312 37.4495C410.546 40.3369 414.596 44.274 416.495 50.0992C417.546 53.3365 418.284 56.6455 418.321 60.0569C418.746 61.2451 418.046 62.4951 418.658 63.6946C418.909 64.1959 418.608 65.0081 418.121 65.3694ZM421.396 54.0625C420.133 48.5872 418.671 43.2617 414.058 39.1617C410.771 36.2532 407.288 34.178 403.225 32.8792C401.513 32.3291 399.988 33.4163 399.913 35.2164C399.687 39.9869 400.426 44.6126 402.026 49.0999C403.813 54.0999 406.462 58.6083 409.687 62.7701C411.308 64.8828 413.121 66.9579 416.096 66.971C417.271 66.9824 418.084 67.3453 418.634 68.2828C419.195 69.2578 419.771 69.1194 420.408 68.4326C420.907 67.8824 421.246 67.2835 421.484 66.5201C422.183 64.3326 421.82 62.0947 422.196 59.0576C422.271 57.8955 421.82 55.8951 421.396 54.0625Z" fill="#482523"/>
<path d="M357.973 367.583C358.035 368.283 357.436 368.459 356.923 368.67C355.636 369.208 354.337 369.357 353.037 369.295C351.974 369.258 350.937 369.071 349.9 368.809C347.264 368.158 344.59 367.871 341.902 367.559C341.352 367.495 340.753 367.495 340.428 368.045C340.102 368.62 340.602 368.908 340.965 369.208C341.339 369.52 341.801 369.846 341.478 370.396C341.44 370.458 341.403 370.508 341.339 370.557C341.04 370.933 340.527 371.083 340.04 370.995C338.566 370.733 337.866 369.746 337.703 368.732C337.729 366.659 339.202 365.122 341.066 364.784C343.401 364.359 345.677 364.572 347.939 364.935C349.975 365.259 352.011 365.708 354.062 365.921C354.223 365.934 354.399 365.959 354.575 365.996C355.299 366.122 356.087 366.346 356.811 366.559C357.335 366.709 357.911 366.947 357.973 367.583Z" fill="#482523"/>
<path d="M347.312 90.7244C345.824 90.7619 343.938 88.6655 343.901 86.9533C343.874 85.4282 345.65 83.5532 347.138 83.5418C348.437 83.5288 350.899 86.1037 350.963 87.5408C351.011 88.6655 348.674 90.7 347.312 90.7244ZM347.312 81.3917C344.612 81.2029 341.887 83.742 341.737 86.5919C341.562 89.9741 344 92.9119 346.999 92.9363C350.5 92.9624 352.712 90.4998 352.963 86.3169C353.1 83.9666 350.4 81.6294 347.312 81.3917Z" fill="#482523"/>
<path d="M383.292 73.9666C382.116 73.9292 380.017 71.9419 380.041 70.9084C380.079 69.2075 381.967 67.5327 383.853 67.6206C386.091 67.7199 385.041 69.883 385.816 70.7456C385.842 72.3162 384.441 74.0041 383.292 73.9666ZM383.441 65.1336C381.155 64.9578 377.691 68.2961 377.541 70.8335C377.416 72.8159 380.141 76.1785 381.991 76.3543C385.204 76.6408 388.016 74.092 388.142 70.3957C388.228 67.5962 386.903 65.3208 383.441 65.1336Z" fill="#482523"/>
<path d="M364.195 357.598C364.096 358.073 363.484 358.148 361.935 358.062C360.834 357.798 359.723 357.549 358.686 357.148C357.76 356.799 356.886 356.323 356.098 355.636C354.749 354.45 352.861 354.386 351.324 353.512C350.712 353.162 350.2 353.924 349.762 354.525C349.588 354.774 349.412 354.961 349.249 355.124C348.45 355.837 347.737 355.524 347.338 354.175C347.076 353.324 346.101 352.425 347.138 351.349C348.089 350.337 349.088 350.187 350.437 350.326C354.049 350.713 357.11 352.324 360.123 354.05C361.072 354.611 362.022 355.174 362.984 355.724C363.022 355.736 363.072 355.762 363.108 355.786C363.709 356.123 364.408 356.686 364.195 357.598Z" fill="#482523"/>
<path d="M276.792 165.369C275.843 165.97 275.192 165.008 274.593 164.395C273.917 163.683 272.358 163.846 272.592 162.207C272.83 160.62 274.017 159.471 275.617 159.508C276.767 159.546 277.98 161.283 277.954 163.07C277.892 163.846 277.579 164.87 276.792 165.369ZM275.167 157.407C272.291 157.746 270.371 159.282 270.221 162.308C270.096 165.057 272.771 167.557 275.792 167.671C278.055 167.746 280.654 165.182 280.605 162.92C280.555 159.945 278.105 157.471 275.167 157.407Z" fill="#482523"/>
<path d="M143.188 293.486C141.751 293.486 140.3 291.766 140.349 290.228C140.387 288.916 141.449 288.542 142.437 288.416C143.45 288.278 145.637 290.692 145.575 291.753C145.474 293.374 144.163 293.325 143.188 293.486ZM142.037 286.229C139.237 286.166 137.974 287.653 137.875 291.091C137.8 294.149 139.7 295.962 143.049 296.013C145.212 296.05 147.937 293.574 147.963 291.555C147.988 289.204 144.724 286.266 142.037 286.229Z" fill="#482523"/>
<path d="M355.91 361.735C355.598 362.248 355.149 362.323 354.511 362.21C351.487 361.735 348.549 361.011 345.725 359.798C344.6 359.31 343.601 359.398 344.001 361.11C344.101 361.522 344.4 362.097 343.913 362.31C343.889 362.323 343.852 362.334 343.814 362.347C343.189 362.51 342.351 362.722 341.851 362.173C340.876 361.097 339.514 360.111 340.04 358.335C340.526 356.649 341.964 356.398 343.852 356.249C346.451 356.823 349.237 357.399 351.887 358.548C353.061 359.061 354.211 359.673 355.298 360.448C355.723 360.747 356.348 361.035 355.91 361.735Z" fill="#482523"/>
<path d="M506.575 388.953C505.349 388.74 504.187 388.179 504.137 386.603C504.099 385.104 505.587 383.203 506.938 383.254C508.313 383.304 508.912 384.279 509.088 385.241C509.126 387.017 507.675 389.129 506.575 388.953ZM507.112 381.016C504.251 380.941 501.487 383.628 501.401 386.592C501.337 388.703 503.362 390.967 505.387 390.954C509.062 390.916 511.487 388.504 511.412 385.615C511.487 382.765 509.938 381.104 507.112 381.016Z" fill="#482523"/>
<path d="M538.642 199.963C537.016 199.912 537.13 198.55 536.967 197.738C537.053 196.138 537.453 194.512 538.754 194.65C540.004 194.787 540.766 196.387 540.816 197.824C540.879 199.224 540.017 200 538.642 199.963ZM538.853 192.661C536.892 192.562 534.066 195.412 534.066 197.487C534.066 200.588 535.367 202.45 537.592 202.511C540.691 202.612 543.303 200.238 543.454 197.175C543.578 194.811 541.504 192.787 538.853 192.661Z" fill="#482523"/>
<path d="M358.763 55.4572C357.625 55.3449 356.514 55.008 356.575 53.325C356.626 51.5363 357.684 50.2489 359.184 50.2245C360.622 50.2 362.034 51.6372 361.984 53.1737C361.909 55.1203 360.483 55.3954 358.763 55.4572ZM359.834 48.0239C357.262 48.05 353.638 50.9487 353.688 52.936C353.763 55.6069 356.338 57.8449 359.396 57.8954C361.509 57.9328 364.196 55.2831 364.184 53.1737C364.171 50.0861 362.409 47.9865 359.834 48.0239Z" fill="#482523"/>
<path d="M522.646 327.653C521.284 327.391 521.171 326.258 521.171 324.933C520.984 323.457 521.733 322.383 523.37 322.321C524.646 322.271 525.221 323.27 525.283 324.496C525.333 325.745 523.645 327.842 522.646 327.653ZM523.533 320.02C520.958 319.745 517.897 322.345 518.046 325.596C518.159 327.928 519.658 329.578 522.208 329.653C524.583 329.717 527.32 327.092 527.421 324.645C527.534 322.158 525.846 320.257 523.533 320.02Z" fill="#482523"/>
<path d="M535.066 363.42C534.704 364.32 534.016 365.395 532.816 365.145C531.753 364.92 531.892 363.807 531.828 362.946C531.804 362.607 531.779 362.27 531.779 362.27C531.779 361.175 531.716 360.612 531.791 360.099C531.978 358.999 533.417 358.424 534.091 359.274C535.028 360.462 535.666 361.907 535.066 363.42ZM536.241 358.374C535.079 356.937 532.99 356.45 531.641 357.225C529.942 358.187 528.529 361.387 529.341 363.208C529.865 364.37 529.579 365.97 531.141 366.696C534.166 368.083 537.442 365.92 537.466 362.095C537.242 361.024 537.178 359.536 536.241 358.374Z" fill="#482523"/>
<path d="M292.887 382.805C292.026 382.779 291.025 382.904 291.025 381.515C291.025 379.979 292.462 377.682 293.463 377.883C294.724 378.12 295.213 379.066 295.162 379.904C295.188 381.854 294.575 382.842 292.887 382.805ZM294.863 375.833C293.375 375.208 291.775 375.682 290.776 376.958C289.467 378.628 287.804 380.353 288.992 382.792C289.962 384.792 291.837 385.829 293.413 385.379C295.913 384.68 297.475 382.666 297.488 380.116C297.4 378.208 296.625 376.582 294.863 375.833Z" fill="#482523"/>
<path d="M131.792 249.125C130.355 248.911 128.992 248.713 128.979 246.961C128.968 245.474 130.093 244.888 131.292 244.899C132.83 244.912 133.53 246.05 133.579 247.5C133.616 248.75 132.729 249.063 131.792 249.125ZM130.141 242.85C128.068 242.85 126.93 244.263 126.893 246.875C126.842 249.8 128.629 251.387 132.042 251.45C133.942 251.488 136.116 249.613 136.15 247.925C136.201 244.862 133.829 242.85 130.141 242.85Z" fill="#482523"/>
<path d="M153.784 39.2497C152.825 39.3002 152.187 38.0111 152.187 36.9662C152.2 35.8041 152.475 34.3653 153.864 34.3034C155.221 34.2416 155.721 35.4656 155.709 36.779C155.721 38.1121 154.858 39.1863 153.784 39.2497ZM154.596 31.8913C152.708 31.6537 149.225 35.4281 149.363 37.1908C149.326 39.2611 151.575 41.5121 153.72 41.574C155.272 41.6114 158.322 38.5369 158.384 36.8783C158.458 34.7283 156.359 32.1029 154.596 31.8913Z" fill="#482523"/>
<path d="M518.046 77.4153C516.922 77.4153 514.334 75.6917 514.396 74.8779C514.471 73.8411 515.245 73.5791 516.145 73.566C517.408 73.566 519.072 75.0537 519.109 76.2418C519.134 76.9661 518.859 77.4153 518.046 77.4153ZM520.445 73.6914C519.021 71.0074 514.609 70.5322 512.558 72.7653C511.759 73.6409 511.647 76.0791 512.496 76.7529C513.621 77.6416 514.783 78.5416 516.046 79.178C518.634 80.4655 521.271 79.2155 521.308 76.7155C521.433 75.6787 520.958 74.6403 520.445 73.6914Z" fill="#482523"/>
<path d="M515.258 140.762C514.858 143.224 514.021 145.537 513.346 147.899C512.833 149.712 512.071 151.349 511.134 152.887C509.724 155.212 507.9 157.295 505.963 159.308C504.187 161.157 502.512 163.032 500.512 164.67C498.25 166.533 497.074 166.507 495.875 163.857C495.3 162.596 494.203 161.846 493.175 161.208C489.604 158.97 485.741 158.083 481.604 159.595C479.216 160.47 477.154 165.47 478.03 168.096C478.816 170.47 481.041 174.466 482.392 176.592C482.592 176.916 482.792 177.166 483.017 177.329C481.467 178.166 479.879 178.879 478.279 179.565C473.408 181.678 468.158 181.966 462.921 182.166C462.446 182.179 461.959 182.166 461.484 182.166C456.751 182.041 451.938 181.942 447.462 180.329C442.13 178.379 437.766 174.816 435.029 169.821C433.979 167.909 433.417 165.532 432.916 163.283C432.405 161.071 432.029 158.833 431.666 156.6C431.542 155.863 431.58 155.086 431.642 154.338C431.741 153.112 432.341 152.524 433.692 152.65C436.404 152.912 438.967 152.661 441.454 151.125C443.479 149.875 444.024 148.275 444.638 146.149C445.987 141.362 443.137 138.342 440.616 135.228C439.203 133.504 437.667 131.779 435.779 130.503C435.204 130.116 434.954 129.704 435.242 128.953C437.154 123.766 438.88 118.508 442.416 114.095C444.125 111.945 446.137 110.096 448.124 108.208C448.775 107.583 449.374 107.634 449.825 108.382C451.275 110.783 452.887 113.158 454.988 114.958C456.401 116.17 457.763 117.546 459.625 118.371C463.671 120.145 467.859 120.833 472.184 121.408C476.954 122.033 481.617 122.033 486.379 121.27C490.242 120.645 494.179 120.096 498.1 119.982C498.875 119.958 499.649 119.945 500.426 119.958C504.975 120.033 508.925 121.595 512.045 125.703C515.645 130.441 516.158 135.278 515.258 140.762ZM493.342 170.321C490.829 172.321 488.191 174.092 485.491 175.866C485.442 175.692 485.367 175.529 485.304 175.353C484.329 172.746 481.479 168.646 481.417 165.732C481.38 163.483 482.053 162.983 484.203 162.52C489.192 161.421 491.666 164.67 494.155 167.933C494.863 168.884 494.137 169.683 493.342 170.321ZM431.967 146.336C432.291 143.162 431.692 139.925 432.854 136.803C433.18 135.941 432.966 134.592 434.005 134.429C435.042 134.266 436.155 135.091 436.754 135.916C438.354 138.104 439.716 140.449 441.217 142.712C441.692 143.425 441.58 144.149 441.542 144.762C441.604 147.824 439.355 148.849 436.842 149.386C436.316 149.499 435.755 149.437 435.217 149.487C432.104 149.811 431.666 149.362 431.967 146.336ZM519.259 132.479C518.533 128.315 516.308 124.904 513.608 121.782C510.1 117.708 505.387 115.845 500.287 116.346C499.013 116.47 497.737 116.595 496.462 116.733C493.067 117.095 489.654 117.508 486.267 118.032C479.291 119.108 472.197 118.833 465.421 116.52C461.62 115.233 457.787 113.708 455.375 110.134C454.238 108.446 453.425 106.558 452.013 105.011C450.587 103.449 448.775 103.013 447.075 104.412C443.792 107.095 440.629 110.083 438.466 113.646C436.204 117.383 434.142 121.307 432.766 125.578C430.766 131.828 428.417 137.941 428.38 144.662C428.38 146.362 428.629 148.05 428.53 149.736C428.329 153.537 428.255 157.332 428.867 161.071C429.954 167.77 431.941 174.229 437.454 178.691C441.992 182.367 447 185.329 453.25 184.979C453.637 184.953 454.075 185.091 454.438 185.265C456.5 186.266 458.85 185.89 460.821 185.628C463.458 185.291 466.158 186.379 467.796 185.404C471.609 184.728 474.633 184.541 477.416 183.617C481.142 182.391 484.679 180.617 487.942 178.353C491.842 175.654 495.437 172.546 499.288 169.784C504.299 166.17 508.663 161.982 512.346 157.046C512.721 156.574 513.071 156.099 513.407 155.612C515.984 151.961 517.234 147.962 518.209 143.7C518.645 141.75 519.109 139.888 519.158 137.879C519.208 136.079 519.571 134.266 519.259 132.479Z" fill="#482523"/>
<path d="M504.312 236.077C503.324 239.839 501.788 243.063 499.276 245.926C499.013 246.226 498.801 246.626 498.163 246.45C498.3 244.751 498.838 243.114 499.675 241.663C502.375 236.966 503.625 232.028 502.138 226.706C501.625 224.868 500.813 223.044 499.776 221.444C495.738 215.257 494.965 208.46 495.988 201.398C496.701 196.413 498.737 191.851 501.363 187.552C501.5 187.327 501.649 187.039 501.863 186.927C502.426 186.628 502.824 185.615 503.549 186.128C504.174 186.566 503.487 187.277 503.313 187.803C502.75 189.502 501.788 191.001 500.949 192.563C499.963 194.401 499.125 196.387 498.687 198.424C497.639 203.311 497.175 208.26 498.601 213.208C499.512 216.395 501.35 219.119 502.761 222.056C504.9 226.517 505.637 231.055 504.312 236.077Z" fill="#482523"/>
<path d="M540.216 135.715C539.791 136.69 538.992 137.277 537.978 137.852C538.466 135.69 538.778 133.478 539.465 131.392C540.614 127.868 539.892 124.455 538.316 121.481C535.968 117.007 532.829 113.27 528.168 110.521C523.894 107.996 519.67 107.235 514.971 107.122C510.336 107.01 505.723 106.447 501.662 103.823C501.112 103.473 500.701 103.06 500.401 102.51C500.225 102.186 500.199 101.849 500.487 101.574C500.8 101.273 501.101 101.436 501.425 101.598C506.361 104.022 511.56 105.247 517.084 105.036C525.207 104.71 531.23 108.709 536.355 114.482C537.304 115.557 538.266 116.62 539.079 117.832C542.927 123.594 542.89 129.554 540.216 135.715Z" fill="#482523"/>
<path d="M526.445 148.636C524.57 152.511 521.896 155.747 518.834 158.709C518.483 159.046 518.121 159.346 517.483 159.297C517.571 157.635 518.896 156.684 519.708 155.522C522.133 152.06 524.744 148.662 526.095 144.637C528.294 138.113 528.582 131.753 525.008 125.317C523.108 121.881 520.983 118.893 518.097 116.333C517.622 115.919 516.847 115.257 517.421 114.669C517.934 114.132 518.808 114.432 519.471 114.945C524.121 118.519 527.27 123.081 529.007 128.691C531.193 135.752 529.557 142.264 526.445 148.636Z" fill="#482523"/>
<path d="M454.725 94.5882C454.612 95.1497 454.062 95.3499 453.6 95.2376C449.863 94.3376 446.315 95.5876 442.915 96.6244C438.916 97.8613 435.654 100.436 433.017 103.898C429.218 108.872 426.919 114.696 423.333 119.744C421.945 121.681 420.371 123.493 417.796 124.492C417.897 123.055 418.608 122.168 419.246 121.494C423.395 117.007 425.581 111.333 428.719 106.235C431.893 101.035 435.841 96.6748 441.854 94.8373C445.19 93.8249 448.639 93.1511 452.176 93.4001C452.775 93.4505 453.387 93.5759 453.961 93.763C454.313 93.8884 454.837 94.0755 454.725 94.5882Z" fill="#482523"/>
<path d="M411.959 114.007C411.822 114.445 411.747 115.42 411.259 116.12C408.347 120.282 405.636 124.492 401.388 127.666C397.2 130.791 392.639 132.704 387.84 134.515C383.666 136.091 379.63 138.151 376.269 141.252C375.968 141.514 375.693 141.989 375.257 141.651C374.832 141.314 375.156 140.913 375.369 140.563C377.143 137.59 379.555 135.552 382.916 134.378C390.139 131.854 397.402 129.266 402.937 123.643C405.275 121.268 407.612 118.807 408.911 115.62C409.274 114.733 409.785 113.908 410.297 113.096C410.572 112.671 410.823 111.984 411.523 112.295C411.997 112.508 412.036 113.071 411.959 114.007Z" fill="#482523"/>
<path d="M375.818 120.669C375.769 121.556 375.018 121.743 374.38 121.842C371.757 122.269 369.507 123.48 367.308 124.905C365.896 125.806 365.145 127.142 364.384 128.454C362.546 131.616 361.635 135.102 360.935 138.69C359.821 144.375 358.56 150.049 356.36 155.447C356.26 155.698 356.223 155.998 356.073 156.222C355.547 156.997 354.81 158.196 353.998 157.772C353.111 157.322 354.187 156.372 354.486 155.659C355.461 153.31 355.774 150.786 356.423 148.349C358.109 142.002 358.76 135.314 361.459 129.303C363.171 125.467 365.821 122.018 370.381 120.893C371.77 120.557 373.018 119.694 374.543 119.857C375.106 119.907 375.643 119.956 375.818 120.669Z" fill="#482523"/>
<path d="M401.487 106.698C399.625 107.371 397.75 107.959 395.976 108.923C392.902 110.571 390.978 113.245 389.603 116.17C386.754 122.306 382.793 127.129 376.219 129.416C375.569 129.642 374.656 130.029 374.319 129.416C373.831 128.579 374.957 128.368 375.431 128.016C376.543 127.217 377.706 126.48 378.919 125.843C382.955 123.706 385.317 120.02 387.329 116.232C389.14 112.808 391.053 109.596 394.253 107.347C396.315 105.897 398.663 105.135 401.162 104.761C401.837 104.785 402.713 104.785 402.887 105.535C403.099 106.484 402.05 106.497 401.487 106.698Z" fill="#482523"/>
<path d="M486.468 99.3735V99.3866C486.455 99.4989 486.417 99.6112 486.329 99.7235C485.917 100.348 484.917 100.225 484.217 99.8358C481.342 98.2244 478.606 96.3625 476.707 93.6134C474.108 89.839 470.67 87.0265 466.647 85.0522C464.996 84.2401 462.923 84.328 461.048 83.9894C460.411 83.8771 459.423 84.0529 459.397 83.1903C459.362 82.2788 460.361 82.4285 460.997 82.3032C461.534 82.2039 462.073 82.1535 462.498 82.103C467.034 82.1535 470.708 83.9894 473.769 86.9647C476.582 89.7007 479.205 92.6385 481.793 95.5877C482.806 96.7368 484.179 97.1616 485.292 98.0373C485.442 98.1496 485.642 98.2749 485.83 98.3986L485.843 98.4116C486.204 98.6737 486.542 98.9748 486.468 99.3735Z" fill="#482523"/>
<path d="M492.751 110.321C492.777 111.122 491.877 110.908 491.316 111.071C489.327 111.683 487.39 112.246 485.253 112.284C480.355 112.346 475.593 112.458 470.982 110.072C467.82 108.434 465.147 106.485 463.034 103.698C462.471 102.961 461.985 102.236 462.522 101.161C465.035 101.986 466.109 104.273 467.971 105.659C471.019 107.935 474.38 108.985 478.031 109.846C482.53 110.908 486.854 109.484 491.252 109.759C491.814 109.797 492.715 109.422 492.751 110.321Z" fill="#482523"/>
<path d="M501.788 176.893C500.063 178.28 498.326 179.666 496.564 181.017C492.428 184.229 489.017 188.014 486.805 192.839C485.592 195.462 486.054 198.288 485.542 200.999C485.504 201.187 485.416 201.362 485.255 201.799C482.504 198.149 483.767 194.551 485.242 191.452C488.416 184.816 493.641 179.928 500.026 176.279C500.312 176.118 500.563 175.868 500.826 175.643C501.3 175.243 501.762 174.281 502.438 175.13C502.9 175.718 502.338 176.442 501.788 176.893Z" fill="#482523"/>
<path d="M461.123 167.082C460.236 168.044 458.974 168.27 457.773 168.47C456.686 168.644 455.662 168.519 454.487 168.245C452.224 167.72 450.963 165.908 448.938 165.27C447.176 164.696 446.564 163.034 446.339 161.408C446.24 160.684 446.564 159.572 447.825 159.697C448.489 159.746 449.101 159.909 449.475 160.446C452.125 164.145 455.799 165.409 460.185 165.12C460.748 165.083 461.536 165.046 461.809 165.695C462.06 166.27 461.486 166.707 461.123 167.082Z" fill="#482523"/>
<path d="M489.829 148.286C490.04 150.949 488.178 153.411 485.968 153.273C484.342 153.185 484.08 151.761 484.016 150.861C483.979 148.249 485.354 146.563 487.167 146.637C488.328 146.675 489.69 146.737 489.829 148.286Z" fill="#482523"/>
<path d="M451.7 132.028C451.825 133.216 449.937 134.315 447.589 134.477C445.626 134.614 445.889 132.99 445.714 131.94C445.5 130.679 447.089 129.303 448.513 129.254C449.537 129.217 451.588 131.004 451.7 132.028Z" fill="#482523"/>
</svg>
