<svg width="185" height="58" viewBox="0 0 185 58" fill="none" xmlns="http://www.w3.org/2000/svg">
<path d="M50.9958 27.0632L50.9773 26.9314C50.3764 22.818 50.8054 19.6736 52.1848 18.0789C52.8354 17.3276 53.6738 16.9457 54.6788 16.9457C55.5061 16.9457 56.19 17.2269 56.7139 17.7792C57.9714 19.1076 57.8533 21.5369 57.8482 21.64L57.8457 21.6574C57.5273 23.7062 56.704 25.2137 55.3966 26.139C54.1976 26.9899 52.8717 27.1553 52.0194 27.1553C51.5047 27.1553 51.1636 27.0944 51.1277 27.0882L50.9958 27.0632ZM62.366 29.9839C61.214 33.5525 57.9104 33.7539 57.8755 33.7553C52.3827 34.2528 51.2756 28.5881 51.2657 28.5323L51.2136 28.2525L51.491 28.3159C56.0907 29.3856 59.8771 28.5645 61.8797 26.067C63.381 24.1949 63.6621 21.553 62.5985 19.3353C61.3596 16.7543 58.6816 15.2739 55.2497 15.2739C50.4623 15.2739 47.0652 16.9779 45.1534 20.339C43.723 22.8529 43.7031 25.4065 43.7031 25.4325C43.9096 32.3012 47.1673 34.9542 49.864 35.9692C51.8441 36.7143 54.2621 36.8574 56.6753 36.3712C58.684 35.9654 60.51 35.137 61.3273 34.259C62.3372 33.1769 62.8276 32.1495 62.7838 31.2054C62.7577 30.6394 62.5376 30.225 62.366 29.9839" fill="#FCF6F2"/>
<path d="M88.0078 36.1489V36.7759H79.2124V36.165C79.684 36.1304 80.0559 35.7359 80.0559 35.2571V21.2163C80.0559 21.1766 80.0261 17.3193 77.4314 17.3193C74.7781 17.3193 74.1785 20.5968 74.1785 21.2002V35.2571C74.1785 35.6962 74.4908 36.0643 74.9124 36.1489V36.7759H66.0674V36.1513C66.4852 36.0681 66.8026 35.6986 66.8026 35.2571L66.8012 19.2784C66.8037 19.2534 66.8324 18.6552 66.4978 18.3021C66.3858 18.1826 66.2478 18.1055 66.0873 18.0706C66.1842 17.4562 66.7564 15.4448 70.0501 15.2745C70.2281 15.2882 73.0217 15.5256 73.4659 17.822L73.584 18.4277L73.8217 17.8579C73.8327 17.8319 74.9596 15.2745 79.9874 15.2745C82.7824 15.2745 84.5549 16.6539 85.5487 17.8107C86.7404 19.1976 87.2825 20.7835 87.2825 21.6704V35.2571C87.2825 35.6948 87.5935 36.0619 88.0078 36.1489Z" fill="#FCF6F2"/>
<path d="M103.806 30.5212C103.806 31.3222 103.676 32.0797 103.419 32.7738C102.852 34.3014 101.9 35.0962 100.679 35.0962C100.303 35.0962 99.9015 35.0202 99.4775 34.8685C98.0941 34.3723 97.3479 32.7091 97.5767 30.6332C97.8742 27.9388 99.8505 25.0109 103.597 24.5418L103.806 24.5147V30.5212ZM111.738 34.0799C111.581 34.1258 111.437 34.1158 111.305 34.0525C110.958 33.8833 110.884 33.4019 110.877 33.3473L110.875 33.3224V23.5096C110.875 23.461 110.727 18.2966 105.433 16.243C102.269 15.0153 98.8368 14.9766 96.2545 16.1385C94.9025 16.7478 93.9498 17.646 93.5715 18.6672C92.5616 21.405 95.1152 22.5642 95.3131 22.6488C96.7099 23.073 97.741 22.6823 98.2324 22.4111C98.6242 22.1947 98.8269 21.9745 98.8889 21.8762C98.8691 21.8553 98.8454 21.8303 98.8218 21.8053C98.593 21.569 98.2112 21.1749 98.1204 20.5105C97.9561 19.3127 98.1427 18.3973 98.6738 17.7878C99.1615 17.2293 99.9313 16.9457 100.963 16.9457C102.434 16.9457 103.177 17.7107 103.541 18.3514C103.795 18.8004 103.929 19.3352 103.929 19.8948V21.028C103.929 21.5964 103.745 22.1724 103.35 22.8416C102.712 23.9189 101.035 23.9425 100.964 23.9425C96.5133 23.986 93.3166 25.0507 91.7208 27.0248C90.6908 28.297 90.3449 29.939 90.7182 31.7725C91.5863 36.0339 96.8852 37.1061 100.235 36.7889C103.82 36.4469 104.797 34.8809 104.807 34.8647L105.019 34.5114L105.146 34.9021C105.826 37.018 108.244 36.7879 108.346 36.7766L108.366 36.7753C109.819 36.7753 110.823 36.427 111.35 35.738C111.804 35.1435 111.784 34.4305 111.738 34.0799" fill="#FCF6F2"/>
<path d="M128.9 24.7715C127.982 25.1547 127.241 25.1694 127.138 25.1694H124.593V6.11483L124.781 6.11618C127.39 6.1347 130.255 6.56379 131.719 9.59886C132.501 11.2196 132.882 13.5208 132.882 16.633C132.882 18.8904 132.489 20.7526 131.714 22.1669C130.91 23.6384 129.817 24.3897 128.9 24.7715ZM130.833 35.7971V36.679H141.831L140.604 34.6154L135.406 25.8649L135.585 25.7741C138.007 24.5564 139.691 22.6706 140.589 20.1704C141.38 17.9702 141.244 16.0906 141.243 16.072L141.242 16.057C141.242 14.4735 141.022 13.0209 140.588 11.7384C138.682 6.09254 133.015 4.84608 130.668 4.5738C129.918 4.48654 129.438 4.48922 129.434 4.48788H114.891V5.27141C115.38 5.35976 115.751 5.78885 115.751 6.30253V34.7846C115.751 35.2969 115.378 35.7236 114.891 35.8071V36.679H125.455V35.8057C124.962 35.7198 124.593 35.2945 124.593 34.7846V27.2443H127.338L131.26 34.8157C131.372 35.0308 131.363 35.2835 131.236 35.491C131.143 35.6441 131 35.751 130.833 35.7971" fill="#FCF6F2"/>
<path d="M29.1178 32.8316C27.3093 34.5469 25.4608 34.65 25.0441 34.65C25.0044 34.65 24.9783 34.6489 24.9657 34.6489H22.0864V6.09732H25.0777C25.1598 6.09356 27.1587 6.07128 29.1277 7.99414C31.5782 10.3875 32.8207 14.5903 32.8207 20.4862C32.8207 26.3474 31.5745 30.5019 29.1178 32.8316ZM36.831 7.97669C31.9066 3.24646 23.3041 3.59473 14.9838 3.9293L13.9328 3.97146C12.6343 4.02248 11.2447 4.11216 9.87281 4.41693C5.82785 5.3162 2.72673 7.2106 1.1422 9.74918C0.0573834 11.4844 -0.262155 13.4547 0.21554 15.4461C0.867234 18.1528 3.30162 20.4067 5.75696 20.5783C8.09897 20.7399 9.6937 19.8694 10.7745 17.8343C11.2511 16.9388 11.2895 15.782 10.8779 14.818C10.5108 13.9622 9.82796 13.3404 8.94481 13.053C8.93111 13.0767 8.91876 13.1003 8.90507 13.125C8.81672 13.2832 8.71737 13.4633 8.57184 13.6116C7.97358 14.2171 7.0966 14.5331 6.28191 14.4362C5.68338 14.3639 5.2022 14.0705 4.92723 13.6116C4.17458 12.3538 4.11121 11.0877 4.74303 9.94815C5.91243 7.83625 9.44855 6.30999 13.3407 6.234L13.5311 6.23051V34.7274C13.5311 35.2434 13.1579 35.6725 12.6678 35.7609V36.5444H26.8402C26.8988 36.5444 32.6241 36.5807 36.7464 32.5156C39.5787 29.7232 41.0153 25.6769 41.0153 20.4889C41.0153 14.7732 39.6469 10.6809 36.831 7.97669" fill="#FCF6F2"/>
<path d="M158.033 6.80496C157.761 7.38845 157.219 7.75041 156.58 7.77512C155.946 7.79633 155.389 7.48162 155.078 6.92821C154.335 5.60092 154.001 3.32953 156.552 -9.62587e-05C157.136 0.836875 159.259 4.17294 158.033 6.80496Z" fill="#FCF6F2"/>
<path d="M166.051 4.04118C165.872 5.04625 165.013 8.90727 162.288 9.90106C161.682 10.1212 161.041 9.99316 160.573 9.55897C160.111 9.12987 159.938 8.50906 160.111 7.89845C160.524 6.43556 161.893 4.59353 166.051 4.04118Z" fill="#FCF6F2"/>
<path d="M152.406 9.503C151.977 9.96458 151.357 10.1386 150.746 9.96565C149.282 9.55267 147.44 8.18323 146.889 4.02495C147.894 4.20405 151.755 5.06358 152.747 7.78904C152.969 8.39348 152.841 9.03416 152.406 9.503Z" fill="#FCF6F2"/>
<path d="M184.348 15.4037V16.1027C184.078 16.2235 183.54 16.6314 182.699 17.981C181.74 19.5223 178.262 30.2504 176.185 36.6613C175.781 37.9077 175.431 38.9847 175.199 39.6901C173.871 43.7128 170.976 47.6407 166.826 46.6034C164.423 46.0027 163.056 43.5957 163.286 41.7236C163.451 40.3754 164.377 39.6018 165.826 39.6018C166.694 39.6018 167.284 39.7734 167.628 40.1254C168.081 40.5894 168.065 41.3418 168.05 42.0684C168.029 43.0262 168.008 44.0162 169.07 44.3309C169.645 44.5012 170.211 44.372 170.752 43.9464C172.124 42.8707 173.053 39.9576 172.986 38.5954C172.966 38.1725 172.799 37.8218 172.492 37.553C171.829 36.976 170.693 36.951 170.252 36.9636C170.082 35.5877 168.849 26.4605 165.2 19.9736C162.93 15.9362 159.333 14.0864 155.332 14.9013C151.478 15.6849 150.229 19.0805 150.443 20.639C150.534 21.3047 150.916 21.7002 151.145 21.9365C151.17 21.9615 151.192 21.9838 151.212 22.005C151.15 22.1033 150.947 22.3245 150.554 22.5409C150.064 22.8121 149.033 23.2026 147.636 22.7799C147.446 22.6953 145.077 21.5831 145.899 18.7846C146.255 17.5755 147.009 16.0071 149.716 14.5901C155.569 11.5252 166.697 11.9594 172.365 20.7448C174.451 23.9789 175.829 29.1932 175.843 29.2453L175.998 29.8387L176.2 29.259C176.227 29.1806 178.925 21.4153 179.574 18.9028C179.819 17.9536 179.752 17.2084 179.375 16.6875C179.056 16.2458 178.6 16.0917 178.353 16.0393V15.4037H184.348Z" fill="#FCF6F2"/>
<path d="M48.1298 55.8517V57.0361H42.1475V47.0744H48.1298V48.2588H43.3316V52.6306H47.5074V53.8147H43.3316V55.8517H48.1298Z" fill="#FCF6F2"/>
<path d="M55.5497 55.8517C55.9511 55.8517 56.311 55.7298 56.6292 55.4862C56.9473 55.2427 57.1581 54.9269 57.2618 54.5389C57.3657 54.1509 57.3407 53.7707 57.1874 53.3985C57.0341 53.0263 56.7835 52.7412 56.4364 52.5425L54.2775 51.2906C53.8352 51.0334 53.5173 50.6704 53.3232 50.201C53.1293 49.7316 53.0976 49.2491 53.2284 48.7529C53.3594 48.2564 53.6277 47.8525 54.0337 47.5413C54.4399 47.2301 54.8978 47.0744 55.4077 47.0744H55.6241C56.0255 47.0744 56.4001 47.1751 56.7476 47.3757C57.0948 47.5765 57.3703 47.8482 57.5733 48.1911L56.5513 48.7934C56.4519 48.631 56.3201 48.5013 56.1555 48.4043C55.9906 48.3071 55.8137 48.2588 55.6241 48.2588H55.4077C55.1639 48.2588 54.9461 48.3332 54.7546 48.4822C54.5626 48.631 54.4354 48.8227 54.3723 49.0574C54.3089 49.2918 54.3237 49.5219 54.4163 49.7477C54.5087 49.9733 54.6609 50.1468 54.873 50.2687L57.0319 51.5208C57.6092 51.8545 58.0254 52.3306 58.2803 52.9485C58.5351 53.5666 58.577 54.1982 58.4057 54.8434C58.2341 55.4887 57.8823 56.0152 57.3499 56.4236C56.8174 56.8318 56.2172 57.0361 55.5497 57.0361H55.5159C55.0513 57.0361 54.6112 56.9336 54.1961 56.7281C53.7813 56.523 53.4359 56.2351 53.161 55.8654L54.1013 55.1479C54.2683 55.3692 54.4759 55.5416 54.724 55.6656C54.9721 55.7899 55.2361 55.8517 55.5159 55.8517H55.5497Z" fill="#FCF6F2"/>
<path d="M65.9003 55.8517C66.3017 55.8517 66.6615 55.7298 66.9797 55.4862C67.2979 55.2427 67.5087 54.9269 67.6124 54.5389C67.7163 54.1509 67.6913 53.7707 67.538 53.3985C67.3847 53.0263 67.1341 52.7412 66.7869 52.5425L64.6281 51.2906C64.1858 51.0334 63.8679 50.6704 63.6738 50.201C63.4799 49.7316 63.4482 49.2491 63.579 48.7529C63.71 48.2564 63.9783 47.8525 64.3842 47.5413C64.7905 47.2301 65.2483 47.0744 65.7583 47.0744H65.9747C66.3761 47.0744 66.7507 47.1751 67.0982 47.3757C67.4454 47.5765 67.7209 47.8482 67.9239 48.1911L66.9019 48.7934C66.8025 48.631 66.6707 48.5013 66.5061 48.4043C66.3412 48.3071 66.1643 48.2588 65.9747 48.2588H65.7583C65.5144 48.2588 65.2967 48.3332 65.1052 48.4822C64.9132 48.631 64.786 48.8227 64.7229 49.0574C64.6595 49.2918 64.6742 49.5219 64.7669 49.7477C64.8593 49.9733 65.0115 50.1468 65.2236 50.2687L67.3825 51.5208C67.9598 51.8545 68.376 52.3306 68.6309 52.9485C68.8857 53.5666 68.9276 54.1982 68.7563 54.8434C68.5847 55.4887 68.2329 56.0152 67.7004 56.4236C67.168 56.8318 66.5678 57.0361 65.9003 57.0361H65.8665C65.4019 57.0361 64.9618 56.9336 64.5467 56.7281C64.1318 56.523 63.7865 56.2351 63.5116 55.8654L64.4519 55.1479C64.6189 55.3692 64.8265 55.5416 65.0746 55.6656C65.3227 55.7899 65.5867 55.8517 65.8665 55.8517H65.9003Z" fill="#FCF6F2"/>
<path d="M79.831 55.8517V57.0361H73.8486V47.0744H79.831V48.2588H75.0328V52.6306H79.2085V53.8147H75.0328V55.8517H79.831Z" fill="#FCF6F2"/>
<path d="M86.0328 50.2145V56.9954H84.8486V47.0202L90.7362 53.8825V47.0406H91.9203V57.0835L86.0328 50.2145Z" fill="#FCF6F2"/>
<path d="M99.2729 57.0361V48.2588H96.9043V47.0746H102.826V48.2588H100.457V57.0361H99.2729Z" fill="#FCF6F2"/>
<path d="M108.995 57.0361H107.811V47.0746H108.995V57.0361Z" fill="#FCF6F2"/>
<path d="M118.059 50.1062L116.564 53.8147H119.535L118.059 50.1062ZM115.264 57.0361H113.985L118.066 46.9186L122.093 57.0361H120.821L120.008 54.9991H116.083L115.264 57.0361Z" fill="#FCF6F2"/>
<path d="M132.369 55.8517V57.0361H127.077V47.0744H128.261V55.8517H132.369Z" fill="#FCF6F2"/>
<path d="M139.789 55.8517C140.19 55.8517 140.55 55.7298 140.868 55.4862C141.187 55.2427 141.397 54.9269 141.501 54.5389C141.605 54.1509 141.58 53.7707 141.427 53.3985C141.273 53.0263 141.023 52.7412 140.676 52.5425L138.517 51.2906C138.074 51.0334 137.757 50.6704 137.562 50.201C137.369 49.7316 137.337 49.2491 137.468 48.7529C137.599 48.2564 137.867 47.8525 138.273 47.5413C138.679 47.2301 139.137 47.0744 139.647 47.0744H139.863C140.265 47.0744 140.639 47.1751 140.987 47.3757C141.334 47.5765 141.61 47.8482 141.813 48.1911L140.791 48.7934C140.691 48.631 140.559 48.5013 140.395 48.4043C140.23 48.3071 140.053 48.2588 139.863 48.2588H139.647C139.403 48.2588 139.185 48.3332 138.994 48.4822C138.802 48.631 138.675 48.8227 138.612 49.0574C138.548 49.2918 138.563 49.5219 138.656 49.7477C138.748 49.9733 138.9 50.1468 139.112 50.2687L141.271 51.5208C141.849 51.8545 142.265 52.3306 142.52 52.9485C142.774 53.5666 142.816 54.1982 142.645 54.8434C142.473 55.4887 142.122 56.0152 141.589 56.4236C141.057 56.8318 140.457 57.0361 139.789 57.0361H139.755C139.291 57.0361 138.851 56.9336 138.435 56.7281C138.021 56.523 137.675 56.2351 137.4 55.8654L138.341 55.1479C138.508 55.3692 138.715 55.5416 138.963 55.6656C139.211 55.7899 139.475 55.8517 139.755 55.8517H139.789Z" fill="#FCF6F2"/>
<path d="M156.318 30.5213C156.318 31.3373 156.183 32.1171 155.918 32.8362C155.354 34.3624 154.407 35.2069 153.18 35.2802C153.136 35.2853 153.081 35.2853 153.028 35.2853L152.958 35.284C152.949 35.2826 152.94 35.2826 152.932 35.2826C152.551 35.2727 152.152 35.1919 151.739 35.0426C150.271 34.5165 149.476 32.779 149.715 30.6158C150.02 27.8482 152.049 24.8394 155.898 24.3566L156.318 24.3045V30.5213ZM164.062 34.0799C163.69 34.1868 163.472 33.9604 163.388 33.8423C163.293 33.7056 163.246 33.5539 163.225 33.4693C163.22 33.4543 163.216 33.4392 163.214 33.4256L163.211 33.4132C163.202 33.371 163.2 33.3423 163.2 33.3423L163.199 33.3224V23.5084C163.199 23.5059 163.199 23.4662 163.194 23.3964L163.191 23.3652C163.191 23.3542 163.191 23.343 163.19 23.3317C163.134 22.6276 162.798 20.2072 160.842 18.2282C159.66 17.0317 157.905 16.5417 156.26 16.9482C156.233 16.9557 156.207 16.9619 156.184 16.967L156.227 19.4658C156.245 19.6138 156.254 19.7582 156.254 19.8949V21.0294C156.254 21.2681 156.221 21.5109 156.153 21.7533C156.078 22.0355 155.958 22.3242 155.79 22.6341C155.775 22.6663 155.754 22.7012 155.732 22.7385C155.716 22.7694 155.693 22.8081 155.67 22.8467C155.636 22.9077 155.59 22.9686 155.54 23.0358C155.483 23.1067 155.427 23.1639 155.379 23.2111C154.622 23.9264 153.341 23.9412 153.286 23.9412C148.836 23.9847 145.639 25.0507 144.043 27.0249C143.015 28.2985 142.669 29.9391 143.043 31.7726C143.91 36.0329 149.208 37.1061 152.556 36.7879C155.089 36.5476 156.318 35.7031 156.825 35.2206C156.859 35.1857 157.093 34.9134 157.131 34.8648L157.32 34.5676L157.457 34.9021C157.541 35.1073 157.541 35.1073 157.586 35.2045C157.627 35.2963 157.673 35.386 157.728 35.4792C157.772 35.5501 157.823 35.6261 157.889 35.7131C157.942 35.7839 158.001 35.8511 158.064 35.9171C159.044 36.9346 160.655 36.7777 160.671 36.7767L160.691 36.7753C162.144 36.7753 163.146 36.4271 163.674 35.738C164.128 35.1435 164.108 34.4306 164.062 34.0799" fill="#FCF6F2"/>
</svg>
