<svg width="157" height="119" viewBox="0 0 157 119" fill="none" xmlns="http://www.w3.org/2000/svg">
<path d="M103 32.9611C102.581 32.9163 102.237 33.1535 101.856 33.2462C100.601 33.5555 99.8723 34.503 99.401 35.5584C98.6598 37.2118 98.4798 39.0496 98.017 40.7961C97.8384 41.4662 97.7525 42.1608 97.4844 42.8072C97.4016 43.0028 97.1062 43.2633 97.3501 43.3868C97.5734 43.5036 97.7762 43.1746 97.9208 42.9616C97.962 42.8998 97.9723 42.8175 98 42.7485C98.6038 41.2634 98.9507 39.7031 99.2568 38.1401C99.4493 37.1536 99.7004 36.1945 100.206 35.3248C100.415 34.9636 100.622 34.5961 101.01 34.3486C101.615 33.9565 102.234 33.6244 102.956 33.5076C103.13 33.4798 103.336 33.4283 103.35 33.1844C103.302 32.9884 103.154 32.9745 103 32.9611ZM110.794 29.0227C110.746 28.8164 110.505 28.8164 110.32 28.8097C109.632 28.9126 108.986 29.1212 108.419 29.52C107.54 30.1385 107.014 31.0221 106.515 31.9638C105.962 33.0054 105.312 34.0183 104.202 34.6064C103.869 34.7814 103.549 34.9846 103.243 35.2044C103.114 35.3006 102.803 35.3593 102.938 35.5893C103.03 35.7581 103.281 35.6511 103.46 35.5893C105.268 34.9604 106.357 33.6347 107.141 31.9468C107.519 31.1425 108.048 30.4067 108.893 29.9532C109.381 29.6883 109.897 29.5267 110.409 29.3414C110.564 29.2863 110.853 29.2828 110.794 29.0227ZM113.168 30.8811C112.976 30.7952 112.907 30.9845 112.831 31.1013C112.69 31.3247 112.551 31.5516 112.451 31.7955C112.094 32.6719 111.451 33.3491 110.808 34.0013C109.285 35.5481 107.289 36.2598 105.302 36.954C104.377 37.2772 103.714 37.8376 103.227 38.6544C103.167 38.7506 103.079 38.8608 103.195 38.9534C103.315 39.0465 103.391 38.9158 103.474 38.8437C104.398 37.9924 105.508 37.4249 106.656 36.9921C107.975 36.4934 109.23 35.9675 110.382 35.1082C111.55 34.2349 112.295 33.0779 113.096 31.9329C113.23 31.7405 113.251 31.4724 113.289 31.352C113.309 31.0942 113.299 30.9397 113.168 30.8811ZM124.84 25.7844C124.682 25.7329 124.513 25.6984 124.348 25.685C123.375 25.6161 122.427 25.8018 121.51 26.0802C119.857 26.5856 118.77 27.7851 117.897 29.2138C117.034 30.6166 116.434 32.1773 115.293 33.4113C115.117 33.5966 114.922 33.8397 114.894 34.2349C115.602 33.9601 116.035 33.4628 116.417 32.9297C117.404 31.5413 118.035 29.9394 119.08 28.5724C119.805 27.62 120.702 26.9119 121.802 26.5717C122.736 26.2866 123.712 25.9428 124.74 26.1903C124.867 26.2212 125.018 26.1662 125.049 26.0113C125.081 25.8703 124.936 25.8188 124.84 25.7844ZM133.607 27.0631L133.603 27.06C133.552 27.0256 133.497 26.9911 133.455 26.9602C133.149 26.7194 132.771 26.6026 132.493 26.2866C131.781 25.4751 131.06 24.6672 130.287 23.9157C129.445 23.0975 128.434 22.5922 127.187 22.5783C127.07 22.5922 126.922 22.606 126.774 22.6333C126.599 22.6678 126.325 22.6266 126.335 22.8777C126.342 23.1149 126.612 23.0666 126.788 23.0975C127.303 23.1901 127.874 23.1664 128.328 23.3898C129.435 23.9327 130.38 24.7052 131.095 25.7432C131.616 26.4996 132.369 27.0117 133.16 27.4552C133.352 27.5618 133.627 27.5962 133.741 27.4244C133.765 27.3935 133.775 27.3621 133.779 27.3313V27.3281C133.72 27.2386 133.661 27.1527 133.607 27.0631ZM135.095 30.1833C133.885 30.1077 132.695 30.4998 131.458 30.2075C130.456 29.9703 129.531 29.6816 128.692 29.0558C128.18 28.6754 127.884 28.0465 127.193 27.8196C127.046 28.115 127.179 28.3146 127.334 28.5174C127.915 29.2828 128.651 29.819 129.521 30.2692C130.789 30.9259 132.097 30.895 133.445 30.878C134.033 30.8672 134.566 30.7128 135.112 30.5445C135.267 30.4998 135.514 30.5579 135.508 30.3382C135.497 30.0907 135.25 30.1936 135.095 30.1833ZM138.17 48.1604C137.985 47.9267 137.858 48.1912 137.727 48.3013C137.655 48.3631 137.586 48.432 137.507 48.4768C135.75 49.4803 134.315 50.8244 133.442 52.6488C133.036 53.501 132.689 54.4911 133.445 55.495C133.49 55.3746 133.514 55.3263 133.524 55.2748C133.665 54.5287 133.538 53.7521 133.871 53.0301C134.48 51.7044 135.418 50.6628 136.555 49.7793C137.039 49.4082 137.517 49.0264 137.992 48.6451C138.143 48.5211 138.298 48.3219 138.17 48.1604ZM138.26 61.0658C137.871 60.2579 137.366 59.5086 137.115 58.6322C136.723 57.2711 136.85 55.9108 137.139 54.5667C137.26 54.0063 137.49 53.4598 137.761 52.9545C137.992 52.5262 138.256 52.1135 138.411 51.6462C138.459 51.5016 138.648 51.3056 138.477 51.1852C138.277 51.0446 138.167 51.323 138.012 51.4054C137.954 51.4363 137.913 51.5155 137.875 51.5773C137.153 52.7585 136.593 54.0131 136.397 55.3849C136.115 57.3257 136.328 59.1957 137.438 60.8975C137.724 61.3374 137.947 61.8392 138.088 62.3436C138.497 63.8077 138.153 65.1657 137.411 66.4583C137.18 66.8558 137.033 67.3061 136.995 67.7738C137.17 67.8217 137.229 67.7116 137.301 67.6292C137.992 66.8419 138.414 65.9561 138.686 64.9218C139.05 63.5396 138.848 62.2917 138.26 61.0658ZM121.335 39.2457C120.922 38.6235 120.547 37.9786 120.107 37.377C119.943 37.1501 119.637 36.9231 119.351 36.9679C119.066 37.0127 119.125 37.3837 119.035 37.6209C118.715 38.4794 118.88 39.3697 118.791 40.2425C118.708 41.0745 118.829 41.1981 119.685 41.109C119.833 41.0951 119.987 41.1121 120.132 41.0813C120.823 40.9336 121.441 40.6516 121.424 39.8096C121.435 39.6409 121.465 39.4417 121.335 39.2457ZM135.893 46.1816C135.208 45.2841 134.528 44.3907 133.156 44.6929C132.565 44.8204 132.379 44.9578 132.39 45.5764C132.407 46.3776 133.191 47.5051 133.459 48.2221C133.476 48.2705 133.497 48.3152 133.51 48.3631C134.253 47.8752 134.978 47.3883 135.669 46.8382C135.888 46.6627 136.087 46.443 135.893 46.1816ZM134.703 40.7787C134.665 40.3526 134.291 40.3356 133.971 40.3253C133.472 40.3047 133.094 40.7684 133.105 41.4872C133.122 41.7347 133.194 42.1264 133.641 42.1506C134.25 42.1881 134.762 41.5109 134.703 40.7787ZM126.997 45.5661C126.922 45.3875 126.705 45.3978 126.55 45.4081C125.345 45.4873 124.334 45.14 123.606 44.1226C123.502 43.9745 123.334 43.9297 123.152 43.9163C122.805 43.8818 122.716 44.1875 122.743 44.3872C122.805 44.8339 122.973 45.2913 123.458 45.4493C124.015 45.6248 124.362 46.1229 124.984 46.2675C125.307 46.3431 125.589 46.3776 125.888 46.3293C126.218 46.2742 126.564 46.2124 126.808 45.9479C126.908 45.8445 127.066 45.7241 126.997 45.5661ZM124.218 36.3077C124.187 36.0262 123.623 35.5343 123.341 35.5446C122.949 35.5584 122.513 35.9366 122.571 36.284C122.619 36.5727 122.547 37.0194 123.087 36.9818C123.733 36.937 124.252 36.6344 124.218 36.3077ZM132.482 61.8155C131.486 62.426 130.507 63.0826 129.603 63.8422C129.094 64.2683 128.513 64.6331 128.07 65.1209C126.977 66.3173 126.036 67.6431 125.427 69.1519C125.008 70.2006 124.431 71.2238 124.492 72.4167C124.51 72.7362 124.613 73.0419 124.572 73.3723C124.497 74.0047 124.411 74.6372 124.337 75.2696C123.367 75.9146 121.519 77.764 120.678 78.3933C119.709 79.1252 118.76 79.8852 117.729 80.5382C116.75 81.1559 115.829 81.8676 114.801 82.4208C114.636 82.5103 114.56 82.7748 114.296 82.658C114.059 82.5515 113.979 82.3451 113.962 82.1079C113.846 80.5852 113.578 79.084 113.251 77.5957C113.055 76.7158 112.739 75.8676 112.252 75.0942C111.66 74.1627 111.014 73.2863 110.302 72.4301C109.154 71.0461 107.828 69.9115 106.333 68.9492C105.289 68.2756 104.257 67.5845 103.308 66.7734C102.237 65.8568 101.536 64.6433 100.721 63.5226C99.5831 61.9551 98.2815 60.5707 96.5905 59.5842C96.3224 59.4298 96.1984 59.2266 96.5077 58.9657C97.1643 58.4053 97.5667 57.6524 98.0206 56.9457C98.7654 55.7837 99.7107 54.8966 101.072 54.4875C102.289 54.12 103.302 53.3806 104.068 52.3941C105.24 50.8759 106.526 49.4597 107.869 48.0986C108.295 47.6698 108.598 47.1439 109.044 46.7657C109.766 46.1574 110.392 45.4663 110.959 44.7309C111.392 44.1638 111.695 43.4692 112.592 43.9987C112.618 44.0157 112.667 44.0054 112.704 44.0022C113.381 43.9436 113.677 44.5658 114.172 44.8339C114.333 44.9234 114.196 45.0782 114.09 45.2054C113.199 46.2814 112.24 47.2952 111.396 48.4146C110.282 49.8858 109.158 51.3436 108.323 52.9818C107.989 53.642 107.732 54.4119 107.911 55.2028C108.161 56.3164 108.804 57.2469 109.508 58.0888C110.261 58.9827 110.846 59.9794 111.513 60.9248C112.18 61.8656 112.839 62.8073 113.736 63.557C114.914 64.5435 116.076 65.5573 117.269 66.5304C117.687 66.8697 118.234 66.9762 118.76 66.8661C120.104 66.581 121.087 65.6401 122.19 64.9146C122.771 64.5332 123.279 64.0212 123.881 63.7115C124.95 63.1618 125.806 62.3092 126.874 61.7707C127.125 61.6436 127.372 61.5026 127.596 61.3339C128.744 60.4611 129.954 59.6773 131.245 59.0341C131.96 58.677 132.221 58.7969 132.479 59.5466C132.62 59.9521 132.678 60.3885 132.823 60.7945C132.984 61.2479 132.984 61.5057 132.482 61.8155ZM38.5962 79.8127C38.6064 79.4519 38.8987 79.349 39.1704 79.3145C39.4488 79.2764 40.0504 79.9402 40.0334 80.2321C40.0056 80.6779 39.6449 80.6644 39.3767 80.7087C38.9815 80.7087 38.5827 80.2356 38.5962 79.8127ZM35.4693 67.9143C35.4661 67.5052 35.7754 67.3441 36.1053 67.3472C36.5283 67.3508 36.7207 67.6637 36.7342 68.0625C36.7445 68.4062 36.5005 68.4922 36.2427 68.5092C35.8475 68.4506 35.4729 68.396 35.4693 67.9143ZM80.5439 105.271C80.3072 105.264 80.0319 105.298 80.0319 104.917C80.0319 104.494 80.4271 103.863 80.7024 103.918C81.0493 103.983 81.1836 104.243 81.1697 104.474C81.1768 105.01 81.0081 105.281 80.5439 105.271ZM50.0272 81.0628C51.4192 79.6408 52.6075 78.0393 53.9311 76.5573C54.794 75.5892 55.8114 74.7607 56.8104 73.9219C57.4876 73.3517 58.2266 72.8737 58.928 72.3513C59.8563 71.6602 60.8826 71.0873 61.9036 70.5202C62.3471 70.2763 62.8149 70.0731 63.1792 69.647C63.4885 69.2826 64.0283 69.1211 64.4544 68.8462C65.8831 67.9143 67.2961 66.9623 68.7329 66.0457C69.7883 65.3684 70.8321 64.6568 71.9493 64.1C72.7778 63.6909 73.6094 63.2509 74.5238 63.0172C74.7083 62.9689 74.8609 62.7867 75.0328 62.6699C75.4441 62.3884 75.7843 62.5392 75.9597 62.9313C76.5371 64.224 77.3898 65.3514 78.0289 66.6016C78.7576 68.0177 79.4339 69.4648 80.0149 70.9566C80.245 71.5501 80.4961 72.1347 80.7606 72.7157C80.8537 72.9184 81.0184 73.1382 81.2592 73.1248C81.5376 73.1109 81.5515 72.8083 81.6235 72.6055C81.7059 72.375 81.7336 72.1069 81.5859 71.8939C81.0153 71.0529 80.8398 70.0422 80.4034 69.1416C79.9804 68.2787 79.578 67.4059 79.1358 66.5532C78.9881 66.2623 79.0946 66.1866 79.3341 66.0457C79.7307 65.812 80.2109 65.8635 80.5753 65.8568C81.2314 65.8393 81.816 65.5712 82.4556 65.5506C82.7819 65.5403 82.8508 65.6643 82.8817 65.9185C82.9471 66.4686 83.0191 67.0241 83.05 67.5706C83.1051 68.571 83.3973 69.5472 83.4179 70.5238C83.4555 72.0658 83.9577 73.4855 84.3516 74.9191C84.7849 76.5027 85.3417 78.0702 86.1599 79.5275C86.6169 80.3386 86.8957 81.2521 87.3527 82.0631C87.9543 83.1324 88.5764 84.1946 89.2353 85.2361C89.878 86.2557 90.5208 87.2736 91.3734 88.1016C91.8958 88.6105 92.2328 89.3047 92.965 89.6418C93.2743 89.7828 93.3773 90.2903 93.751 90.5275C94.9371 91.2737 95.9303 92.3425 97.3537 92.6966C97.4736 92.7275 97.5632 92.7825 97.577 92.9132C97.5976 93.0748 97.4978 93.1401 97.3707 93.2122C95.1641 94.4704 92.8102 95.2666 90.2907 95.6207C88.4216 95.8821 86.5896 96.3494 84.7401 96.7347C82.2734 97.2504 79.8305 97.9446 77.2797 98.0028C76.8124 98.0131 76.3549 98.2091 75.9427 98.1026C74.1559 97.979 72.434 97.9652 70.7256 97.5905C69.2861 97.2741 67.8668 96.9236 66.4471 96.5248C64.7673 96.054 63.2065 95.3423 61.6663 94.5527C60.8942 94.1575 60.2206 93.6043 59.4987 93.1227C58.065 92.1671 56.8485 90.9675 55.6292 89.7725C54.794 88.9543 54.0891 88.0192 53.364 87.1017C52.2432 85.6819 51.3919 84.088 50.3982 82.5859C50.1923 82.2695 50.1543 81.8501 49.9104 81.5238C49.8038 81.3756 49.9001 81.1935 50.0272 81.0628ZM113.237 83.5071C111.605 84.3181 110.148 85.4205 108.539 86.2866C106.901 87.167 105.357 88.2359 103.769 89.2157C102.351 90.0876 100.931 90.9608 99.4972 91.8166C98.8545 92.2015 98.1978 91.9509 97.594 91.7034C96.3359 91.1877 95.284 90.3727 94.2425 89.4802C93.1575 88.5452 92.116 87.5967 91.2772 86.4312C90.1533 84.8615 89.1493 83.2184 88.2327 81.5131C87.3527 79.878 86.641 78.1696 85.9262 76.4611C85.2763 74.9017 84.8605 73.2483 84.5579 71.5913C84.25 69.8878 84.1121 68.1484 83.913 66.4239C83.7756 65.2275 83.789 65.2619 84.9876 65.073C85.7266 64.9558 86.4486 64.7324 87.1638 64.5158C87.9816 64.2683 88.7792 63.9456 89.5996 63.7186C90.2732 63.5293 90.8511 63.1788 91.432 62.8212C92.2981 62.2917 93.1745 61.781 94.0227 61.2273C94.5074 60.9113 94.9577 60.5367 95.3941 60.1585C95.5902 59.9897 95.724 59.9486 95.9236 60.1307C96.8448 60.9798 97.7968 61.7913 98.6862 62.6699C99.6212 63.5982 100.302 64.7324 101.075 65.7914C101.776 66.7493 102.557 67.6225 103.587 68.3029C105.076 69.2826 106.609 70.2347 107.92 71.4436C109.412 72.8186 110.842 74.2831 111.702 76.176C112.145 77.1558 112.412 78.1901 112.56 79.2559C112.721 80.3936 112.886 81.5305 113.052 82.6647C113.096 82.9503 113.33 83.0913 113.533 83.2148C113.495 83.4144 113.343 83.452 113.237 83.5071ZM73.8363 57.0692C72.8982 55.4225 71.8737 53.8309 70.8044 52.2683C70.1594 51.323 69.3586 50.4977 68.8086 49.4839C68.6058 49.1093 68.262 48.817 67.9904 48.4799C67.8941 48.3667 67.7706 48.2324 67.8802 48.078C67.9733 47.9473 68.1349 48.0055 68.2482 48.0605C68.8188 48.3425 69.479 48.3322 70.0529 48.6142C70.3988 48.7861 70.7632 48.9132 71.1723 48.9544C71.7841 49.0162 72.2653 49.5112 72.8843 49.5971C73.4895 49.6799 73.9979 50.1163 74.6648 50.034C74.9844 49.9923 75.2207 50.3844 75.5815 50.422C77.0527 50.5872 78.4725 51.0205 79.9321 51.2232C81.1527 51.3915 82.3831 51.5567 83.614 51.5911C84.651 51.622 85.689 51.5186 86.7306 51.3673C88.7895 51.0719 90.7132 50.4359 92.4803 49.3944C94.0258 48.4835 95.5799 47.5771 97.0856 46.5871C98.1271 45.9032 99.281 45.3772 100.408 44.8169C101.477 44.2874 102.608 44.0125 103.738 43.9642C104.556 43.9333 105.388 43.8165 106.224 43.8304C107.096 43.8474 108.003 43.7614 108.897 43.7408C109.33 43.7305 109.763 43.727 110.192 43.7408C110.296 43.7408 110.485 43.6858 110.464 43.923C110.316 44.1329 110.268 44.4216 110.024 44.5626C109.35 44.9543 108.952 45.6248 108.453 46.1816C108.113 46.5562 107.719 46.8655 107.385 47.2504C106.711 48.0332 105.89 48.7002 105.275 49.5251C104.653 50.3674 103.903 51.0858 103.247 51.8933C102.584 52.707 101.756 53.3327 100.673 53.6559C99.896 53.8895 99.102 54.2297 98.521 54.9275C97.7109 55.897 96.604 56.4676 95.4219 56.87C94.8955 57.0486 94.4041 57.2814 93.9435 57.5732C93.388 57.9272 92.769 58.1439 92.1916 58.4429C91.9374 58.5736 91.7995 58.5566 91.6209 58.3399C90.6273 57.1449 89.2662 56.8253 87.7963 56.7599C86.6652 56.7116 85.5516 56.7322 84.4375 57.0177C83.4797 57.2581 82.7166 57.7795 82.0465 58.4362C81.6097 58.8623 81.1146 59.2646 80.8398 59.8456C80.6643 60.2135 80.3586 60.1101 80.0561 60.0587C78.6753 59.8282 77.3795 59.2096 76.0251 59.0001C74.7405 58.7969 74.3488 57.9689 73.8363 57.0692ZM66.8284 46.797C66.6565 46.8243 66.5572 46.7142 66.4574 46.5907C64.5882 44.2462 62.4845 42.1125 60.5026 39.8678C59.8939 39.1803 59.1719 38.5926 58.5775 37.8993C57.0785 36.1394 55.4815 34.469 53.9861 32.71C52.8998 31.4348 51.69 30.2728 50.6458 28.9641C50.4363 28.7031 50.1615 28.4932 49.9139 28.2631C49.6011 27.9776 49.7143 27.8093 50.0684 27.7372C50.2886 27.6925 50.5186 27.6853 50.742 27.658C51.1238 27.641 51.5181 27.6374 51.8824 27.5653C53.2539 27.2834 54.6083 27.4655 55.9766 27.5618C56.7795 27.6168 57.553 27.8437 58.3542 27.8366C58.5909 27.8366 58.7973 27.9122 58.8385 28.1392C59.0963 29.6198 60.2341 30.5374 61.1955 31.4657C62.0584 32.2941 63.172 32.9127 64.372 33.3321C65.2829 33.6553 66.2134 33.7367 67.1449 33.8983C67.2684 33.922 67.4165 33.905 67.5298 33.8536C67.8977 33.6897 68.0593 33.8912 68.1725 34.1834C68.6711 35.4792 69.1456 36.7754 69.3998 38.1504C69.6232 39.38 70.0461 40.5831 70.1733 41.8207C70.2887 42.9585 70.5913 44.0573 70.6911 45.1951C70.7565 45.9376 70.8357 46.6766 70.8872 47.4223C70.9145 47.7616 70.7668 47.8108 70.5466 47.7007C70.022 47.4362 69.424 47.4948 68.8806 47.2473C68.2482 46.955 67.571 46.6833 66.8284 46.797ZM76.4373 44.8442C76.4203 45.0577 76.3344 45.3392 76.1177 45.4766C75.8568 45.6418 75.6777 45.3772 75.513 45.2085C75.3273 45.0129 74.8985 45.0577 74.9629 44.6069C75.0283 44.1705 75.3546 43.8545 75.7946 43.8648C76.111 43.8751 76.4445 44.3527 76.4373 44.8442ZM111.049 10.2655C111.196 10.1518 111.32 10.2194 111.461 10.2986C112.9 11.0927 114.014 12.1754 114.536 13.7773C114.825 14.6676 115.028 15.5775 115.038 16.5157C115.155 16.8424 114.963 17.1862 115.131 17.516C115.2 17.6539 115.117 17.8772 114.983 17.9766C114.867 18.0661 114.753 17.9081 114.64 17.8464C113.838 17.3925 113.392 16.6052 112.914 15.8904C112.175 14.7915 111.564 13.6054 111.241 12.3025C111.11 11.7802 110.994 11.2507 110.887 10.7247C110.853 10.5529 110.897 10.3846 111.049 10.2655ZM106.1 19.455C106.107 19.8869 105.721 20.3511 105.405 20.3408C105.082 20.3305 104.505 19.784 104.512 19.4998C104.522 19.032 105.041 18.5715 105.56 18.5956C106.175 18.6229 105.887 19.2178 106.1 19.455ZM99.5455 14.6228C99.5249 15.1581 99.1329 15.2338 98.6598 15.2508C98.3469 15.2199 98.0412 15.1272 98.0582 14.6644C98.0721 14.1725 98.363 13.8185 98.7757 13.8118C99.1709 13.8051 99.5594 14.2003 99.5455 14.6228ZM95.4631 22.974C95.8202 22.9704 96.4974 23.6785 96.5149 24.0737C96.5283 24.383 95.8856 24.9425 95.5109 24.9492C95.1018 24.9595 94.5831 24.383 94.5728 23.9121C94.5656 23.4927 95.054 22.9771 95.4631 22.974ZM115.055 45.6315C115.485 46.1229 115.712 46.7178 116.025 47.2679C116.534 48.1568 116.78 49.1746 117.416 50.0026C118.334 51.1991 119.355 52.2612 120.778 52.8686C121.197 53.0472 121.531 53.4012 121.994 53.4907C122.083 53.5082 122.165 53.5905 122.251 53.5905C123.207 53.5802 124.146 53.7588 125.108 53.7176C126.153 53.6729 127.204 53.5941 128.252 53.7485C128.534 53.7897 128.72 54.0166 128.895 54.1885C129.881 55.1544 130.841 56.1512 131.589 57.3225C131.747 57.5701 131.658 57.7625 131.417 57.8829C129.929 58.6183 128.62 59.6563 127.166 60.4508C126.414 60.863 125.751 61.4404 125.018 61.8942C123.148 63.0446 121.455 64.4509 119.592 65.6124C119.286 65.8017 118.945 65.7981 118.681 65.9288C118.289 65.8362 117.942 65.8393 117.639 65.5681C116.375 64.4298 115.073 63.3337 113.815 62.1923C113.443 61.8553 113.117 61.444 112.862 61.0107C112.266 60.0108 111.516 59.1169 110.894 58.1336C110.344 57.2617 109.584 56.5469 109.113 55.6119C108.714 54.8107 108.776 54.0511 109.151 53.3018C109.89 51.8248 111.004 50.5975 111.932 49.2467C112.492 48.4285 113.161 47.6975 113.78 46.9272C114.096 46.5356 114.533 46.1919 114.681 45.6592C114.753 45.3907 114.863 45.4117 115.055 45.6315ZM142.508 50.8414C142.453 50.4534 142.394 50.0649 142.329 49.6799C141.569 50.4292 140.898 51.2644 140.425 52.2545C139.604 53.9687 139.459 55.7251 140.26 57.4667C140.532 58.0579 141.039 58.5566 141.487 59.0547C142.229 59.8801 142.414 60.8079 142.27 61.8942C142.16 62.7111 142.043 63.5123 141.772 64.2924C141.284 65.6983 140.441 66.8867 139.566 68.0692C138.679 69.2656 137.61 70.3381 137.036 71.7498C136.906 72.0626 136.734 72.358 136.754 72.7157C136.761 72.8428 136.751 73.0146 136.579 73.0214C136.438 73.0285 136.438 72.8701 136.414 72.7635C136.17 71.8012 136.056 70.8022 135.776 69.86C135.432 68.7191 135.463 67.5263 135.085 66.3858C134.837 65.6298 134.651 64.7978 134.617 63.9558C134.596 63.4022 134.38 62.8557 134.25 62.3056C134.009 61.2891 133.837 60.2476 133.514 59.2544C133.029 57.7589 132.369 56.3472 131.283 55.158C130.933 54.7695 130.624 54.3398 130.397 53.8C130.139 53.1814 129.331 52.8753 128.582 52.848C127.204 52.7965 125.826 52.724 124.437 52.8135C122.677 52.9303 121.214 52.1274 119.846 51.0719C118.341 49.91 117.605 48.2946 116.88 46.6215C116.224 45.102 115.117 43.9163 113.578 43.2633C112.615 42.8586 111.554 42.7727 110.505 42.7691C109.113 42.7624 107.719 42.7315 106.33 42.7933C104.639 42.8689 102.924 42.9379 101.305 43.466C100.013 43.8885 98.7654 44.4798 97.6079 45.2224C96.8792 45.6901 96.1264 46.1162 95.3977 46.5768C94.6619 47.0445 93.9712 47.5977 93.2054 47.9952C92.0954 48.5762 91.0261 49.2502 89.8127 49.6146C89.524 49.7005 89.2559 49.8482 88.9752 49.9548C88.8512 49.9995 88.7035 50.0268 88.5992 49.9136C88.4735 49.7762 88.6212 49.6902 88.6901 49.5837C89.2227 48.7207 89.7133 47.8408 90.5037 47.1645C90.8717 46.8485 91.3255 46.7554 91.731 46.5459C92.4047 46.1986 93.192 46.0303 93.7627 45.5182C94.5862 44.7824 95.2155 43.9472 95.549 42.8072C95.9612 41.3802 95.6725 39.9301 95.9751 38.5273C96.2705 37.1433 96.3909 35.7061 97.099 34.4207C97.8451 33.0676 98.7448 31.847 99.9063 30.8126C100.724 30.0871 101.546 29.3204 102.495 28.8267C103.363 28.3728 104.175 27.7578 105.271 27.6477C106.058 27.5685 106.873 27.3724 107.669 27.2113C108.178 27.1079 108.673 27.1562 109.172 27.1218C109.265 27.1182 109.361 27.163 109.45 27.1527C110.426 27.0323 111.396 27.1903 112.365 27.2247C112.952 27.2453 113.55 27.2247 114.141 27.2556C114.609 27.2762 115.152 27.1357 115.653 27.0081C117.523 26.5341 118.953 25.4272 120.101 23.926C120.888 22.8912 121.925 22.1455 122.939 21.372C123.588 20.877 124.369 20.5127 125.115 20.2548C125.658 20.0655 126.304 19.873 126.929 19.8766C127.307 19.8802 127.685 19.8386 128.06 19.801C127.788 19.4926 127.51 19.1905 127.231 18.891C116.413 7.26798 100.982 0 83.8543 0C72.5473 0 61.9792 3.16447 52.9925 8.66357C52.7002 8.83858 52.4115 9.01762 52.1264 9.20337C52.1434 9.23067 52.1537 9.26156 52.164 9.29602C52.3739 10.0283 52.7521 10.6974 53.0305 11.4019C53.278 12.0277 53.3671 12.7013 53.4396 13.3203C53.3018 14.805 52.6765 15.9727 51.6175 16.9248C51.3597 17.1589 51.1135 17.5644 50.7594 17.4198C50.4775 17.303 50.5258 16.8218 50.3982 16.5295C50.1131 15.8971 50.0066 15.2373 50.0205 14.5749C50.0478 13.5025 49.9448 12.4301 50.302 11.3643C50.4466 10.9414 50.584 10.522 50.7389 10.1106C50.2886 10.4119 49.845 10.7247 49.4014 11.0412C46.0718 13.4268 42.9987 16.1482 40.2325 19.156C39.9953 19.4138 39.7581 19.6739 39.5245 19.9384C39.7617 20.155 39.9953 20.3752 40.229 20.595C40.6658 21.0041 41.164 21.3962 41.659 21.7673C42.2597 22.2175 42.7444 22.8227 43.2909 23.3517C44.3598 24.3924 45.532 25.3171 46.5942 26.3689C46.9196 26.6957 47.3116 26.9602 47.59 27.3416C47.7172 27.517 47.8031 27.6853 47.7342 27.9194C47.4491 28.9126 47.5726 29.9152 47.6863 30.9223C47.817 32.0811 48.3049 33.0604 49.0026 33.9668C49.5254 34.6512 50.2161 35.0808 50.9658 35.4828C52.2705 36.1806 53.6146 36.0468 54.9762 35.823C55.4744 35.7406 55.6704 36.1188 55.9041 36.3833C56.814 37.4285 57.6904 38.4964 58.7011 39.452C59.1513 39.8781 59.5192 40.3938 59.9556 40.8306C60.8898 41.762 61.6287 42.8756 62.6533 43.7203C62.8216 43.8577 62.9142 44.0295 63.0382 44.1875C63.0552 44.2086 63.0727 44.2323 63.0861 44.2529C63.1895 44.4042 63.2719 44.5832 63.4128 44.7032C63.4952 44.7757 63.6017 44.8307 63.7499 44.841C64.0453 44.8647 63.8148 45.1982 63.9835 45.3531C64.6777 46.003 65.2242 46.7867 65.897 47.4639C66.179 47.7454 66.4882 48.095 66.6843 48.5144C66.887 48.9544 67.3167 49.2811 67.6296 49.6728C68.4715 50.7246 69.245 51.8284 69.9633 52.9684C70.4369 53.7244 71.0796 54.3707 71.516 55.158C72.4372 56.8387 73.5579 58.4089 74.3591 60.1616C74.634 60.7632 75.2136 61.2103 75.2655 61.9309C74.2351 61.8728 73.3999 62.4466 72.5025 62.8006C71.8392 63.062 71.2 63.4125 70.5913 63.784C69.6849 64.3336 68.8327 64.9696 67.925 65.513C66.815 66.1763 65.756 66.9211 64.6536 67.5983C63.595 68.2447 62.5946 69.0006 61.5325 69.6608C60.5953 70.2418 59.6772 70.8501 58.7422 71.4333C57.5669 72.1691 56.4322 72.956 55.4059 73.8982C54.333 74.8811 53.278 75.8882 52.343 77.0009C51.9097 77.5165 51.5109 78.0702 51.0723 78.5858C50.656 79.067 50.2367 79.5414 49.8038 80.002C49.5492 80.2768 49.3567 80.3386 49.1472 79.8919C48.5971 78.7232 48.1021 77.5371 47.6312 76.3308C47.1362 75.0566 46.6976 73.7639 46.3055 72.461C46.0409 71.5743 45.7795 70.6818 45.532 69.788C45.1023 68.2375 44.8651 66.653 44.5214 65.09C44.3289 64.2204 44.2568 63.323 44.2188 62.4224C44.1745 61.3544 44.016 60.2856 44.0299 59.2132C44.0366 58.395 43.9816 57.5768 44.0541 56.7528C44.14 55.7663 44.0366 54.7628 44.085 53.766C44.1261 52.7965 44.0608 51.8284 44.2054 50.8589C44.2568 50.5013 44.0335 50.1405 44.0263 49.752C43.999 48.3837 43.9059 47.0235 43.4937 45.7004C43.1432 44.5555 42.6482 43.4933 41.941 42.5355C40.8444 41.0575 39.3768 39.9847 37.833 39.0635C36.4285 38.2261 35.0808 37.3081 33.7196 36.4075C32.521 35.6135 31.4007 34.7335 30.352 33.7676C30.1904 34.1042 30.036 34.4377 29.8811 34.7783C29.5991 35.3968 29.3279 36.0262 29.0665 36.6586C28.9013 37.0574 28.7433 37.4593 28.5885 37.8617C29.2728 37.5489 29.9876 37.3116 30.6957 37.0605C30.8918 36.9921 31.1357 36.9612 31.2664 36.8269C31.7784 36.3046 32.1155 36.638 32.6141 36.9164C33.4274 37.3667 34.1426 37.9508 34.9022 38.4691C36.0332 39.2426 37.235 39.9059 38.3903 40.631C39.0948 41.071 39.6274 41.6591 40.212 42.1747C40.7415 42.6384 41.202 43.2561 41.604 43.8988C42.0578 44.628 42.2046 45.4529 42.569 46.2021C43.0707 47.2437 42.9297 47.6734 41.9947 48.3698C41.219 48.9508 40.5042 49.6043 39.6587 50.1025C38.8678 50.5702 38.0599 50.9963 37.2489 51.4193C35.5794 52.2889 33.8298 52.989 32.064 53.6281C30.6823 54.1303 29.2795 54.6357 27.7891 54.7762C27.2287 54.8281 26.6992 55.1029 26.1146 55.0891C25.6612 55.0891 25.2074 55.0926 24.7535 55.0962C24.7293 55.4194 24.7087 55.7457 24.6917 56.0724C24.6367 57.1229 24.6094 58.1783 24.6094 59.2441C24.6094 64.2343 25.2279 69.0799 26.3899 73.7089C26.4584 73.9841 26.5273 74.2554 26.5994 74.5271C27.0393 74.4205 27.4896 74.3691 27.9426 74.331C29.101 74.2384 30.2763 74.1869 31.3698 74.6716C31.6482 74.7987 31.94 74.8229 32.222 74.9259C32.5899 75.0633 32.6163 75.177 32.3975 75.4724C31.851 76.2172 31.0533 76.6195 30.249 76.9561C29.6716 77.1969 29.015 77.2556 28.396 77.3961C28.0809 77.4136 27.7649 77.4239 27.452 77.4239C27.5447 77.709 27.6378 77.9945 27.734 78.2797C35.6617 101.663 57.7938 118.488 83.8543 118.488C97.6424 118.488 110.327 113.78 120.393 105.879C120.778 105.584 121.156 105.278 121.531 104.969C120.125 105.078 118.719 105.044 117.318 104.955C116.375 104.893 115.437 104.996 114.482 104.859C113.433 104.704 112.34 104.724 111.289 104.539C109.364 104.198 107.454 103.791 105.539 103.385C104.935 103.258 104.158 102.972 103.615 103.684C103.583 103.722 103.466 103.719 103.394 103.705C102.484 103.502 101.56 103.602 100.639 103.56C99.102 103.495 97.5667 103.498 96.0266 103.471C95.9062 103.467 95.7929 103.464 95.762 103.326C95.7312 103.185 95.8444 103.113 95.9509 103.086C96.2056 103.017 96.4666 102.983 96.7212 102.911C96.8381 102.876 96.9893 102.818 96.9858 102.653C96.9822 102.495 96.8483 102.422 96.7212 102.402C96.7109 102.402 96.7038 102.399 96.6935 102.399C96.3327 102.344 95.9787 102.336 95.6349 102.388L93.8678 101.904C93.8853 101.89 93.8956 101.876 93.9059 101.859C93.995 101.707 93.8678 101.618 93.7649 101.532C93.6651 101.45 93.5286 101.37 93.6172 101.212C93.7076 101.061 93.8714 101.061 94.0227 101.078C94.7617 101.164 95.4971 101.243 96.2226 101.422C96.5077 101.494 96.7933 101.546 97.0856 101.556C97.4428 101.573 97.8004 101.532 98.1544 101.384C98.2954 101.326 98.4606 101.278 98.4422 101.085C98.4248 100.91 98.2681 100.845 98.1235 100.803C97.9244 100.745 97.7077 100.683 97.5081 100.648C97.4602 100.638 97.4119 100.631 97.3671 100.628C96.8036 100.57 96.2432 100.446 95.6828 100.357L94.5759 99.6347C94.7102 99.576 94.6274 99.418 94.6001 99.3048C94.49 98.8348 94.7653 98.8107 95.0745 98.9449C95.8516 99.2784 96.659 99.4767 97.4911 99.6069C97.6665 99.6383 97.7901 99.6172 97.876 99.4767C97.9964 99.2851 97.8245 99.2059 97.7077 99.1235C97.4087 98.9105 97.0923 98.7422 96.7691 98.6012L96.044 97.659C96.0883 97.6147 96.1367 97.5628 96.1846 97.4943C96.305 97.3291 96.446 97.1197 96.6143 97.2159C97.0372 97.4563 97.5564 97.4737 97.9275 97.8C98.1441 97.9893 98.3836 98.12 98.6378 98.2163C98.9234 98.3259 99.2291 98.3949 99.5317 98.4669C99.9582 98.4911 100.127 98.4705 100.154 98.3398C100.212 98.0887 100.02 97.9343 99.8548 97.8412C99.8445 97.8345 99.8306 97.8278 99.8204 97.8242L99.5491 96.9303C99.5764 96.9339 99.6006 96.9375 99.6279 96.9375C99.9099 96.9339 99.8378 96.6761 99.8409 96.5006C99.8409 96.3391 99.8481 96.1811 100.02 96.126C100.216 96.0607 100.254 96.267 100.357 96.3668C100.783 96.7826 101.062 97.3636 101.608 97.642C102.179 97.9307 102.553 98.3913 102.93 98.8693C103.141 99.1374 103.436 99.2784 103.762 99.3048C104.257 99.3469 104.728 99.5179 105.206 99.6172C105.976 99.7788 106.736 99.6244 107.499 99.7206C108.172 99.8066 108.88 99.6347 109.57 99.6069C110.371 99.5796 111.148 99.7 111.949 99.3182C113.175 98.7386 114.399 98.137 115.671 97.6317C117.327 96.9751 119.042 96.7106 120.781 96.5212C122.138 96.3735 123.502 96.4013 124.857 96.4698C125.593 96.5078 126.317 96.408 127.049 96.4456C127.616 96.4733 128.273 96.4183 128.823 96.1018C128.933 96.0401 129.098 96.0025 129.074 95.8337C129.049 95.6793 128.888 95.6484 128.768 95.6278C128.3 95.5522 127.833 95.4833 127.365 95.4318C127.039 95.3938 126.877 95.2702 126.966 94.9126C127.052 94.5563 126.98 94.209 126.915 93.8518C126.674 92.5524 126.304 91.284 126.139 89.9685C126.081 89.4873 125.991 89.0026 125.871 88.5313C125.627 87.5623 125.568 86.5583 125.359 85.5857C125.156 84.6449 125.245 83.6825 125.07 82.7404C125.018 82.4691 124.96 82.1871 125.001 81.8984C125.149 80.929 124.94 79.9537 125.07 78.9775C125.156 78.3347 125.067 77.6745 125.125 77.0286C125.225 75.9226 125.369 74.8158 125.513 73.7124C125.593 73.1109 125.41 72.4954 125.472 71.9319C125.617 70.6026 126.225 69.3686 126.905 68.2447C127.657 67.0071 128.513 65.8084 129.73 64.9079C130.755 64.1514 131.774 63.3883 132.823 62.6596C133.077 62.4846 133.27 62.4224 133.338 62.8727C133.472 63.7634 133.61 64.6568 133.861 65.5162C134.101 66.3276 134.174 67.1687 134.356 67.9869C134.593 69.0593 134.854 70.125 135.057 71.2041C135.229 72.1069 135.39 73.0111 135.623 73.8982C135.816 74.6233 135.556 75.4276 136.056 76.1003C136.163 76.2449 136.111 76.5027 136.142 76.7086C136.242 77.3343 136.273 77.9704 136.352 78.5992C136.603 80.5691 136.62 82.5479 136.716 84.5245C136.74 84.9989 136.747 85.472 136.751 85.95C137.074 85.3104 137.387 84.6619 137.689 84.0088C140.539 77.8258 142.353 71.0734 142.913 63.9626C143.023 62.567 143.085 61.1553 143.095 59.7319C143.099 59.5704 143.099 59.4056 143.099 59.2441C143.099 56.392 142.896 53.587 142.508 50.8414Z" fill="#DF958B"/>
<path d="M96.6933 102.398L96.5796 102.646L95.6348 102.388C95.9785 102.336 96.3321 102.343 96.6933 102.398Z" fill="#6E4D3C"/>
<path d="M97.3669 100.628C97.4113 100.632 97.4596 100.639 97.5075 100.649L97.085 101.556C96.7927 101.546 96.5076 101.494 96.2225 101.422C95.4974 101.243 94.7615 101.165 94.023 101.079C93.8717 101.061 93.7065 101.061 93.6175 101.212C93.528 101.37 93.6654 101.45 93.7652 101.532C93.8681 101.618 93.9952 101.707 93.9062 101.859C93.8959 101.876 93.8856 101.89 93.8681 101.904L93.6689 101.848L93.2393 101.419L93.7307 100.683L96.8858 101.14L95.6827 100.357C96.243 100.446 96.803 100.57 97.3669 100.628Z" fill="#6E4D3C"/>
<path d="M97.8749 99.4771C97.789 99.6181 97.6654 99.6387 97.49 99.6078C96.6583 99.4771 95.8504 99.278 95.0739 98.9445C94.7646 98.8102 94.4897 98.8344 94.5999 99.3053C94.6272 99.4185 94.7095 99.5765 94.5757 99.6351L94.4038 99.5219L94.0977 98.8308L95.6548 98.6934L96.9435 98.8308L96.7685 98.6008C97.0912 98.7417 97.4076 98.91 97.7066 99.1231C97.8234 99.2054 97.9953 99.2847 97.8749 99.4771Z" fill="#6E4D3C"/>
<path d="M98.8784 97.6971L98.6381 98.2158C98.3834 98.1196 98.143 97.9889 97.9264 97.8C97.5553 97.4737 97.0361 97.4563 96.6136 97.2159C96.4453 97.1197 96.3043 97.3291 96.1839 97.4943C96.136 97.5628 96.0877 97.6143 96.0429 97.659L95.8438 97.4012L96.4556 96.6725L98.8784 97.6971Z" fill="#6E4D3C"/>
<path d="M99.9169 98.1335L98.8789 97.6971L99.0333 97.3636L99.3014 96.7826L99.4254 96.5181L99.549 96.9303L99.8207 97.8242L99.9169 98.1335Z" fill="#6E4D3C"/>
<path d="M136.325 95.8959C136.191 97.1058 135.559 98.0954 134.844 99.0371C133.734 100.501 132.281 101.536 130.713 102.405C130.758 101.505 130.452 100.288 131.528 98.9857C132.741 97.5144 133.944 96.2706 135.607 95.439C136.016 95.2326 136.377 95.4457 136.325 95.8959Z" fill="#DF958B"/>
<path d="M151.92 36.4764C151.803 37.9508 151.325 39.1736 150.659 40.3597C149.862 41.7723 148.938 43.082 147.886 44.3048C146.518 45.8928 145.017 47.3435 143.411 48.6966C143.04 49.0094 142.676 49.3326 142.328 49.6799C141.569 50.4292 140.898 51.2644 140.425 52.2545C139.604 53.9687 139.459 55.7251 140.26 57.4667C140.532 58.0579 141.039 58.5565 141.487 59.0547C142.229 59.8801 142.414 60.8079 142.27 61.8942C142.16 62.7111 142.043 63.5123 141.772 64.2924C141.283 65.6983 140.441 66.8867 139.566 68.0692C138.679 69.2656 137.61 70.338 137.036 71.7497C136.905 72.0626 136.734 72.358 136.754 72.7157C136.761 72.8428 136.751 73.0146 136.579 73.0214C136.438 73.0285 136.438 72.8701 136.414 72.7635C136.17 71.8012 136.056 70.8022 135.776 69.86C135.432 68.7191 135.463 67.5263 135.085 66.3858C134.837 65.6298 134.651 64.7978 134.617 63.9558C134.596 63.4022 134.38 62.8557 134.249 62.3056C134.009 61.2891 133.837 60.2475 133.514 59.2543C133.029 57.7589 132.369 56.3472 131.283 55.158C130.933 54.7695 130.624 54.3398 130.397 53.8C130.139 53.1814 129.331 52.8753 128.582 52.848C127.203 52.7965 125.826 52.724 124.437 52.8135C122.677 52.9303 121.214 52.1273 119.846 51.0719C118.341 49.91 117.605 48.2946 116.88 46.6215C116.224 45.1019 115.117 43.9163 113.577 43.2632C112.615 42.8586 111.554 42.7727 110.505 42.7691C109.113 42.7624 107.718 42.7315 106.33 42.7933C104.639 42.8689 102.923 42.9378 101.305 43.466C100.013 43.8885 98.7653 44.4798 97.6078 45.2223C96.8791 45.6901 96.1263 46.1162 95.3976 46.5768C94.6618 47.0445 93.9711 47.5977 93.2053 47.9952C92.0953 48.5762 91.026 49.2502 89.8126 49.6146C89.5239 49.7005 89.2558 49.8482 88.9751 49.9547C88.8511 49.9995 88.7034 50.0268 88.5991 49.9136C88.4734 49.7761 88.6211 49.6902 88.6896 49.5837C89.2226 48.7207 89.7132 47.8408 90.5036 47.1644C90.8716 46.8484 91.325 46.7553 91.7309 46.5459C92.4046 46.1985 93.1919 46.0303 93.7626 45.5182C94.5861 44.7824 95.2154 43.9472 95.5489 42.8071C95.9611 41.3802 95.6724 39.93 95.975 38.5273C96.2704 37.1433 96.3908 35.7061 97.0989 34.4206C97.845 33.0676 98.7442 31.847 99.9062 30.8126C100.724 30.087 101.546 29.3203 102.495 28.8266C103.363 28.3728 104.174 27.7578 105.271 27.6477C106.058 27.5684 106.873 27.3724 107.669 27.2113C108.178 27.1079 108.673 27.1562 109.171 27.1218C109.264 27.1182 109.361 27.1629 109.45 27.1526C110.426 27.0322 111.395 27.1902 112.365 27.2247C112.952 27.2453 113.55 27.2247 114.141 27.2556C114.609 27.2762 115.152 27.1356 115.653 27.0081C117.522 26.5341 118.953 25.4272 120.101 23.9259C120.887 22.8911 121.925 22.1454 122.939 21.372C123.588 20.877 124.369 20.5126 125.115 20.2548C125.658 20.0655 126.304 19.873 126.929 19.8766C127.307 19.8802 127.685 19.8385 128.06 19.8009C128.52 19.7459 128.981 19.6944 129.431 19.7217C130.064 19.7598 130.755 19.8833 131.394 20.0829C132.297 20.3613 133.19 20.6912 133.864 21.3787C134.466 21.9941 135.005 22.6745 135.528 23.3588C136.225 24.2733 136.84 25.2893 137.844 25.8774C138.621 26.3309 139.484 26.7229 140.455 26.5372C140.823 26.4687 141.205 26.5444 141.572 26.5578C142.992 26.6231 144.446 26.5444 145.813 26.9808C146.418 27.1732 146.92 27.6718 147.48 28.012C148.542 28.665 149.12 29.7433 149.78 30.7231C150.625 31.9741 151.195 33.3836 151.656 34.8158C151.834 35.3727 152.02 35.9742 151.92 36.4764ZM114.681 45.6592C114.753 45.3906 114.863 45.4117 115.055 45.6314C115.485 46.1229 115.712 46.7178 116.025 47.2678C116.533 48.1568 116.78 49.1746 117.416 50.0026C118.334 51.199 119.354 52.2612 120.778 52.8686C121.197 53.0471 121.531 53.4012 121.993 53.4907C122.083 53.5082 122.165 53.5905 122.251 53.5905C123.207 53.5802 124.145 53.7588 125.108 53.7176C126.153 53.6729 127.203 53.5941 128.252 53.7485C128.534 53.7897 128.719 54.0166 128.895 54.1885C129.881 55.1544 130.841 56.1512 131.588 57.3225C131.747 57.5701 131.657 57.7625 131.417 57.8829C129.929 58.6183 128.62 59.6563 127.166 60.4508C126.414 60.863 125.751 61.4404 125.018 61.8942C123.148 63.0445 121.455 64.4509 119.592 65.6124C119.286 65.8017 118.945 65.7981 118.681 65.9288C118.289 65.8362 117.942 65.8393 117.639 65.5681C116.375 64.4298 115.072 63.3337 113.815 62.1923C113.443 61.8553 113.117 61.444 112.862 61.0107C112.265 60.0108 111.516 59.1169 110.894 58.1336C110.344 57.2617 109.584 56.5469 109.113 55.6118C108.714 54.8107 108.776 54.0511 109.151 53.3018C109.89 51.8248 111.004 50.5975 111.932 49.2466C112.492 48.4284 113.161 47.6975 113.78 46.9272C114.096 46.5356 114.533 46.1918 114.681 45.6592ZM132.482 61.8155C131.486 62.426 130.507 63.0826 129.603 63.8422C129.094 64.2683 128.513 64.633 128.07 65.1209C126.977 66.3173 126.036 67.6431 125.427 69.1519C125.008 70.2006 124.431 71.2238 124.492 72.4167C124.51 72.7362 124.613 73.0419 124.572 73.3723C124.497 74.0047 124.411 74.6372 124.337 75.2696C123.367 75.9146 121.519 77.764 120.678 78.3933C119.709 79.1252 118.76 79.8852 117.729 80.5382C116.75 81.1559 115.829 81.8676 114.801 82.4208C114.636 82.5103 114.56 82.7748 114.296 82.658C114.059 82.5515 113.979 82.3451 113.962 82.1079C113.846 80.5852 113.577 79.084 113.251 77.5957C113.055 76.7158 112.739 75.8676 112.252 75.0942C111.66 74.1627 111.014 73.2863 110.302 72.4301C109.154 71.0461 107.828 69.9115 106.333 68.9492C105.288 68.2755 104.257 67.5845 103.308 66.7734C102.237 65.8568 101.536 64.6433 100.721 63.5226C99.583 61.9551 98.2814 60.5707 96.5904 59.5842C96.3223 59.4298 96.1983 59.2266 96.5076 58.9656C97.1642 58.4053 97.5666 57.6524 98.0205 56.9457C98.7653 55.7837 99.7106 54.8966 101.072 54.4875C102.289 54.12 103.302 53.3806 104.068 52.3941C105.24 50.8759 106.526 49.4597 107.869 48.0986C108.295 47.6698 108.598 47.1439 109.044 46.7656C109.766 46.1574 110.392 45.4663 110.959 44.7309C111.392 44.1638 111.695 43.4691 112.592 43.9986C112.618 44.0156 112.666 44.0053 112.704 44.0022C113.381 43.9436 113.677 44.5657 114.172 44.8338C114.333 44.9234 114.196 45.0782 114.089 45.2053C113.199 46.2813 112.24 47.2951 111.395 48.4146C110.282 49.8858 109.158 51.3436 108.323 52.9818C107.989 53.642 107.732 54.4118 107.911 55.2027C108.161 56.3163 108.804 57.2469 109.508 58.0888C110.261 58.9827 110.846 59.9794 111.513 60.9247C112.179 61.8656 112.838 62.8073 113.735 63.557C114.914 64.5435 116.076 65.5573 117.269 66.5304C117.687 66.8697 118.234 66.9762 118.76 66.8661C120.104 66.581 121.087 65.6401 122.19 64.9146C122.77 64.5332 123.279 64.0212 123.881 63.7115C124.95 63.1618 125.806 62.3092 126.874 61.7707C127.125 61.6436 127.372 61.5026 127.596 61.3338C128.744 60.461 129.953 59.6773 131.245 59.0341C131.96 58.6769 132.221 58.7969 132.479 59.5466C132.62 59.9521 132.678 60.3885 132.822 60.7945C132.984 61.2479 132.984 61.5057 132.482 61.8155ZM113.237 83.5071C111.605 84.3181 110.148 85.4205 108.539 86.2866C106.901 87.167 105.357 88.2359 103.769 89.2157C102.35 90.0876 100.931 90.9608 99.4971 91.8166C98.8544 92.2015 98.1977 91.9509 97.5939 91.7034C96.3358 91.1877 95.2839 90.3727 94.2424 89.4802C93.1574 88.5452 92.1159 87.5967 91.2771 86.4312C90.1532 84.8615 89.1492 83.2184 88.2326 81.5131C87.3526 79.878 86.6409 78.1696 85.9261 76.4611C85.2762 74.9017 84.8604 73.2483 84.5578 71.5913C84.2495 69.8878 84.112 68.1484 83.9129 66.4239C83.7755 65.2274 83.7889 65.2619 84.9875 65.073C85.7265 64.9558 86.4485 64.7324 87.1637 64.5158C87.9815 64.2683 88.7791 63.9455 89.5995 63.7186C90.2731 63.5293 90.851 63.1788 91.4319 62.8212C92.298 62.2917 93.1744 61.781 94.0226 61.2273C94.5073 60.9113 94.9576 60.5367 95.394 60.1585C95.5901 59.9897 95.7239 59.9486 95.9235 60.1307C96.8447 60.9798 97.7967 61.7913 98.6861 62.6699C99.6211 63.5982 100.302 64.7324 101.075 65.7914C101.776 66.7493 102.557 67.6225 103.587 68.3028C105.075 69.2826 106.608 70.2347 107.92 71.4436C109.412 72.8186 110.842 74.2831 111.702 76.176C112.145 77.1558 112.412 78.1901 112.56 79.2559C112.721 80.3936 112.886 81.5305 113.051 82.6647C113.096 82.9503 113.33 83.0913 113.533 83.2148C113.495 83.4144 113.343 83.452 113.237 83.5071ZM97.3706 93.2122C95.1635 94.4704 92.8101 95.2666 90.2906 95.6207C88.4215 95.8821 86.5895 96.3494 84.74 96.7347C82.2729 97.2504 79.8304 97.9446 77.2796 98.0028C76.8123 98.0131 76.3548 98.2091 75.9422 98.1026C74.1558 97.9791 72.4339 97.9652 70.7255 97.5905C69.286 97.2741 67.8667 96.9236 66.447 96.5248C64.7672 96.054 63.2064 95.3423 61.6662 94.5527C60.8941 94.1575 60.2205 93.6043 59.4986 93.1227C58.0649 92.1671 56.8484 90.9675 55.6291 89.7725C54.7939 88.9543 54.089 88.0192 53.3639 87.1017C52.2431 85.6819 51.3918 84.0881 50.3981 82.5859C50.1922 82.2695 50.1542 81.8501 49.9103 81.5238C49.8037 81.3756 49.9 81.1935 50.0271 81.0628C51.4191 79.6408 52.6074 78.0393 53.931 76.5573C54.7939 75.5892 55.8113 74.7607 56.8103 73.9219C57.4875 73.3517 58.2265 72.8737 58.9279 72.3513C59.8562 71.6602 60.8825 71.0873 61.9035 70.5202C62.347 70.2763 62.8148 70.0731 63.1791 69.647C63.4884 69.2826 64.0282 69.121 64.4543 68.8462C65.883 67.9143 67.296 66.9623 68.7328 66.0456C69.7882 65.3684 70.832 64.6568 71.9492 64.1C72.7777 63.6909 73.6093 63.2509 74.5237 63.0172C74.7082 62.9689 74.8608 62.7867 75.0327 62.6699C75.444 62.3884 75.7842 62.5392 75.9596 62.9313C76.537 64.2239 77.3897 65.3514 78.0288 66.6016C78.7575 68.0177 79.4338 69.4648 80.0148 70.9566C80.2449 71.5501 80.496 72.1347 80.7605 72.7157C80.8536 72.9184 81.0183 73.1382 81.2591 73.1247C81.5375 73.1109 81.5514 72.8083 81.6234 72.6055C81.7058 72.375 81.7335 72.1069 81.5854 71.8939C81.0152 71.0528 80.8397 70.0422 80.4033 69.1416C79.9803 68.2787 79.5779 67.4059 79.1357 66.5532C78.988 66.2623 79.0945 66.1866 79.334 66.0456C79.7306 65.812 80.2104 65.8635 80.5752 65.8568C81.2313 65.8393 81.8159 65.5712 82.4555 65.5506C82.7818 65.5403 82.8507 65.6643 82.8816 65.9185C82.947 66.4686 83.019 67.0241 83.0499 67.5706C83.105 68.571 83.3972 69.5472 83.4178 70.5238C83.4554 72.0657 83.9576 73.4855 84.3515 74.9191C84.7848 76.5027 85.3416 78.0702 86.1598 79.5275C86.6168 80.3386 86.8956 81.2521 87.3526 82.0631C87.9542 83.1324 88.5763 84.1946 89.2352 85.2361C89.8779 86.2557 90.5207 87.2736 91.3733 88.1016C91.8957 88.6105 92.2327 89.3047 92.9649 89.6418C93.2742 89.7828 93.3772 90.2903 93.7509 90.5276C94.937 91.2737 95.9302 92.3425 97.3536 92.6966C97.4735 92.7275 97.5631 92.7825 97.5769 92.9132C97.5975 93.0748 97.4977 93.1401 97.3706 93.2122ZM49.1471 79.8919C48.597 78.7232 48.102 77.5371 47.6311 76.3308C47.1361 75.0566 46.6974 73.7639 46.3054 72.461C46.0408 71.5743 45.7794 70.6818 45.5319 69.788C45.1022 68.2375 44.865 66.653 44.5213 65.09C44.3288 64.2204 44.2567 63.3229 44.2187 62.4224C44.1739 61.3544 44.0159 60.2856 44.0298 59.2132C44.0365 58.395 43.9815 57.5768 44.054 56.7528C44.1399 55.7663 44.0365 54.7628 44.0849 53.766C44.126 52.7965 44.0607 51.8283 44.2053 50.8589C44.2567 50.5012 44.0334 50.1405 44.0262 49.752C43.9989 48.3837 43.9058 47.0235 43.4936 45.7004C43.1427 44.5554 42.6481 43.4933 41.9409 42.5355C40.8443 41.0575 39.3766 39.9846 37.8329 39.0635C36.4284 38.226 35.0807 37.308 33.7195 36.4075C32.5209 35.6135 31.4006 34.7335 30.3519 33.7676C29.2933 32.7923 28.31 31.7302 27.4072 30.5718C25.8017 28.5173 24.7122 26.2346 24.0623 23.7438C23.6362 22.1007 23.4164 20.4164 23.4966 18.6985C23.5333 17.8289 23.3556 16.9592 23.1286 16.107C22.9944 15.6016 22.8847 15.0963 22.7057 14.6058C22.3346 13.5812 21.678 12.8011 20.6741 12.4023C19.2306 11.8284 17.8981 11.1271 17.0043 9.80489C16.3476 8.83182 15.7116 7.84891 15.392 6.69368C15.2269 6.10241 14.7215 5.65571 14.5944 5.03804C14.5635 4.88675 14.3433 4.70816 14.5429 4.58776C14.6839 4.50182 14.9485 4.47407 15.0827 4.54972C15.6463 4.86616 16.3029 4.85945 16.8941 5.01387C18.1246 5.33703 19.1652 6.02677 20.3375 6.42915C21.0111 6.65921 21.4891 7.19901 22.0938 7.47428C22.8811 7.83504 23.54 8.39542 24.3237 8.73201C25.0627 9.04488 25.6745 9.54707 26.2936 10.0211C26.6064 10.2583 26.9708 10.4396 27.2868 10.6043C27.9183 10.9346 28.3789 11.4775 29.0216 11.7765C29.7642 12.1239 30.3004 12.7738 30.9812 13.224C31.2596 13.4093 31.5622 13.5709 31.82 13.7705C32.6552 14.4303 33.5647 14.9871 34.3829 15.6804C34.9124 16.1307 35.5001 16.5573 36.0882 16.9453C36.5935 17.2823 36.9404 17.7604 37.4068 18.1211C38.1391 18.6918 38.8404 19.3073 39.5244 19.9384C39.7616 20.155 39.9952 20.3752 40.2289 20.595C40.6657 21.0041 41.1639 21.3962 41.6589 21.7672C42.2596 22.2175 42.7443 22.8226 43.2908 23.3517C44.3597 24.3923 45.5319 25.3171 46.5941 26.3689C46.9195 26.6956 47.3115 26.9602 47.5899 27.3415C47.7171 27.517 47.803 27.6853 47.7341 27.9194C47.449 28.9126 47.5725 29.9152 47.6862 30.9222C47.8169 32.0811 48.3047 33.0604 49.0025 33.9668C49.5253 34.6511 50.216 35.0808 50.9657 35.4828C52.2704 36.1806 53.6145 36.0467 54.9761 35.8229C55.4743 35.7406 55.6703 36.1188 55.9039 36.3833C56.8139 37.4284 57.6903 38.4964 58.701 39.452C59.1512 39.8781 59.5191 40.3937 59.9555 40.8306C60.8897 41.762 61.6286 42.8756 62.6532 43.7202C62.8215 43.8576 62.9141 44.0295 63.0381 44.1875C63.0551 44.2086 63.0726 44.2323 63.086 44.2529C63.1997 44.401 63.2991 44.5384 63.4127 44.7031C63.4781 44.7962 63.5466 44.8961 63.6258 45.0093C63.8733 45.3633 63.8147 45.1982 63.9834 45.353C64.6776 46.0029 65.2241 46.7867 65.8969 47.4639C66.1789 47.7454 66.4881 48.095 66.6842 48.5144C66.8869 48.9544 67.3166 49.2811 67.6295 49.6727C68.4714 50.7246 69.2449 51.8283 69.9632 52.9684C70.4368 53.7243 71.0795 54.3707 71.5159 55.158C72.4371 56.8387 73.5578 58.4088 74.359 60.1616C74.6339 60.7632 75.2135 61.2103 75.2654 61.9309C74.235 61.8727 73.3998 62.4466 72.5024 62.8006C71.8391 63.062 71.1999 63.4125 70.5912 63.784C69.6848 64.3336 68.8326 64.9696 67.9249 65.513C66.8149 66.1763 65.7559 66.9211 64.6535 67.5983C63.5949 68.2447 62.5945 69.0006 61.5324 69.6608C60.5952 70.2418 59.6771 70.8501 58.7421 71.4333C57.5668 72.1691 56.4321 72.956 55.4058 73.8982C54.3329 74.8811 53.2779 75.8882 52.3429 77.0009C51.9096 77.5165 51.5108 78.0702 51.0722 78.5858C50.6559 79.067 50.2366 79.5414 49.8037 80.002C49.5491 80.2768 49.3566 80.3386 49.1471 79.8919ZM41.9946 48.3698C41.2189 48.9508 40.5041 49.6043 39.6586 50.1024C38.8677 50.5702 38.0598 50.9963 37.2488 51.4193C35.5793 52.2889 33.8296 52.989 32.0639 53.6281C30.6817 54.1303 29.2794 54.6356 27.7885 54.7762C27.2286 54.8281 26.6991 55.1029 26.1145 55.0891C25.6611 55.0891 25.2073 55.0926 24.7534 55.0962C24.0798 55.0993 23.4026 55.1029 22.7298 55.0788C21.5679 55.0412 20.4095 54.9413 19.2512 54.8657C18.2208 54.8004 17.1896 54.7319 16.1583 54.6594C15.3128 54.5976 14.4709 54.6732 13.6299 54.6871C12.6326 54.7077 12.0897 55.2336 11.6564 56.0003C11.5638 56.1651 11.4675 56.3128 11.323 56.447C10.2197 57.477 9.00401 58.2987 7.60126 58.9142C5.65244 59.7735 3.67364 59.8008 1.63487 59.5569C1.33588 59.5189 1.06105 59.3882 1.06463 59.1133C1.06777 58.8211 0.861429 58.5082 1.23964 58.1989C1.81748 57.7281 2.12677 57.0038 2.65269 56.4538C3.51878 55.5532 4.29221 54.56 5.15069 53.6487C5.9031 52.848 6.71816 52.1068 7.5086 51.34C9.07249 49.8343 10.708 48.4043 12.4746 47.1407C12.9903 46.7728 13.5779 46.4944 14.12 46.1538C15.2546 45.4457 16.3888 44.7206 17.5781 44.119C18.5167 43.6446 19.3644 43.0363 20.303 42.5699C21.5988 41.9236 22.8158 41.1224 24.0829 40.4215C25.0698 39.8781 25.9771 39.1942 27.0428 38.7815C27.3315 38.6683 27.562 38.4069 27.8333 38.2466C28.0808 38.1021 28.3305 37.9749 28.5884 37.8617C29.2727 37.5488 29.9875 37.3116 30.6956 37.0605C30.8917 36.992 31.1356 36.9612 31.2663 36.8269C31.7783 36.3045 32.1154 36.638 32.614 36.9164C33.4273 37.3667 34.1425 37.9508 34.9021 38.4691C36.0331 39.2425 37.2349 39.9059 38.3902 40.631C39.0947 41.0709 39.6273 41.6591 40.2119 42.1747C40.7414 42.6384 41.2019 43.2561 41.6039 43.8988C42.0577 44.6279 42.2045 45.4529 42.5689 46.2021C43.0706 47.2437 42.9296 47.6734 41.9946 48.3698ZM48.6897 28.7304C48.9099 28.6686 49.1368 28.7993 49.2742 28.9815C50.1027 30.07 51.1031 31.0015 52.0095 32.0157C52.7999 32.8988 53.7246 33.6745 54.3674 34.6954C54.4775 34.8709 54.5428 35.0016 54.2541 35.0361C54.0102 35.0634 53.7694 35.0978 53.5357 35.1287C51.6899 35.0222 50.3122 34.1973 49.3843 32.5967C48.7792 31.5444 48.7 30.369 48.5147 29.2174C48.4838 29.0352 48.4838 28.789 48.6897 28.7304ZM50.0683 27.7372C50.2885 27.6924 50.5185 27.6853 50.7419 27.658C51.1237 27.641 51.518 27.6374 51.8823 27.5653C53.2538 27.2833 54.6082 27.4655 55.976 27.5617C56.7794 27.6168 57.5529 27.8437 58.3536 27.8366C58.5908 27.8366 58.7972 27.9122 58.8384 28.1391C59.0962 29.6198 60.234 30.5373 61.1954 31.4656C62.0583 32.2941 63.1719 32.9127 64.3719 33.3321C65.2828 33.6552 66.2133 33.7367 67.1448 33.8983C67.2683 33.922 67.4164 33.905 67.5297 33.8535C67.8976 33.6897 68.0592 33.8911 68.1724 34.1834C68.671 35.4792 69.1455 36.7754 69.3997 38.1504C69.6231 39.3799 70.046 40.5831 70.1732 41.8207C70.2886 42.9584 70.5912 44.0573 70.691 45.195C70.7564 45.9376 70.8356 46.6766 70.8871 47.4223C70.9144 47.7615 70.7667 47.8108 70.5465 47.7007C70.0219 47.4361 69.4239 47.4948 68.8805 47.2473C68.2481 46.955 67.5709 46.6833 66.8283 46.797C66.6564 46.8243 66.5571 46.7142 66.4573 46.5906C64.5881 44.2462 62.4844 42.1125 60.5021 39.8678C59.8938 39.1803 59.1718 38.5926 58.5774 37.8993C57.0784 36.1394 55.4814 34.469 53.986 32.7099C52.8997 31.4347 51.6899 30.2728 50.6456 28.964C50.4362 28.7031 50.1609 28.4932 49.9138 28.2631C49.601 27.9775 49.7142 27.8093 50.0683 27.7372ZM60.1068 28.0465C60.9286 28.2971 61.8314 28.2045 62.6013 28.6342C62.8251 28.7581 63.0242 28.6239 63.2512 28.7201C64.9113 29.4376 66.1959 30.5579 67.1036 32.1254C67.241 32.3698 67.4643 32.5622 67.557 32.8335C67.5709 32.8715 67.5847 32.906 67.595 32.9436C67.5709 33.1087 67.4576 33.0846 67.3439 33.0604C65.8042 32.7475 64.2685 32.4109 62.945 31.5068C61.976 30.8466 61.1372 30.032 60.43 29.0938C60.2411 28.8405 59.9972 28.6239 59.9041 28.3007C59.849 28.1047 59.8835 27.9811 60.1068 28.0465ZM82.2111 59.4951C82.4381 59.3815 82.6135 59.2163 82.7751 59.0377C83.5897 58.1577 84.6988 57.8037 85.7887 57.7419C86.8061 57.6869 87.8821 57.4738 88.8892 57.8449C89.4209 58.0409 90.0019 58.1474 90.445 58.5565C90.7476 58.8385 90.8474 59.0444 90.3904 59.2682C89.3968 59.753 88.3427 60.0519 87.2631 60.2372C86.8473 60.3098 86.4418 60.5264 85.9123 60.423C84.8192 60.6741 83.6412 60.5707 82.4586 60.4642C82.208 60.4405 81.871 60.4163 81.8365 60.1961C81.7989 59.9557 81.9363 59.629 82.2111 59.4951ZM83.6895 61.6539C83.7477 61.6812 83.8475 61.6709 83.9057 61.64C84.723 61.1723 85.6339 61.5057 86.4932 61.3513C86.854 61.2891 87.2183 61.1964 87.576 61.1244C89.4106 60.76 91.1088 60.0108 92.7931 59.1926C93.6627 58.7732 94.4523 58.1613 95.4182 57.9344C95.4527 57.9241 95.497 57.9138 95.518 57.8861C95.7172 57.673 96.0023 57.4152 96.2086 57.6936C96.3841 57.9241 96.0471 58.1953 95.8546 58.3847C95.0744 59.1617 94.3077 59.928 93.3382 60.5157C92.7828 60.8527 92.2672 61.4167 91.6862 61.6776C90.8541 62.0549 90.1187 62.622 89.2455 62.904C87.6999 63.4022 86.1428 63.8386 84.544 64.1653C83.1497 64.4473 81.73 64.6192 80.3411 64.9629C80.0009 65.0489 79.6402 65.0556 79.287 65.0967C78.3211 65.3376 78.0942 64.6259 77.7057 63.9934C77.1144 63.0342 76.7398 61.9551 76.0147 61.076C75.9493 60.9973 75.939 60.8666 75.9184 60.7529C75.8701 60.4919 75.4301 60.2717 75.6915 60.0175C75.9113 59.7973 76.255 60.0725 76.52 60.1513C77.6027 60.4883 78.7441 60.6535 79.7982 61.0004C81.0872 61.4269 82.4586 61.0832 83.6895 61.6539ZM72.8842 49.5971C73.4894 49.6799 73.9978 50.1163 74.6647 50.034C74.9843 49.9923 75.2206 50.3844 75.5814 50.422C77.0526 50.5872 78.4724 51.0204 79.932 51.2232C81.1526 51.3915 82.383 51.5567 83.6139 51.5911C84.6505 51.622 85.6889 51.5186 86.7305 51.3673C88.7894 51.0719 90.7131 50.4359 92.4802 49.3943C94.0257 48.4835 95.5798 47.5771 97.0855 46.5871C98.127 45.9031 99.2809 45.3772 100.408 44.8168C101.477 44.2873 102.608 44.0125 103.738 43.9642C104.556 43.9333 105.388 43.8165 106.223 43.8303C107.096 43.8473 108.003 43.7614 108.897 43.7408C109.33 43.7305 109.763 43.7269 110.192 43.7408C110.296 43.7408 110.485 43.6858 110.464 43.923C110.316 44.1329 110.268 44.4216 110.024 44.5626C109.35 44.9542 108.952 45.6247 108.453 46.1815C108.113 46.5562 107.718 46.8655 107.385 47.2504C106.711 48.0332 105.89 48.7001 105.275 49.525C104.652 50.3674 103.903 51.0858 103.247 51.8933C102.584 52.707 101.756 53.3327 100.673 53.6559C99.8959 53.8895 99.1019 54.2297 98.5209 54.9275C97.7108 55.897 96.6039 56.4676 95.4213 56.87C94.8954 57.0486 94.404 57.2814 93.9434 57.5732C93.3875 57.9272 92.7689 58.1439 92.1915 58.4429C91.9373 58.5736 91.7994 58.5565 91.6208 58.3399C90.6272 57.1448 89.2661 56.8253 87.7962 56.7599C86.6651 56.7116 85.5515 56.7322 84.4374 57.0177C83.4796 57.2581 82.7165 57.7795 82.0464 58.4361C81.6096 58.8622 81.1145 59.2646 80.8397 59.8456C80.6642 60.2135 80.3585 60.1101 80.056 60.0587C78.6752 59.8282 77.3794 59.2096 76.025 59.0001C74.7404 58.7969 74.3487 57.9689 73.8362 57.0692C72.8981 55.4225 71.8736 53.8309 70.8043 52.2683C70.1593 51.323 69.3585 50.4977 68.8085 49.4839C68.6057 49.1092 68.2619 48.817 67.9903 48.4799C67.894 48.3667 67.7705 48.2324 67.8802 48.078C67.9732 47.9473 68.1348 48.0055 68.2481 48.0605C68.8187 48.3425 69.4789 48.3322 70.0528 48.6142C70.3987 48.7861 70.7631 48.9132 71.1722 48.9544C71.784 49.0161 72.2652 49.5112 72.8842 49.5971ZM136.324 95.896C136.19 97.1058 135.559 98.0959 134.844 99.0376C133.734 100.501 132.28 101.536 130.713 102.405C130.758 101.505 130.452 100.288 131.527 98.9861C132.74 97.5149 133.943 96.2706 135.607 95.4385C136.015 95.2322 136.376 95.4457 136.324 95.896ZM152.728 35.0705C152.567 34.2317 152.278 33.4386 151.986 32.6893C151.336 31.0324 150.38 29.5097 149.182 28.1736C147.903 26.7502 146.342 25.843 144.384 25.7262C143.239 25.6572 142.095 25.6366 140.95 25.6675C139.645 25.6984 138.545 25.2105 137.638 24.3167C136.538 23.2317 135.901 21.7672 134.648 20.7736C134.026 20.2821 133.459 19.7804 132.695 19.5409C131.877 19.2795 131.095 18.9702 130.211 18.9013C129.214 18.8225 128.211 18.788 127.231 18.891C126.953 18.9187 126.678 18.9599 126.407 19.0114C125.081 19.2692 123.791 19.732 122.622 20.509C121.238 21.4338 120.049 22.5474 118.966 23.7917C118.746 24.0464 118.619 24.3615 118.323 24.5678C117.56 25.104 116.85 25.7396 115.918 25.9634C115.265 26.1178 114.595 26.283 113.928 26.2968C112.317 26.3277 110.708 26.0319 109.096 26.2315C108.745 26.2763 108.422 26.039 108.089 26.1661C107.189 26.5027 106.22 26.424 105.288 26.6576C103.817 27.0255 102.547 27.7439 101.281 28.5035C100.583 28.9229 100.013 29.4994 99.4215 30.0526C98.4694 30.95 97.5389 31.8608 96.8688 33.0022C96.2261 34.1042 95.7342 35.263 95.4043 36.5073C95.0709 37.7516 95.057 39.012 94.9093 40.2666C94.7616 41.4903 94.8028 42.7521 93.9917 43.8648C93.3329 44.7685 92.4596 45.3016 91.5004 45.6659C90.4656 46.0611 89.5892 46.5629 88.951 47.4845C88.5145 48.1156 88.0643 48.7825 88.1019 49.5318C88.1328 50.1745 87.8199 50.3258 87.3871 50.3535C86.4762 50.4117 85.5958 50.8002 84.6612 50.5872C84.4835 50.546 84.2794 50.5321 84.0986 50.5666C82.9778 50.7729 81.9054 50.4323 80.8155 50.2985C80.0524 50.209 79.3045 50.0304 78.5516 49.9547C77.7813 49.8755 77.032 49.6969 76.2931 49.5286C75.3719 49.3151 74.4656 48.9991 73.5511 48.7516C72.2862 48.4079 72.0074 48.308 71.9286 47.113C71.8252 45.6006 71.3749 44.1463 71.2823 42.6384C71.2205 41.6349 70.918 40.6757 70.7734 39.6959C70.5912 38.4324 70.1351 37.2427 69.9292 35.9845C69.7296 34.7782 69.1625 33.6588 68.6196 32.5792C68.0108 31.3622 67.2374 30.2142 66.1614 29.3033C65.6404 28.8647 65.0281 28.6203 64.4579 28.2801C63.4884 27.7059 62.4124 27.4758 61.3364 27.2833C60.289 27.094 59.2099 27.06 58.1509 26.9015C56.642 26.6782 55.1377 26.3931 53.6042 26.4445C52.1607 26.4924 50.711 26.5752 49.3669 27.2077C49.037 27.3621 48.7416 27.2216 48.5831 26.9602C48.0572 26.1075 47.2359 25.5543 46.5345 24.8802C44.7034 23.118 42.768 21.4682 40.8958 19.7495C40.676 19.5512 40.4558 19.3516 40.2324 19.156C39.2182 18.2621 38.1699 17.4095 37.1696 16.5022C36.3666 15.7699 35.4656 15.1406 34.5825 14.5028C33.0356 13.382 31.4793 12.2716 29.9083 11.1821C29.2177 10.7041 28.5024 10.2552 27.8096 9.78743C26.8329 9.1241 25.812 8.53641 24.8393 7.8695C23.9424 7.25764 22.9841 6.75231 22.0388 6.2161C20.2444 5.2032 18.3793 4.36441 16.3821 3.84521C15.7152 3.67333 15.0344 3.53234 14.3227 3.62186C13.9597 3.66662 13.7328 3.81432 13.7212 4.16479C13.7055 4.9248 13.757 5.70719 14.0721 6.38439C14.6562 7.64615 15.196 8.93164 15.9385 10.1209C16.5571 11.1096 17.4134 11.8625 18.3332 12.464C18.911 12.8387 19.6464 13.0728 20.303 13.382C20.6467 13.54 21.0626 13.6707 21.2483 14.0284C21.5128 14.5404 21.8463 15.0207 21.9842 15.6016C22.1663 16.3854 22.2039 17.1964 22.3722 17.9698C22.6784 19.369 22.5065 20.791 22.7504 22.1969C22.9635 23.417 23.258 24.6054 23.6156 25.7709C23.9903 26.9911 24.5954 28.1221 25.2551 29.238C26.0733 30.6233 27.0598 31.8573 28.083 33.0707C28.6192 33.7031 29.2383 34.2523 29.881 34.7782C30.1661 35.0119 30.4584 35.2388 30.7507 35.4658C30.8747 35.562 31.1253 35.5893 31.0738 35.8023C31.0255 35.9948 30.8124 36.0534 30.6374 36.1291C30.1285 36.3457 29.582 36.4558 29.0664 36.6586C28.9357 36.7101 28.805 36.7682 28.6779 36.8336C27.383 37.5144 26.1042 38.2225 24.829 38.9364C23.963 39.4247 23.1492 40.0052 22.242 40.4457C21.1037 41.0025 20.0179 41.6797 18.8971 42.2812C18.1246 42.6935 17.2929 43.0511 16.5987 43.5448C15.5021 44.3285 14.3035 44.9301 13.1827 45.6659C11.5499 46.7316 9.93768 47.8202 8.48838 49.1021C7.43654 50.0268 6.39813 50.9999 5.45998 52.0548C5.09877 52.4595 4.6485 52.7893 4.33697 53.219C3.7184 54.0784 2.85187 54.6974 2.22971 55.5532C1.49432 56.5674 0.535135 57.4188 0.0709825 58.6183C-0.183249 59.2785 0.280903 60.2686 0.899474 60.4091C1.99607 60.6602 3.10655 60.619 4.21657 60.6566C5.08535 60.6875 5.89996 60.4539 6.69757 60.227C7.2302 60.0757 7.86936 60.0931 8.28562 59.7288C8.6531 59.4056 9.06577 59.2132 9.47353 58.9929C10.5325 58.4223 11.4814 57.7007 12.258 56.8011C12.7566 56.2237 13.0386 55.5671 14.034 55.6427C14.56 55.6839 15.1754 55.5429 15.7116 55.6221C16.5674 55.7457 17.4304 55.7251 18.283 55.7698C20.2171 55.8697 22.156 56.0035 24.0932 56.0652C24.2928 56.0724 24.492 56.0755 24.6916 56.0724C25.4892 56.0688 26.2797 56.0106 27.0464 55.8764C28.1014 55.6906 29.1693 55.5156 30.2145 55.2059C31.3455 54.8724 32.4555 54.4875 33.5374 54.0547C34.4312 53.697 35.3112 53.2915 36.1911 52.8994C37.4251 52.3543 38.6305 51.7594 39.8198 51.1234C40.9611 50.5151 41.872 49.5837 42.9918 48.8031C43.0259 49.5389 43.0639 50.192 43.0742 50.8517C43.1015 52.6519 43.0778 54.4499 43.0227 56.251C43.0021 57.0141 42.9296 57.7898 42.9815 58.5324C43.0464 59.5122 43.136 60.5054 43.1498 61.4748C43.1601 62.5876 43.2873 63.6774 43.4385 64.7633C43.5724 65.7261 43.7478 66.6839 43.9815 67.6359C44.2156 68.5915 44.4492 69.5574 44.6555 70.5238C44.8995 71.6911 45.3122 72.8289 45.6935 73.9667C46.1371 75.2799 46.586 76.5918 47.1016 77.8777C47.5761 79.0634 48.0881 80.2423 48.6794 81.3756C49.2053 82.3863 49.6627 83.4417 50.3194 84.3835C50.8041 85.0781 51.3161 85.7679 51.7275 86.493C52.5766 87.9884 53.773 89.1915 54.8382 90.5002C55.3919 91.1806 56.083 91.7683 56.8587 92.236C57.522 92.6312 57.9893 93.274 58.6047 93.7556C59.4847 94.4395 60.4161 95.0021 61.3605 95.5589C61.6698 95.7411 61.9451 96.0643 62.2647 96.109C62.928 96.2052 63.4436 96.6175 64.0797 96.7894C65.1588 97.0852 66.182 97.5664 67.2925 97.8175C68.3891 98.0681 69.4373 98.5153 70.5787 98.5837C70.8011 98.5976 71.0209 98.6357 71.2411 98.6768C72.4751 98.9141 73.7194 99.0376 74.9776 99.0309C75.2547 99.0273 75.5335 99.0031 75.815 99.0376C76.678 99.1477 77.5307 98.9414 78.39 98.9172C79.0945 98.8935 79.812 98.6974 80.5201 98.5837C81.6785 98.3949 82.8096 98.0923 83.9679 97.9065C85.1697 97.7141 86.3281 97.305 87.5451 97.1197C88.6761 96.9509 89.7956 96.6591 90.9266 96.4456C92.0093 96.2397 93.0988 96.0231 94.1497 95.6963C95.112 95.3938 96.1263 95.0778 96.9306 94.5048C97.7005 93.9583 98.5934 93.6419 99.3046 93.0439C99.9236 92.5247 100.769 92.3631 101.295 91.7168C101.364 91.6344 101.481 91.5794 101.587 91.5521C102.567 91.2907 103.27 90.5446 104.123 90.0603C104.669 89.7452 105.223 89.3598 105.759 89.0057C107.227 88.0331 108.821 87.2561 110.316 86.3247C110.856 85.9912 111.416 85.6922 111.945 85.3346C113.013 84.6104 114.141 83.9677 115.224 83.2596C115.708 82.9467 116.262 82.7198 116.698 82.3863C117.66 81.6438 118.684 80.984 119.667 80.2737C120.922 79.366 122.159 78.448 123.3 77.3997C123.393 77.316 123.813 76.9194 124.209 76.5242C124.195 76.7041 124.182 76.8854 124.173 77.0662C124.073 78.8987 123.984 80.7396 124.042 82.5721C124.101 84.332 124.396 86.0736 124.709 87.8129C124.909 88.9064 125.149 89.9891 125.352 91.0741C125.579 92.2946 125.768 93.5184 126.091 94.7143C126.272 95.3871 126.18 95.5209 125.452 95.5419C123.922 95.5934 122.395 95.4488 120.864 95.5898C119.819 95.686 118.767 95.7308 117.756 95.9922C116.695 96.267 115.64 96.566 114.626 97.0302C113.797 97.4084 113.017 97.8931 112.159 98.206C111.416 98.4772 110.732 98.9552 109.859 98.7628C109.464 98.6768 109.037 98.7386 108.622 98.7386C107.578 98.7319 106.529 98.7901 105.491 98.6974C104.81 98.6388 104.147 98.3707 103.484 98.1818C103.343 98.1438 103.2 98.0784 103.123 97.924C102.725 97.0888 101.917 96.6041 101.35 95.9063C101.037 95.5209 100.594 95.2425 100.192 94.9332C99.9031 94.7076 99.5521 94.6593 99.2259 94.82C98.9094 94.9815 98.9886 95.3011 99.0231 95.5795C99.0607 95.8924 99.071 96.212 99.1569 96.511C99.1847 96.6072 99.2326 96.707 99.3015 96.7826C99.3668 96.8583 99.4492 96.9133 99.549 96.9303C99.5763 96.9339 99.6005 96.9375 99.6278 96.9375C99.9098 96.9339 99.8377 96.6761 99.8408 96.5007C99.8408 96.3391 99.848 96.1811 100.02 96.126C100.216 96.0607 100.254 96.267 100.356 96.3668C100.783 96.7826 101.061 97.3636 101.608 97.642C102.179 97.9307 102.553 98.3913 102.93 98.8693C103.141 99.1374 103.435 99.2784 103.762 99.3048C104.257 99.3469 104.728 99.5179 105.206 99.6172C105.976 99.7788 106.736 99.6244 107.499 99.7206C108.171 99.8066 108.879 99.6347 109.57 99.6069C110.371 99.5796 111.148 99.7 111.949 99.3182C113.175 98.7386 114.399 98.1371 115.671 97.6317C117.326 96.9751 119.042 96.7106 120.781 96.5212C122.138 96.3735 123.502 96.4013 124.857 96.4698C125.593 96.5078 126.317 96.408 127.049 96.4456C127.616 96.4734 128.273 96.4183 128.822 96.1019C128.932 96.0401 129.098 96.0025 129.073 95.8337C129.049 95.6793 128.888 95.6484 128.768 95.6279C128.3 95.5522 127.833 95.4833 127.365 95.4318C127.039 95.3938 126.877 95.2702 126.966 94.9126C127.052 94.5563 126.98 94.209 126.915 93.8518C126.674 92.5525 126.304 91.284 126.139 89.9685C126.08 89.4873 125.991 89.0026 125.871 88.5313C125.627 87.5623 125.568 86.5583 125.359 85.5857C125.156 84.6449 125.245 83.6825 125.07 82.7404C125.018 82.4691 124.96 82.1871 125.001 81.8984C125.149 80.929 124.94 79.9537 125.07 78.9775C125.156 78.3347 125.067 77.6745 125.125 77.0286C125.225 75.9226 125.369 74.8157 125.513 73.7124C125.593 73.1109 125.41 72.4954 125.472 71.9319C125.617 70.6026 126.225 69.3686 126.904 68.2447C127.657 67.0071 128.513 65.8084 129.73 64.9079C130.755 64.1514 131.774 63.3883 132.822 62.6596C133.077 62.4846 133.27 62.4224 133.338 62.8727C133.472 63.7634 133.61 64.6568 133.861 65.5161C134.101 66.3276 134.174 67.1687 134.356 67.9868C134.593 69.0593 134.854 70.125 135.057 71.2041C135.229 72.1069 135.39 73.0111 135.623 73.8982C135.816 74.6233 135.555 75.4276 136.056 76.1003C136.163 76.2449 136.111 76.5027 136.142 76.7086C136.242 77.3343 136.273 77.9704 136.352 78.5992C136.603 80.5691 136.62 82.5479 136.716 84.5245C136.74 84.9989 136.747 85.472 136.751 85.95C136.761 86.83 136.747 87.71 136.744 88.5863C136.74 90.1149 136.734 91.6412 136.709 93.171C136.706 93.3944 136.703 93.6177 136.699 93.8415C136.692 94.2059 136.407 94.4189 136.056 94.4534C135.232 94.5322 134.487 94.8508 133.833 95.3114C132.562 96.212 131.541 97.343 130.651 98.646C129.469 100.38 130.029 101.821 129.854 102.866C129.689 102.952 129.524 103.038 129.355 103.12C128.633 103.481 127.895 103.808 127.08 104.004C125.795 104.312 124.513 104.552 123.214 104.769C122.653 104.862 122.09 104.927 121.531 104.969C120.125 105.078 118.718 105.044 117.317 104.955C116.375 104.893 115.437 104.996 114.482 104.859C113.433 104.704 112.34 104.724 111.289 104.539C109.364 104.198 107.454 103.791 105.539 103.385C104.934 103.258 104.157 102.972 103.614 103.684C103.583 103.722 103.466 103.719 103.394 103.705C102.484 103.502 101.56 103.602 100.638 103.56C99.1019 103.495 97.5666 103.498 96.0265 103.471C95.9061 103.467 95.7928 103.464 95.7619 103.326C95.7311 103.185 95.8443 103.113 95.9508 103.086C96.2055 103.017 96.4665 102.983 96.7211 102.911C96.838 102.876 96.9892 102.818 96.9857 102.653C96.9821 102.495 96.8482 102.422 96.7211 102.402C96.7104 102.402 96.7037 102.399 96.6934 102.399C96.3326 102.344 95.9786 102.336 95.6348 102.388C95.1846 102.446 94.7513 102.601 94.3458 102.866C94.1291 103.003 94.0154 103.248 94.0741 103.509C94.1394 103.811 94.4008 104.057 94.6515 104.062C95.4938 104.069 96.312 104.295 97.1508 104.281C97.9583 104.271 98.7787 104.164 99.5624 104.216C100.831 104.305 102.072 104.034 103.329 104.112C103.449 104.123 103.593 104.065 103.7 103.993C104.137 103.694 104.625 103.78 104.996 104.004C106.01 104.604 107.186 104.556 108.25 104.934C108.773 105.12 109.354 105.116 109.887 105.237C111.104 105.512 112.33 105.718 113.56 105.749C115.262 105.79 116.956 105.948 118.66 105.952C119.238 105.952 119.815 105.907 120.393 105.879C120.909 105.859 121.424 105.845 121.938 105.89C122.619 105.948 123.269 105.642 123.942 105.591C125.623 105.457 127.211 104.972 128.771 104.381C129.156 104.236 129.538 104.069 129.912 103.894C130.139 103.791 130.363 103.684 130.583 103.574C131.458 103.144 132.214 102.471 133.053 101.955C133.885 101.439 134.583 100.766 135.181 100.03C136.101 98.8966 136.926 97.7109 137.273 96.2017C137.476 95.3253 137.575 94.4431 137.641 93.5698C137.644 93.4942 137.651 93.4221 137.655 93.3465C137.734 92.1568 137.775 90.9608 137.751 89.7586C137.72 88.2117 137.689 86.6581 137.696 85.1054C137.696 84.7411 137.696 84.3732 137.689 84.0088C137.672 82.7645 137.614 81.5202 137.524 80.2804C137.442 79.1117 137.342 77.9395 137.156 76.7775C137.063 76.1796 136.795 75.5238 137.146 74.912C137.514 74.2795 137.631 73.5956 137.713 72.8804C137.772 72.3683 137.926 71.8594 138.198 71.3854C138.94 70.0905 140.013 69.0521 140.881 67.8597C141.61 66.8594 142.208 65.8084 142.658 64.6877C142.755 64.4509 142.837 64.2065 142.913 63.9626C143.202 63.024 143.346 62.041 143.305 61.0554C143.284 60.6016 143.229 60.1549 143.095 59.7319C142.944 59.2508 142.693 58.8005 142.287 58.4053C141.401 57.5356 140.751 56.5191 140.716 55.2162C140.696 54.4602 140.833 53.7521 141.153 53.0404C141.51 52.2339 141.957 51.5083 142.507 50.8414C142.524 50.8177 142.545 50.7935 142.566 50.7693C143.188 50.034 144.002 49.4977 144.687 48.834C145.734 47.8202 146.841 46.869 147.807 45.7689C148.742 44.7067 149.58 43.5757 150.463 42.4804C151.047 41.7517 151.439 40.9197 151.855 40.1019C152.659 38.517 153.085 36.9061 152.728 35.0705Z" fill="#6E4D3C"/>
<path d="M151.851 81.4925C151.202 81.5547 150.562 81.7266 149.67 81.6746C148.298 81.5202 146.738 81.2897 145.326 80.3355C144.7 79.9161 144.061 79.49 143.425 79.0737C143.177 78.909 143.047 78.7165 143.322 78.3831C144.092 77.448 145.187 77.2345 146.328 77.606C147.332 77.9359 148.343 78.2658 149.23 78.7917C150.256 79.4004 151.329 80.0293 151.992 81.1008C152.113 81.2933 152.164 81.4652 151.851 81.4925ZM152.845 80.4075C151.535 78.8674 149.927 77.7815 148.03 77.1074C146.696 76.633 145.357 76.2002 143.934 76.7534C143.335 76.987 142.806 77.2896 142.645 77.9771C142.624 78.0666 142.61 78.149 142.524 78.2179C142.115 78.5446 142.098 78.9399 142.48 79.3387C143.697 80.5955 145.072 81.5614 146.779 82.1115C148.023 82.5103 149.271 82.4928 150.353 82.6097C151.226 82.5237 151.927 82.5551 152.58 82.1491C153.405 81.6371 153.491 81.1626 152.845 80.4075Z" fill="#6E4D3C"/>
<path d="M32.3974 75.4724C31.8509 76.2172 31.0533 76.6195 30.249 76.9561C29.6716 77.1969 29.015 77.2556 28.396 77.3961C28.0809 77.4136 27.7649 77.4239 27.452 77.4239C26.1249 77.4239 24.8152 77.2659 23.5092 77.0492C23.1081 76.9839 23.0589 76.8671 23.2925 76.5506C23.8596 75.7955 24.6814 75.407 25.4754 74.9603C25.8362 74.754 26.2144 74.6202 26.5993 74.5271C27.0393 74.4205 27.4896 74.3691 27.9426 74.331C29.1009 74.2384 30.2763 74.1869 31.3698 74.6716C31.6482 74.7987 31.94 74.8229 32.222 74.9259C32.5899 75.0633 32.6163 75.177 32.3974 75.4724ZM33.204 74.5065C31.9091 73.661 30.4759 73.3445 28.7227 73.3378C27.9699 73.3069 27.1875 73.4613 26.3899 73.7089C25.8125 73.8879 25.2315 74.1148 24.6469 74.3588C23.9218 74.6578 23.4371 75.2217 22.8261 75.634C22.2246 76.0417 21.9256 76.7914 22.0805 77.4583C22.2179 78.063 22.981 78.0908 23.523 78.1011C24.9186 78.1181 26.2865 78.5514 27.7165 78.2832C27.7237 78.2832 27.7268 78.2797 27.734 78.2797C28.5061 78.1387 29.3037 78.1526 30.0977 77.9498C31.4933 77.5957 32.4834 76.7431 33.4001 75.7405C33.8226 75.2835 33.7263 74.8502 33.204 74.5065Z" fill="#6E4D3C"/>
<path d="M51.6176 16.9247C51.3597 17.1588 51.1136 17.5643 50.7595 17.4197C50.4775 17.3029 50.5259 16.8218 50.3983 16.5295C50.1132 15.897 50.0067 15.2373 50.0206 14.5749C50.0479 13.5024 49.9449 12.43 50.3021 11.3643C50.4467 10.9413 50.5841 10.5219 50.7389 10.1106C50.8522 9.80801 50.9726 9.5126 51.11 9.22032C51.2062 9.01756 51.3199 8.7217 51.5571 8.78034C51.7724 8.83539 52.0128 8.9455 52.1265 9.20331C52.1435 9.23062 52.1538 9.2615 52.1641 9.29596C52.374 10.0282 52.7522 10.6974 53.0306 11.4019C53.2781 12.0276 53.3672 12.7012 53.4397 13.3203C53.3018 14.8049 52.6765 15.9727 51.6176 16.9247ZM54.2337 11.8557C54.1648 11.0787 53.6903 10.4637 53.4428 9.76012C53.3126 9.3922 53.1716 9.01756 52.9925 8.66352C52.8448 8.36095 52.6694 8.07225 52.4532 7.80414C52.0647 7.3194 51.7688 7.30553 51.251 7.63585C50.2784 8.258 49.9378 9.30268 49.6285 10.2654C49.5461 10.5183 49.4705 10.7797 49.4015 11.0411C49.1612 11.9556 49.0027 12.9009 49.0305 13.8668C49.0336 15.1616 49.2677 16.4024 49.9037 17.5473C50.4534 18.5441 51.2098 18.7571 51.8619 18.011C52.831 16.9077 53.8761 15.8626 54.2713 14.3309C54.4982 13.4577 54.3058 12.6806 54.2337 11.8557Z" fill="#6E4D3C"/>
<path d="M114.983 17.9766C114.866 18.0661 114.752 17.9081 114.639 17.8463C113.838 17.3924 113.391 16.6051 112.913 15.8903C112.174 14.7915 111.564 13.6054 111.241 12.3024C111.11 11.7801 110.993 11.2506 110.887 10.7247C110.852 10.5528 110.897 10.3845 111.048 10.2655C111.196 10.1518 111.32 10.2194 111.46 10.2986C112.9 11.0926 114.014 12.1753 114.536 13.7773C114.825 14.6675 115.028 15.5775 115.038 16.5156C115.155 16.8424 114.962 17.1861 115.131 17.516C115.2 17.6538 115.117 17.8772 114.983 17.9766ZM115.884 14.8671C115.536 13.3614 115.134 11.8969 113.866 10.7694C112.962 9.9696 112.004 9.39892 110.887 9.04174C110.416 8.89046 109.996 9.18945 109.976 9.68448C109.914 10.9964 110.117 12.2684 110.557 13.5024C111.048 14.8774 111.777 16.1173 112.664 17.2617C113.109 17.8427 113.608 18.4134 114.426 18.417C114.749 18.4201 114.973 18.5199 115.124 18.7777C115.278 19.0458 115.437 19.0078 115.612 18.8189C115.749 18.6676 115.842 18.5029 115.908 18.293C116.1 17.6914 116 17.076 116.104 16.2408C116.124 15.9212 116 15.3711 115.884 14.8671Z" fill="#6E4D3C"/>
<path d="M98.4424 101.085C98.4595 101.278 98.2947 101.326 98.1538 101.384C97.7997 101.532 97.4425 101.573 97.0849 101.556C96.7926 101.546 96.5075 101.494 96.2224 101.422C95.4973 101.243 94.7619 101.165 94.0229 101.079C93.8717 101.061 93.7069 101.061 93.6174 101.212C93.5279 101.37 93.6653 101.45 93.7651 101.532C93.8681 101.618 93.9952 101.707 93.9061 101.859C93.8958 101.876 93.8855 101.89 93.8681 101.903C93.7857 102.006 93.6447 102.048 93.5109 102.023C93.1054 101.951 92.9129 101.68 92.8682 101.401C92.8753 100.831 93.2804 100.409 93.7929 100.315C94.4352 100.199 95.0609 100.257 95.6831 100.357C96.243 100.446 96.8029 100.57 97.3669 100.628C97.4112 100.632 97.4595 100.639 97.5079 100.649C97.7071 100.683 97.9237 100.745 98.1229 100.804C98.267 100.845 98.4254 100.91 98.4424 101.085Z" fill="#6E4D3C"/>
<path d="M95.5101 24.9491C95.101 24.9594 94.5822 24.3829 94.5719 23.9121C94.5647 23.4927 95.0531 22.977 95.4622 22.9739C95.8193 22.9703 96.4965 23.6784 96.514 24.0736C96.5274 24.3829 95.8847 24.9424 95.5101 24.9491ZM95.5101 22.3826C94.7675 22.3307 94.0182 23.029 93.9771 23.8127C93.9287 24.7428 94.5992 25.5507 95.4241 25.5574C96.3869 25.5646 96.9951 24.8874 97.0641 23.737C97.1017 23.0907 96.3591 22.448 95.5101 22.3826Z" fill="#6E4D3C"/>
<path d="M5.80378 26.4718C5.39111 26.3725 5.07824 26.0941 5.04064 25.6572C4.98917 25.0521 5.28458 24.7464 5.82437 24.7567C6.27465 24.7669 6.59422 25.0798 6.57722 25.4956C6.55663 25.9598 6.11665 26.5443 5.80378 26.4718ZM5.89285 24.1117C4.94441 24.0705 4.42297 24.7258 4.34285 26.0524C4.29899 26.7574 4.73449 27.1253 5.66637 27.1629C6.38789 27.1938 7.15461 26.3102 7.21324 25.3788C7.25442 24.7428 6.62869 24.139 5.89285 24.1117Z" fill="#6E4D3C"/>
<path d="M105.405 20.3408C105.082 20.3305 104.504 19.784 104.511 19.4998C104.521 19.032 105.04 18.5714 105.559 18.5956C106.175 18.6229 105.886 19.2178 106.099 19.455C106.106 19.8869 105.721 20.3511 105.405 20.3408ZM105.446 17.9117C104.817 17.8634 103.865 18.7814 103.823 19.4792C103.789 20.0243 104.538 20.9491 105.047 20.9974C105.931 21.0762 106.704 20.3752 106.739 19.3588C106.762 18.5889 106.398 17.9632 105.446 17.9117Z" fill="#6E4D3C"/>
<path d="M100.153 98.3394C100.126 98.4701 99.9575 98.4907 99.5314 98.4669C99.2289 98.3944 98.9232 98.3259 98.6381 98.2158C98.3834 98.1196 98.143 97.9889 97.9264 97.8C97.5553 97.4737 97.0361 97.4563 96.6136 97.2159C96.4453 97.1197 96.3043 97.3292 96.1839 97.4943C96.1361 97.5628 96.0877 97.6143 96.043 97.659C95.8232 97.8551 95.6272 97.7691 95.5175 97.3981C95.4454 97.164 95.1773 96.9169 95.4624 96.6211C95.7238 96.3427 95.9986 96.3015 96.3697 96.3395C97.3629 96.4461 98.2048 96.8892 99.0333 97.3636C99.2942 97.518 99.5556 97.6729 99.8201 97.8242C99.8304 97.8273 99.8443 97.8345 99.8541 97.8412C100.019 97.9338 100.212 98.0887 100.153 98.3394Z" fill="#6E4D3C"/>
<path d="M18.9318 31.0185C18.8973 31.3797 18.7528 31.7404 18.3334 31.7919C17.9977 31.8335 17.7126 31.3143 17.7367 30.7539C17.8124 30.4344 17.709 29.9635 18.2555 29.9187C18.6668 29.8878 18.9868 30.3963 18.9318 31.0185ZM18.3862 29.3275C17.7161 29.3033 16.9664 29.9908 16.953 30.6438C16.9288 31.7198 17.4203 32.4038 18.2282 32.4212C18.8459 32.4351 19.5642 31.6478 19.6054 30.9088C19.6502 30.1385 19.0414 29.3516 18.3862 29.3275Z" fill="#6E4D3C"/>
<path d="M76.1177 45.4766C75.8567 45.6418 75.6777 45.3772 75.513 45.2085C75.3272 45.0129 74.8984 45.0577 74.9629 44.6069C75.0282 44.1705 75.3545 43.8545 75.7945 43.8648C76.1109 43.8751 76.4444 44.3527 76.4372 44.8442C76.4202 45.0577 76.3343 45.3392 76.1177 45.4766ZM75.671 43.287C74.8801 43.3801 74.3519 43.8026 74.3107 44.6347C74.2763 45.3907 75.0121 46.0782 75.8428 46.1095C76.465 46.1301 77.1798 45.4251 77.1664 44.803C77.1525 43.9848 76.4789 43.3044 75.671 43.287Z" fill="#6E4D3C"/>
<path d="M39.3766 80.7087C38.9813 80.7087 38.5825 80.2356 38.596 79.8127C38.6063 79.4519 38.8985 79.349 39.1702 79.3145C39.4486 79.2765 40.0502 79.9402 40.0332 80.2321C40.0054 80.6779 39.6447 80.6644 39.3766 80.7087ZM39.0601 78.7129C38.2903 78.6955 37.9429 79.1046 37.9156 80.0499C37.895 80.8909 38.4174 81.3895 39.3385 81.4034C39.9334 81.4137 40.6827 80.7329 40.6898 80.1775C40.6965 79.5311 39.7991 78.7232 39.0601 78.7129Z" fill="#6E4D3C"/>
<path d="M97.8752 99.4771C97.7893 99.6181 97.6657 99.6387 97.4903 99.6078C96.6586 99.4771 95.8507 99.278 95.0741 98.9445C94.7648 98.8102 94.49 98.8344 94.6001 99.3053C94.6274 99.4185 94.7098 99.5765 94.5759 99.6351C94.5692 99.6387 94.5589 99.6419 94.5486 99.6454C94.3768 99.6902 94.1462 99.7484 94.0088 99.5975C93.7407 99.3017 93.3661 99.0304 93.5107 98.5421C93.6445 98.0784 94.0397 98.0095 94.5589 97.9683C95.2738 98.1263 96.04 98.2848 96.7687 98.6008C97.0915 98.7417 97.4079 98.91 97.7069 99.1231C97.8237 99.2054 97.9956 99.2847 97.8752 99.4771Z" fill="#6E4D3C"/>
<path d="M139.308 106.962C138.971 106.904 138.651 106.749 138.638 106.316C138.627 105.904 139.036 105.381 139.408 105.395C139.786 105.409 139.951 105.677 139.999 105.941C140.009 106.43 139.611 107.011 139.308 106.962ZM139.456 104.779C138.669 104.759 137.909 105.498 137.885 106.313C137.868 106.893 138.425 107.516 138.981 107.512C139.992 107.502 140.659 106.839 140.638 106.044C140.659 105.26 140.233 104.803 139.456 104.779Z" fill="#6E4D3C"/>
<path d="M148.126 54.9898C147.679 54.9759 147.711 54.6012 147.666 54.3779C147.69 53.9379 147.8 53.4908 148.157 53.5288C148.501 53.5664 148.71 54.0064 148.724 54.4016C148.742 54.7866 148.505 55.0001 148.126 54.9898ZM148.185 52.9819C147.645 52.9546 146.868 53.7383 146.868 54.309C146.868 55.1616 147.226 55.6737 147.838 55.6907C148.69 55.7184 149.408 55.0654 149.45 54.223C149.484 53.5731 148.914 53.0163 148.185 52.9819Z" fill="#6E4D3C"/>
<path d="M98.6594 15.2508C98.3465 15.2199 98.0408 15.1273 98.0578 14.6645C98.0717 14.1726 98.3627 13.8185 98.7753 13.8118C99.1706 13.8051 99.5591 14.2003 99.5452 14.6229C99.5246 15.1582 99.1325 15.2338 98.6594 15.2508ZM98.9539 13.2067C98.2467 13.2138 97.2499 14.011 97.2638 14.5575C97.2844 15.292 97.9925 15.9074 98.8335 15.9213C99.4145 15.9316 100.153 15.2029 100.15 14.6229C100.147 13.7738 99.662 13.1964 98.9539 13.2067Z" fill="#6E4D3C"/>
<path d="M143.727 90.1046C143.353 90.0325 143.322 89.721 143.322 89.3566C143.27 88.9507 143.476 88.6553 143.926 88.6383C144.277 88.6244 144.435 88.8992 144.452 89.2362C144.466 89.58 144.002 90.1565 143.727 90.1046ZM143.971 88.0054C143.263 87.9297 142.421 88.645 142.462 89.5388C142.493 90.1802 142.906 90.6341 143.607 90.6547C144.26 90.6721 145.013 89.9502 145.04 89.2774C145.071 88.5935 144.607 88.0707 143.971 88.0054Z" fill="#6E4D3C"/>
<path d="M155.759 47.6183C155.511 47.7423 155.411 47.4876 155.291 47.3296C155.002 46.9483 155.054 46.5665 155.288 46.1816C155.374 46.0406 155.507 45.9273 155.652 46.0164C156.02 46.2366 156.164 46.5907 156.127 46.972C156.229 47.3502 155.982 47.5082 155.759 47.6183ZM156.023 45.4632C155.69 45.1915 155.319 45.3495 155.075 45.5214C154.525 45.9063 154.378 46.5495 154.416 47.1748C154.471 48.1501 155.374 48.5144 156.188 47.9715C156.663 47.6528 156.635 47.151 156.807 46.7487C156.749 46.1677 156.422 45.7895 156.023 45.4632Z" fill="#6E4D3C"/>
<path d="M147.143 99.9404C147.044 100.188 146.854 100.484 146.524 100.415C146.232 100.353 146.27 100.047 146.253 99.8101C146.246 99.717 146.239 99.6244 146.239 99.6244C146.239 99.3232 146.222 99.1683 146.242 99.0273C146.294 98.7247 146.69 98.5667 146.875 98.8004C147.133 99.1271 147.308 99.5246 147.143 99.9404ZM147.466 98.5528C147.147 98.1576 146.572 98.0238 146.201 98.2368C145.734 98.5014 145.345 99.3813 145.569 99.8822C145.713 100.202 145.634 100.642 146.064 100.841C146.895 101.223 147.796 100.628 147.803 99.576C147.741 99.2815 147.724 98.8724 147.466 98.5528Z" fill="#6E4D3C"/>
<path d="M80.5434 105.271C80.3066 105.264 80.0313 105.299 80.0313 104.917C80.0313 104.494 80.4266 103.863 80.7019 103.918C81.0487 103.983 81.183 104.243 81.1691 104.474C81.1763 105.01 81.0076 105.282 80.5434 105.271ZM81.0868 103.354C80.6777 103.182 80.2377 103.313 79.9629 103.663C79.603 104.123 79.1455 104.597 79.4723 105.268C79.7391 105.818 80.2547 106.103 80.688 105.979C81.3755 105.787 81.8052 105.233 81.8088 104.532C81.7846 104.007 81.5715 103.56 81.0868 103.354Z" fill="#6E4D3C"/>
<path d="M36.2421 68.5092C35.8468 68.4506 35.4722 68.396 35.4686 67.9144C35.4655 67.5053 35.7748 67.3441 36.1046 67.3473C36.5276 67.3508 36.7201 67.6637 36.7335 68.0625C36.7438 68.4063 36.4999 68.4922 36.2421 68.5092ZM35.7882 66.7837C35.218 66.7837 34.9051 67.1722 34.8948 67.8906C34.8809 68.6949 35.3724 69.1313 36.311 69.1488C36.8333 69.1591 37.4313 68.6435 37.4407 68.1793C37.4546 67.337 36.8024 66.7837 35.7882 66.7837Z" fill="#6E4D3C"/>
<path d="M42.291 10.7936C42.0273 10.8075 41.8519 10.453 41.8519 10.1656C41.8555 9.84606 41.9311 9.45039 42.3129 9.43338C42.6862 9.41637 42.8236 9.75296 42.8205 10.1142C42.8236 10.4807 42.5864 10.7762 42.291 10.7936ZM42.5143 8.77005C41.9951 8.7047 41.0373 9.74267 41.0753 10.2274C41.065 10.7967 41.6836 11.4158 42.2735 11.4328C42.7001 11.4431 43.5389 10.5976 43.5559 10.1415C43.5765 9.5502 42.9991 8.82824 42.5143 8.77005Z" fill="#6E4D3C"/>
<path d="M142.463 21.2892C142.153 21.2892 141.442 20.8152 141.459 20.5914C141.479 20.3063 141.692 20.2342 141.94 20.2306C142.287 20.2306 142.745 20.6397 142.755 20.9665C142.762 21.1656 142.686 21.2892 142.463 21.2892ZM143.122 20.2651C142.731 19.527 141.517 19.3963 140.953 20.0104C140.734 20.2512 140.703 20.9217 140.936 21.107C141.246 21.3514 141.565 21.5989 141.913 21.7739C142.624 22.128 143.349 21.7842 143.36 21.0967C143.394 20.8116 143.263 20.526 143.122 20.2651Z" fill="#6E4D3C"/>
<path d="M15.9072 20.1174C15.7492 20.1653 15.0237 19.5029 15.0787 19.3413C15.1714 19.0562 15.2233 18.6883 15.6011 18.6229C15.8795 18.575 16.3508 19.1766 16.3642 19.613C16.3436 19.8386 16.1789 20.0346 15.9072 20.1174ZM15.6906 18.1145C15.1647 18.0764 14.6491 18.52 14.6115 19.0459C14.5564 19.8596 15.072 20.6331 15.7215 20.7051C16.3127 20.7705 16.9246 20.2343 16.9729 19.6063C17.0311 18.819 16.4743 18.1726 15.6906 18.1145Z" fill="#6E4D3C"/>
<path d="M141.696 38.7095C141.586 39.3867 141.356 40.0228 141.17 40.6722C141.029 41.1708 140.82 41.6211 140.562 42.0441C140.174 42.6832 139.673 43.2562 139.14 43.8098C138.652 44.3183 138.191 44.8339 137.641 45.2842C137.019 45.7967 136.696 45.7895 136.366 45.0608C136.208 44.714 135.906 44.5076 135.623 44.3322C134.641 43.7167 133.579 43.4728 132.441 43.8886C131.785 44.1294 131.218 45.5044 131.458 46.2264C131.675 46.8794 132.286 47.9782 132.658 48.5628C132.713 48.6519 132.768 48.7208 132.83 48.7656C132.404 48.9956 131.967 49.1917 131.527 49.3806C130.187 49.9615 128.744 50.0407 127.303 50.0958C127.173 50.0994 127.039 50.0958 126.908 50.0958C125.607 50.0613 124.283 50.034 123.052 49.5905C121.586 49.0543 120.386 48.0745 119.633 46.7008C119.344 46.1749 119.19 45.5214 119.052 44.9028C118.912 44.2946 118.808 43.6791 118.708 43.065C118.674 42.8623 118.685 42.6488 118.702 42.4429C118.729 42.1059 118.894 41.9443 119.266 41.9787C120.011 42.0508 120.716 41.9819 121.4 41.5593C121.957 41.2156 122.107 40.7756 122.276 40.1911C122.647 38.8747 121.863 38.044 121.17 37.1877C120.781 36.7137 120.359 36.2393 119.839 35.8884C119.681 35.7818 119.613 35.6686 119.692 35.4623C120.218 34.0358 120.692 32.5896 121.665 31.3762C122.135 30.7849 122.688 30.2765 123.234 29.7573C123.413 29.5854 123.578 29.5993 123.702 29.8052C124.101 30.4654 124.544 31.1184 125.122 31.6134C125.51 31.9469 125.885 32.3251 126.397 32.552C127.51 33.0399 128.661 33.2292 129.851 33.3872C131.163 33.5591 132.445 33.5591 133.755 33.3492C134.817 33.1773 135.899 33.0265 136.978 32.9951C137.191 32.9884 137.404 32.9848 137.617 32.9884C138.868 33.009 139.955 33.4387 140.813 34.5684C141.803 35.8714 141.944 37.2016 141.696 38.7095ZM135.669 46.8382C134.978 47.3883 134.253 47.8753 133.51 48.3632C133.497 48.3153 133.476 48.2705 133.459 48.2222C133.191 47.5051 132.407 46.3777 132.39 45.5765C132.38 44.9579 132.565 44.8205 133.156 44.6929C134.528 44.3908 135.208 45.2842 135.893 46.1816C136.087 46.443 135.888 46.6628 135.669 46.8382ZM118.791 40.2425C118.88 39.3697 118.716 38.4795 119.035 37.621C119.125 37.3838 119.066 37.0127 119.352 36.968C119.637 36.9232 119.943 37.1501 120.108 37.3771C120.548 37.9786 120.922 38.6236 121.335 39.2457C121.466 39.4418 121.435 39.641 121.424 39.8097C121.441 40.6516 120.823 40.9336 120.132 41.0813C119.987 41.1122 119.833 41.0952 119.685 41.1091C118.829 41.1981 118.708 41.0746 118.791 40.2425ZM142.796 36.4317C142.597 35.2868 141.985 34.3487 141.242 33.4902C140.278 32.3699 138.982 31.8574 137.579 31.9952C137.229 32.0292 136.878 32.0637 136.527 32.1017C135.594 32.2011 134.655 32.3148 133.724 32.4589C131.805 32.7548 129.854 32.6791 127.991 32.0431C126.946 31.6891 125.892 31.2697 125.228 30.2868C124.916 29.8226 124.692 29.3034 124.304 28.8782C123.912 28.4485 123.413 28.3286 122.946 28.7135C122.043 29.4511 121.173 30.2729 120.578 31.2527C119.956 32.2803 119.389 33.3595 119.011 34.534C118.461 36.2527 117.815 37.9339 117.805 39.782C117.805 40.2497 117.873 40.7138 117.846 41.1775C117.791 42.2227 117.77 43.2665 117.939 44.2946C118.238 46.1369 118.784 47.9129 120.3 49.1402C121.548 50.1509 122.925 50.9655 124.644 50.8692C124.75 50.8621 124.871 50.9001 124.971 50.948C125.538 51.2233 126.184 51.1199 126.726 51.0478C127.451 50.9552 128.194 51.2542 128.644 50.9861C129.693 50.8003 130.524 50.7488 131.29 50.4946C132.314 50.1576 133.287 49.6697 134.184 49.0471C135.257 48.305 136.245 47.4501 137.304 46.6905C138.683 45.6969 139.883 44.5452 140.895 43.1877C140.998 43.0579 141.095 42.9272 141.187 42.7934C141.896 41.7894 142.24 40.6897 142.508 39.5174C142.628 38.9812 142.755 38.4692 142.769 37.9168C142.783 37.4218 142.882 36.9232 142.796 36.4317Z" fill="#6E4D3C"/>
<path d="M138.686 64.9213C138.415 65.9557 137.992 66.8424 137.302 67.6297C137.229 67.712 137.171 67.8221 136.995 67.7738C137.033 67.3065 137.181 66.8562 137.411 66.4574C138.154 65.1657 138.498 63.8077 138.088 62.3441C137.947 61.8387 137.724 61.337 137.439 60.897C136.329 59.1957 136.116 57.3266 136.397 55.3845C136.593 54.0135 137.153 52.7589 137.875 51.5768C137.913 51.5151 137.954 51.4358 138.013 51.405C138.168 51.3226 138.277 51.0442 138.476 51.1852C138.648 51.3056 138.459 51.5012 138.412 51.6458C138.257 52.113 137.992 52.5253 137.762 52.955C137.49 53.4603 137.26 54.0064 137.14 54.5667C136.851 55.9104 136.724 57.2715 137.116 58.6322C137.366 59.5086 137.872 60.2579 138.26 61.0653C138.848 62.2922 139.051 63.54 138.686 64.9213Z" fill="#6E4D3C"/>
<path d="M148.559 37.3215C148.442 37.5896 148.223 37.7512 147.944 37.9092C148.078 37.3148 148.164 36.7065 148.353 36.1327C148.669 35.1637 148.47 34.2251 148.037 33.4073C147.391 32.1769 146.528 31.1492 145.246 30.3932C144.071 29.699 142.909 29.4895 141.617 29.4587C140.342 29.4278 139.074 29.2729 137.957 28.5514C137.806 28.4552 137.693 28.3415 137.61 28.1902C137.562 28.1011 137.555 28.0085 137.634 27.9328C137.72 27.85 137.803 27.8948 137.892 27.9395C139.249 28.606 140.679 28.943 142.198 28.8848C144.432 28.7953 146.088 29.8951 147.498 31.4827C147.759 31.7781 148.023 32.0704 148.247 32.4038C149.305 33.9883 149.295 35.6274 148.559 37.3215Z" fill="#6E4D3C"/>
<path d="M144.772 40.875C144.256 41.9407 143.521 42.8305 142.679 43.6451C142.582 43.7378 142.483 43.8201 142.307 43.8067C142.332 43.3497 142.696 43.0883 142.919 42.7687C143.586 41.8167 144.304 40.8821 144.676 39.7752C145.28 37.9813 145.36 36.2321 144.377 34.4623C143.854 33.5175 143.27 32.6957 142.476 31.9916C142.345 31.8779 142.132 31.6958 142.29 31.5342C142.431 31.3865 142.672 31.4688 142.854 31.6098C144.133 32.5927 144.999 33.8473 145.476 35.3902C146.078 37.3318 145.628 39.1226 144.772 40.875Z" fill="#6E4D3C"/>
<path d="M125.049 26.0118C125.018 26.1662 124.867 26.2212 124.74 26.1904C123.712 25.9428 122.736 26.2866 121.801 26.5717C120.702 26.9119 119.805 27.62 119.079 28.572C118.035 29.9398 117.402 31.5413 116.416 32.9297C116.034 33.4624 115.602 33.9605 114.894 34.2354C114.921 33.8401 115.117 33.5962 115.292 33.4109C116.433 32.1769 117.034 30.6166 117.897 29.2147C118.77 27.7847 119.856 26.5856 121.509 26.0803C122.427 25.8018 123.375 25.6165 124.348 25.685C124.513 25.6989 124.681 25.7334 124.839 25.7848C124.936 25.8193 125.08 25.8708 125.049 26.0118Z" fill="#6E4D3C"/>
<path d="M113.289 31.352C113.251 31.4724 113.231 31.7405 113.096 31.933C112.296 33.0775 111.55 34.2354 110.382 35.1082C109.23 35.9676 107.976 36.4935 106.656 36.9917C105.509 37.4249 104.398 37.9916 103.474 38.8443C103.391 38.9163 103.316 39.047 103.196 38.9539C103.079 38.8613 103.168 38.7512 103.227 38.6549C103.715 37.8372 104.378 37.2768 105.302 36.9541C107.289 36.2599 109.286 35.5482 110.808 34.0018C111.451 33.3487 112.093 32.672 112.451 31.7956C112.55 31.5517 112.691 31.3247 112.832 31.1014C112.908 30.9846 112.977 30.7957 113.169 30.8812C113.299 30.9398 113.31 31.0947 113.289 31.352Z" fill="#6E4D3C"/>
<path d="M103.35 33.184C103.336 33.4279 103.13 33.4794 102.955 33.5067C102.233 33.6239 101.614 33.9569 101.01 34.349C100.621 34.5966 100.415 34.964 100.205 35.3248C99.7001 36.1945 99.4495 37.1532 99.257 38.1397C98.9509 39.7031 98.604 41.2634 97.9988 42.7481C97.9715 42.817 97.9612 42.8994 97.92 42.9611C97.7755 43.1742 97.5727 43.5041 97.3494 43.3872C97.1054 43.2637 97.4013 43.0023 97.4836 42.8063C97.7518 42.1604 97.8377 41.4662 98.0163 40.7961C98.48 39.0505 98.659 37.2114 99.4011 35.5584C99.872 34.5035 100.601 33.555 101.855 33.2457C102.237 33.1531 102.58 32.9159 102.999 32.9606C103.154 32.9745 103.302 32.9879 103.35 33.184Z" fill="#6E4D3C"/>
<path d="M110.409 29.3418C109.897 29.5271 109.381 29.6887 108.893 29.9537C108.048 30.4071 107.518 31.1425 107.14 31.9468C106.357 33.6342 105.268 34.9605 103.46 35.5893C103.281 35.6515 103.03 35.7581 102.937 35.5893C102.803 35.3593 103.113 35.3011 103.243 35.2044C103.549 34.9846 103.869 34.7819 104.202 34.6069C105.312 34.0192 105.962 33.0054 106.515 31.9638C107.013 31.0221 107.539 30.139 108.419 29.5204C108.986 29.1216 109.632 28.9122 110.319 28.8092C110.505 28.8159 110.746 28.8159 110.794 29.0223C110.852 29.2832 110.563 29.2868 110.409 29.3418Z" fill="#6E4D3C"/>
<path d="M133.779 27.3277V27.3313C133.775 27.3621 133.765 27.393 133.74 27.4239C133.627 27.5958 133.352 27.5618 133.16 27.4548C132.369 27.0117 131.617 26.4996 131.094 25.7437C130.38 24.7057 129.434 23.9323 128.328 23.3893C127.874 23.166 127.304 23.1901 126.788 23.0971C126.613 23.0662 126.341 23.1145 126.334 22.8773C126.324 22.6266 126.599 22.6678 126.774 22.6333C126.922 22.606 127.07 22.5922 127.187 22.5783C128.434 22.5922 129.445 23.0971 130.286 23.9152C131.06 24.6676 131.781 25.4755 132.493 26.2866C132.771 26.6026 133.149 26.7194 133.455 26.9602C133.497 26.9911 133.552 27.0256 133.603 27.0596L133.607 27.0632C133.706 27.1352 133.799 27.218 133.779 27.3277Z" fill="#6E4D3C"/>
<path d="M135.507 30.3382C135.514 30.5584 135.267 30.4998 135.112 30.5445C134.565 30.7128 134.033 30.8677 133.445 30.878C132.098 30.895 130.788 30.9259 129.52 30.2697C128.651 29.8194 127.916 29.2832 127.335 28.5169C127.18 28.3142 127.046 28.115 127.194 27.8191C127.885 28.0461 128.18 28.6749 128.692 29.0563C129.531 29.682 130.455 29.9707 131.459 30.2075C132.696 30.4998 133.885 30.1081 135.095 30.1838C135.249 30.1941 135.497 30.0911 135.507 30.3382Z" fill="#6E4D3C"/>
<path d="M137.991 48.6455C137.517 49.0268 137.039 49.4082 136.555 49.7797C135.417 50.6628 134.479 51.7039 133.871 53.0305C133.537 53.7521 133.664 54.5291 133.523 55.2748C133.513 55.3262 133.489 55.3746 133.445 55.4945C132.688 54.491 133.036 53.5014 133.441 52.6492C134.314 50.8244 135.751 49.4803 137.507 48.4768C137.585 48.4324 137.654 48.3635 137.727 48.3017C137.857 48.1916 137.984 47.9271 138.17 48.1608C138.297 48.3223 138.143 48.5215 137.991 48.6455Z" fill="#6E4D3C"/>
<path d="M126.808 45.9475C126.564 46.2121 126.217 46.2743 125.887 46.3293C125.588 46.3772 125.307 46.3427 124.983 46.2676C124.361 46.123 124.014 45.6248 123.458 45.4494C122.973 45.2914 122.805 44.8344 122.743 44.3872C122.716 44.188 122.805 43.8823 123.152 43.9168C123.334 43.9302 123.502 43.975 123.605 44.1227C124.334 45.1401 125.344 45.4874 126.55 45.4082C126.705 45.3979 126.922 45.3876 126.997 45.5662C127.066 45.7242 126.908 45.8446 126.808 45.9475Z" fill="#6E4D3C"/>
<path d="M134.703 40.7787C134.761 41.5109 134.249 42.1881 133.641 42.1501C133.194 42.1259 133.122 41.7343 133.105 41.4868C133.094 40.7684 133.473 40.3047 133.971 40.3253C134.29 40.3356 134.665 40.3526 134.703 40.7787Z" fill="#6E4D3C"/>
<path d="M124.217 36.3077C124.251 36.6345 123.732 36.9366 123.086 36.9814C122.547 37.019 122.619 36.5723 122.571 36.2836C122.512 35.9367 122.949 35.5585 123.341 35.5451C123.622 35.5348 124.186 36.0262 124.217 36.3077Z" fill="#6E4D3C"/>
</svg>
