<svg width="170" height="170" viewBox="0 0 170 170" fill="none" xmlns="http://www.w3.org/2000/svg">
<path d="M142.009 106.238C141.999 106.291 141.94 106.307 141.834 106.286C141.729 106.265 141.681 106.228 141.691 106.176C141.801 105.628 141.896 105.198 141.977 104.883L142.368 103.062L142.727 101.124C142.773 100.802 142.849 100.377 142.954 99.8474C142.965 99.7944 143.023 99.7784 143.129 99.7993C143.235 99.8203 143.283 99.8572 143.272 99.9102C143.135 100.599 143.079 101.11 143.103 101.446C143.128 101.781 143.254 102.026 143.48 102.181C143.72 102.357 144.105 102.497 144.635 102.602L150.833 103.827L152.862 93.6598L146.664 92.4342C146.134 92.3294 145.727 92.3038 145.441 92.3574C145.169 92.432 144.957 92.6195 144.805 92.9198C144.653 93.2201 144.509 93.7144 144.372 94.4028C144.364 94.4381 144.308 94.4453 144.202 94.4244C144.096 94.4034 144.047 94.3753 144.054 94.34C144.163 93.7928 144.258 93.362 144.339 93.0478L144.746 91.1466L145.084 89.3144C145.13 88.9932 145.209 88.5502 145.322 87.9853C145.329 87.95 145.386 87.9428 145.492 87.9638C145.597 87.9847 145.647 88.0129 145.64 88.0482C145.506 88.7189 145.451 89.2219 145.476 89.5571C145.498 89.91 145.621 90.1638 145.847 90.3186C146.088 90.4945 146.473 90.6349 147.002 90.7396L159.266 93.1647C159.796 93.2695 160.196 93.2845 160.468 93.2098C160.737 93.1528 160.947 92.9742 161.098 92.6739C161.268 92.3771 161.419 91.8933 161.553 91.2226C161.56 91.1873 161.617 91.1801 161.723 91.201C161.829 91.222 161.878 91.2501 161.871 91.2854L161.575 92.6305C161.392 93.3649 161.256 93.9528 161.168 94.3941C161.066 94.906 160.955 95.5538 160.835 96.3374L160.608 97.6136C160.601 97.6489 160.545 97.6561 160.439 97.6351C160.333 97.6142 160.283 97.586 160.29 97.5507C160.424 96.88 160.472 96.3664 160.433 96.0101C160.39 95.6714 160.249 95.4141 160.008 95.2381C159.782 95.0833 159.404 94.9536 158.875 94.8488L153.418 93.7698L151.389 103.937L156.845 105.016C157.375 105.121 157.776 105.136 158.048 105.061C158.334 105.008 158.562 104.833 158.731 104.536C158.9 104.239 159.054 103.747 159.191 103.058C159.202 103.005 159.26 102.989 159.366 103.01C159.472 103.031 159.519 103.068 159.509 103.121L159.229 104.387C159.038 105.156 158.892 105.797 158.79 106.309C158.695 106.786 158.591 107.398 158.478 108.147L158.246 109.449C158.235 109.502 158.177 109.518 158.071 109.497C157.965 109.476 157.917 109.439 157.928 109.386C158.062 108.716 158.108 108.211 158.065 107.872C158.04 107.537 157.916 107.283 157.694 107.111C157.468 106.956 157.09 106.826 156.56 106.721L144.297 104.296C143.767 104.191 143.359 104.166 143.073 104.219C142.801 104.294 142.589 104.482 142.438 104.782C142.286 105.082 142.143 105.568 142.009 106.238Z" fill="#B08EB2"/>
<path d="M130.572 126.597C130.532 126.657 130.467 126.657 130.377 126.598C130.286 126.539 130.261 126.479 130.3 126.419C130.489 126.134 130.796 125.701 131.223 125.119C131.65 124.538 131.953 124.112 132.131 123.842C132.349 123.511 132.612 123.081 132.919 122.551C133.206 122.05 133.434 121.672 133.603 121.417C133.642 121.357 133.707 121.356 133.798 121.415C133.888 121.475 133.913 121.534 133.874 121.594C133.507 122.15 133.292 122.59 133.229 122.914C133.166 123.239 133.262 123.485 133.518 123.652C133.729 123.79 134.117 123.904 134.683 123.995L141.93 125.024L144.741 120.765L141.411 115.813C141.037 115.267 140.685 114.886 140.354 114.67C139.465 114.088 138.535 114.534 137.563 116.006C137.513 116.081 137.443 116.089 137.353 116.03C137.262 115.971 137.242 115.904 137.292 115.829C137.47 115.558 137.743 115.178 138.11 114.687C138.517 114.135 138.86 113.65 139.137 113.229C139.395 112.838 139.677 112.378 139.985 111.847C140.252 111.377 140.485 110.992 140.683 110.691C140.733 110.616 140.803 110.608 140.893 110.667C140.983 110.726 141.004 110.793 140.954 110.868C140.677 111.289 140.519 111.691 140.481 112.075C140.448 112.484 140.544 112.944 140.767 113.456C140.995 113.992 141.382 114.665 141.927 115.473L150.041 127.587C150.066 127.646 150.054 127.714 150.005 127.789C149.955 127.864 149.903 127.894 149.848 127.88L135.107 125.853C133.655 125.634 132.614 125.577 131.984 125.682C131.37 125.796 130.899 126.101 130.572 126.597ZM145.082 121.279L142.553 125.109L148.185 125.889L145.082 121.279Z" fill="#B08EB2"/>
<path d="M122.743 153.067C122.699 153.098 122.645 153.07 122.583 152.982C122.52 152.894 122.51 152.835 122.555 152.804C123.172 152.367 123.5 151.881 123.538 151.347C123.577 150.812 123.324 150.164 122.78 149.403L114.511 137.823C114.49 137.794 114.511 137.746 114.574 137.679C114.637 137.613 114.694 137.583 114.744 137.592L133.623 142.657L133.978 142.737L127.012 132.981C126.468 132.219 125.943 131.763 125.438 131.614C124.929 131.489 124.373 131.64 123.77 132.066C123.726 132.097 123.673 132.069 123.61 131.981C123.547 131.893 123.538 131.833 123.582 131.802C123.949 131.542 124.234 131.352 124.435 131.232L125.553 130.474L126.662 129.657C126.857 129.496 127.153 129.276 127.55 128.995C127.579 128.975 127.625 129.008 127.688 129.096C127.751 129.184 127.767 129.238 127.738 129.259C127.106 129.706 126.773 130.184 126.739 130.694C126.715 131.218 126.975 131.861 127.519 132.622L134.862 142.906C135.811 143.027 136.58 142.88 137.168 142.465C137.212 142.433 137.265 142.462 137.328 142.55C137.391 142.638 137.4 142.697 137.356 142.728L136.525 143.283C136.338 143.393 136.091 143.558 135.782 143.776C135.459 144.005 135.199 144.199 135.004 144.359C134.809 144.519 134.652 144.641 134.535 144.724C134.417 144.807 134.316 144.835 134.23 144.808C134.14 144.806 133.973 144.758 133.73 144.666C133.365 144.527 133.016 144.41 132.683 144.315L116.775 139.925L123.287 149.044C123.831 149.806 124.356 150.262 124.861 150.411C125.351 150.571 125.897 150.438 126.5 150.012C126.529 149.991 126.575 150.025 126.638 150.113C126.701 150.201 126.718 150.255 126.688 150.276L125.813 150.862C125.351 151.145 124.981 151.385 124.702 151.582C124.437 151.769 124.08 152.044 123.631 152.406L122.743 153.067Z" fill="#B08EB2"/>
<path d="M100.204 143.362C100.71 143.236 101.302 143.116 101.979 143.003C102.228 142.959 102.547 142.898 102.935 142.82C103.306 142.745 103.719 142.652 104.173 142.538L105.948 142.068C106.258 141.972 106.692 141.854 107.251 141.715C107.286 141.706 107.317 141.754 107.343 141.859C107.369 141.963 107.365 142.02 107.33 142.029C106.667 142.194 106.197 142.358 105.922 142.519C105.63 142.685 105.462 142.903 105.419 143.174C105.363 143.466 105.4 143.874 105.532 144.398L108.586 156.52C108.718 157.044 108.867 157.415 109.033 157.633C109.199 157.851 109.451 157.965 109.787 157.973C110.11 158.004 110.604 157.937 111.267 157.771C111.302 157.762 111.333 157.81 111.359 157.915C111.386 158.02 111.382 158.076 111.347 158.085L110.03 158.386C109.288 158.534 108.698 158.662 108.262 158.771C107.598 158.937 106.95 159.127 106.317 159.34C105.557 159.567 105.029 159.717 104.732 159.791C102.916 160.245 101.221 160.297 99.6481 159.947C98.0751 159.598 96.7527 158.916 95.6809 157.904C94.5916 156.896 93.858 155.641 93.4799 154.14C93.0534 152.447 93.077 150.845 93.5506 149.336C94.0111 147.848 94.8324 146.576 96.0144 145.521C97.2007 144.482 98.5973 143.763 100.204 143.362ZM100.565 143.689C99.1677 144.038 98.0003 144.635 97.0626 145.482C96.1293 146.345 95.5086 147.419 95.2006 148.701C94.8795 150.006 94.9212 151.461 95.3257 153.067C95.7082 154.585 96.3437 155.892 97.2322 156.988C98.1207 158.083 99.1877 158.856 100.433 159.306C101.679 159.756 103 159.806 104.397 159.458C105.148 159.27 105.722 159.08 106.12 158.889C106.499 158.701 106.752 158.452 106.878 158.143C107.005 157.833 107.002 157.416 106.87 156.893L103.902 145.111C103.77 144.587 103.597 144.194 103.383 143.932C103.151 143.675 102.814 143.518 102.373 143.461C101.918 143.426 101.316 143.502 100.565 143.689Z" fill="#B08EB2"/>
<path d="M64.1898 143.221C64.1365 143.213 64.1183 143.155 64.1354 143.048C64.1524 142.942 64.1876 142.893 64.241 142.901C64.7921 142.988 65.2262 143.066 65.5434 143.135L67.3792 143.453L69.0902 143.697C69.3775 143.724 69.7789 143.779 70.2945 143.86C70.33 143.866 70.3393 143.922 70.3222 144.029C70.3052 144.135 70.2789 144.186 70.2433 144.18C69.6388 144.084 69.1873 144.058 68.8886 144.102C68.5693 144.161 68.3453 144.308 68.2167 144.543C68.0702 144.774 67.9721 145.16 67.9224 145.699L66.4625 157.906L74.7981 144.765C74.845 144.7 74.9218 144.675 75.0285 144.692C75.1173 144.706 75.1917 144.755 75.2514 144.837L79.5817 159.82L81.6167 148.634C81.7851 147.695 81.7317 147.003 81.4565 146.558C81.1812 146.114 80.6169 145.824 79.7635 145.689C79.728 145.683 79.7187 145.627 79.7358 145.52C79.7528 145.414 79.7791 145.363 79.8147 145.369C80.3125 145.448 80.6933 145.517 80.9571 145.577L82.3929 145.832L83.7839 146.025C84.0356 146.047 84.3926 146.094 84.8548 146.167C84.8904 146.173 84.8996 146.229 84.8826 146.336C84.8655 146.442 84.8392 146.493 84.8037 146.487C84.057 146.369 83.4924 146.48 83.1098 146.82C82.7067 147.175 82.4223 147.814 82.2567 148.735L80.0384 161.068C80.458 161.864 81.1301 162.334 82.0546 162.481C82.0901 162.487 82.0994 162.543 82.0823 162.649C82.0653 162.756 82.039 162.807 82.0034 162.801L81.021 162.618C80.846 162.572 80.5986 162.524 80.2786 162.473C79.9585 162.422 79.6904 162.389 79.4743 162.373C79.2403 162.354 79.0611 162.335 78.9367 162.315C78.7055 162.278 78.5331 162.16 78.4193 161.96C78.2849 161.774 78.1223 161.366 77.9317 160.734L73.9887 147.261L66.0562 159.591C65.7896 160.004 65.4874 160.184 65.1496 160.131C65.0607 160.117 64.9377 160.088 64.7806 160.045C64.6056 159.999 64.3759 159.953 64.0915 159.908L62.8338 159.736C62.6354 159.723 62.3407 159.686 61.9496 159.624C61.8962 159.615 61.8781 159.558 61.8951 159.451C61.9122 159.344 61.9474 159.295 62.0007 159.304C62.8896 159.444 63.551 159.413 63.9847 159.208C64.3979 159.018 64.6524 158.567 64.7483 157.853L66.189 145.424C66.2593 144.87 66.2611 144.46 66.1942 144.195C66.1095 143.926 65.9232 143.724 65.6352 143.587C65.3472 143.45 64.8654 143.328 64.1898 143.221Z" fill="#B08EB2"/>
<path d="M44.0682 131.258C44.0071 131.22 44.0053 131.155 44.0628 131.064C44.1203 130.973 44.1796 130.946 44.2407 130.984C44.531 131.165 44.972 131.461 45.564 131.872C46.1559 132.283 46.5893 132.575 46.8643 132.746C47.2004 132.955 47.6377 133.207 48.1763 133.5C48.6844 133.774 49.0682 133.992 49.3279 134.154C49.389 134.192 49.3908 134.257 49.3334 134.348C49.2759 134.439 49.2166 134.466 49.1554 134.428C48.5902 134.076 48.1442 133.872 47.8174 133.817C47.4906 133.762 47.2458 133.864 47.0828 134.123C46.9487 134.336 46.842 134.726 46.7627 135.291L45.8762 142.533L50.2073 145.232L55.1103 141.797C55.65 141.412 56.0253 141.052 56.2361 140.717C56.8015 139.818 56.3356 138.902 54.8385 137.969C54.7621 137.922 54.7527 137.852 54.8102 137.761C54.8676 137.669 54.9346 137.647 55.011 137.695C55.286 137.866 55.6736 138.129 56.1738 138.483C56.7352 138.875 57.2297 139.205 57.6575 139.471C58.0547 139.719 58.5226 139.989 59.0612 140.282C59.5387 140.537 59.9302 140.76 60.2357 140.95C60.3121 140.998 60.3215 141.068 60.264 141.159C60.2065 141.25 60.1396 141.272 60.0632 141.225C59.6355 140.958 59.2285 140.811 58.8424 140.782C58.4315 140.759 57.9716 140.865 57.4627 141.1C56.929 141.34 56.2622 141.741 55.4622 142.303L43.4687 150.672C43.4094 150.699 43.3415 150.688 43.2651 150.64C43.1887 150.593 43.1573 150.541 43.1708 150.486L44.9067 135.757C45.0964 134.306 45.1325 133.268 45.015 132.643C44.888 132.034 44.5723 131.572 44.0682 131.258ZM49.6992 145.583L45.8035 143.156L45.1348 148.783L49.6992 145.583Z" fill="#B08EB2"/>
<path d="M36.9225 121.975C37.2397 122.389 37.5846 122.884 37.9571 123.46C38.0959 123.671 38.2784 123.94 38.5047 124.265C38.72 124.576 38.9698 124.918 39.2542 125.289L40.3912 126.731C40.6025 126.978 40.883 127.33 41.233 127.787C41.2549 127.816 41.2228 127.863 41.1367 127.928C41.0507 127.993 40.9967 128.011 40.9748 127.983C40.5592 127.44 40.2226 127.074 39.9649 126.885C39.6963 126.682 39.4288 126.614 39.1624 126.68C38.8706 126.743 38.5096 126.938 38.0792 127.264L28.1165 134.815C27.6861 135.141 27.4033 135.423 27.2681 135.661C27.1329 135.899 27.1279 136.174 27.253 136.486C27.3529 136.794 27.6106 137.22 28.0262 137.763C28.0481 137.792 28.016 137.839 27.9299 137.904C27.8438 137.969 27.7898 137.987 27.768 137.959L26.9692 136.87C26.5386 136.248 26.1865 135.758 25.9131 135.401C25.4975 134.858 25.0659 134.338 24.6182 133.841C24.1083 133.234 23.7604 132.809 23.5744 132.566C22.437 131.079 21.7177 129.546 21.4166 127.968C21.1155 126.389 21.2192 124.91 21.7278 123.531C22.2255 122.137 23.0912 120.973 24.3249 120.038C25.7164 118.983 27.2016 118.377 28.7806 118.219C30.3343 118.058 31.8317 118.312 33.2729 118.981C34.6998 119.662 35.9163 120.659 36.9225 121.975ZM36.7638 122.434C35.8889 121.29 34.8757 120.454 33.7242 119.927C32.5584 119.41 31.3233 119.262 30.019 119.483C28.6895 119.7 27.3648 120.309 26.045 121.309C24.797 122.255 23.8442 123.35 23.1866 124.593C22.529 125.837 22.2397 127.118 22.3187 128.436C22.3977 129.754 22.8746 130.985 23.7496 132.128C24.2198 132.743 24.6221 133.195 24.9563 133.483C25.2796 133.758 25.6089 133.892 25.9444 133.886C26.2799 133.881 26.6628 133.715 27.0932 133.388L36.7762 126.049C37.2066 125.723 37.4999 125.41 37.6563 125.111C37.8017 124.798 37.8132 124.428 37.6908 124.001C37.5431 123.571 37.2341 123.048 36.7638 122.434Z" fill="#B08EB2"/>
<path d="M22.3581 99.2632C22.324 99.2745 22.2954 99.2461 22.2726 99.1778C22.2555 99.1266 22.2498 99.0811 22.2554 99.0413C22.2554 98.9844 22.2724 98.9503 22.3066 98.939C23.4344 98.7359 24.5878 98.4391 25.7668 98.0484C25.9035 98.0031 26.0174 98.0033 26.1086 98.0489C26.177 98.0831 26.2369 98.1771 26.2883 98.3307L29.8765 109.06C29.8879 109.094 29.8424 109.128 29.7398 109.162C29.6373 109.196 29.5804 109.196 29.5689 109.161C29.352 108.513 29.1523 108.058 28.9698 107.796C28.7816 107.517 28.5508 107.366 28.2773 107.342C27.981 107.308 27.5766 107.376 27.064 107.545L15.1975 111.477C14.6849 111.647 14.329 111.832 14.1297 112.03C13.9248 112.212 13.831 112.471 13.8483 112.806C13.8428 113.13 13.9486 113.617 14.1655 114.265C14.177 114.3 14.1314 114.334 14.0289 114.368C13.9264 114.402 13.8694 114.402 13.858 114.367L10.4153 104.074C10.364 103.92 10.4152 103.818 10.5689 103.767L13.7042 102.671C13.7555 102.654 13.804 102.686 13.8496 102.765C13.8781 102.851 13.8696 102.91 13.8241 102.944C12.9356 103.296 12.3264 103.801 11.9965 104.46C11.6495 105.125 11.613 105.867 11.887 106.687L12.4094 108.248C12.6092 108.846 12.8089 109.273 13.0085 109.529C13.1853 109.774 13.4133 109.916 13.6924 109.957C13.9488 109.985 14.3077 109.923 14.769 109.771L19.9718 108.047L18.927 104.923C18.653 104.103 18.3222 103.568 17.9346 103.317C17.5413 103.049 17.0201 103.023 16.3708 103.238C16.3366 103.25 16.3024 103.204 16.2681 103.102C16.2339 102.999 16.2338 102.942 16.268 102.931L18.3526 102.269C18.8481 102.104 19.2211 101.971 19.4717 101.869L20.6934 101.436C20.7275 101.425 20.7618 101.47 20.796 101.573C20.8303 101.675 20.8303 101.732 20.7961 101.743C20.0443 101.993 19.5689 102.359 19.3699 102.842C19.1651 103.308 19.2055 103.968 19.4909 104.821L20.51 107.868L26.4048 105.915C26.8833 105.756 27.2164 105.589 27.4043 105.413C27.5921 105.237 27.6831 104.998 27.6772 104.697C27.6713 104.395 27.5713 103.955 27.3772 103.374L26.6921 101.326C26.418 100.506 25.8992 99.9197 25.1356 99.566C24.3719 99.2122 23.4461 99.1113 22.3581 99.2632Z" fill="#B08EB2"/>
<path d="M12.8587 69.682C13.5385 69.8571 14.1742 69.8443 14.7658 69.6435C15.3573 69.4427 15.8886 69.152 16.3595 68.7715C16.813 68.3865 17.4122 67.8345 18.157 67.1156C18.9329 66.3489 19.5696 65.7601 20.067 65.3492C20.5644 64.9383 21.146 64.6327 21.8118 64.4325C22.4647 64.2103 23.1834 64.2003 23.9678 64.4024C24.8045 64.6179 25.5084 65.0223 26.0794 65.6155C26.6505 66.2087 27.0301 66.9664 27.2181 67.8884C27.3932 68.7886 27.3336 69.8048 27.0392 70.9372C26.6904 72.2786 26.066 73.4281 25.166 74.3859C25.0911 74.4595 25.0142 74.5048 24.9354 74.5217C24.8612 74.5211 24.7521 74.5116 24.6081 74.4931L20.9639 73.9168C20.8896 73.9162 20.8551 73.8702 20.8603 73.7786C20.8701 73.6696 20.9121 73.6153 20.9863 73.6159C22.3138 73.6604 23.5281 73.4249 24.6293 72.9093C25.735 72.3763 26.451 71.4827 26.7771 70.2284C27.0036 69.3573 26.9585 68.5651 26.6419 67.8515C26.3123 67.1161 25.6246 66.6136 24.5788 66.3442C23.7944 66.1421 23.0693 66.1412 22.4035 66.3414C21.7377 66.5417 21.1561 66.8472 20.6587 67.2581C20.1483 67.6471 19.5295 68.2033 18.802 68.9267C18.0791 69.6327 17.4712 70.1824 16.9783 70.5759C16.49 70.952 15.9239 71.2337 15.28 71.421C14.6362 71.6083 13.9395 71.6054 13.19 71.4123C12.3184 71.1878 11.6365 70.7705 11.1442 70.1604C10.639 69.5283 10.3333 68.8083 10.2272 68.0003C10.1082 67.1704 10.1575 66.3374 10.3749 65.5012C10.6421 64.4733 11.1163 63.5081 11.7973 62.6055C11.9524 62.3666 12.1346 62.2741 12.3437 62.328L15.3981 62.9197C15.4679 62.9376 15.4914 62.9902 15.4688 63.0773C15.4461 63.1644 15.3977 63.2077 15.3234 63.2071C14.3808 63.113 13.4467 63.272 12.5212 63.6841C11.5783 64.0918 10.9573 64.8705 10.6584 66.0203C10.4047 66.9959 10.5021 67.8016 10.9505 68.4376C11.386 69.0516 12.022 69.4664 12.8587 69.682Z" fill="#B08EB2"/>
<path d="M37.6077 45.5252C37.6368 45.4797 37.697 45.4859 37.7882 45.5437C37.8795 45.6014 37.9105 45.6531 37.8815 45.6986L36.2528 48.2465C36.1752 48.3678 36.0346 48.5877 35.831 48.9062C35.6523 49.2192 34.9959 49.4107 33.8616 49.4806C32.7122 49.541 31.6457 49.6219 30.6622 49.7234L24.0349 50.416L24.2849 51.629L29.4172 54.8794C29.8734 55.1683 30.2447 55.3395 30.5309 55.393C30.802 55.4368 31.0579 55.3539 31.2988 55.1442C31.5493 54.9194 31.8588 54.5188 32.2272 53.9425C32.2563 53.897 32.3164 53.9031 32.4077 53.9609C32.4989 54.0187 32.53 54.0703 32.5009 54.1158C32.2101 54.5708 31.9698 54.93 31.7801 55.1933L30.7393 56.7714L29.7733 58.3327C29.614 58.6154 29.3792 58.9993 29.069 59.4847C29.0496 59.515 28.9943 59.5013 28.9031 59.4435C28.8118 59.3857 28.7759 59.3416 28.7953 59.3113C29.1637 58.735 29.3923 58.2938 29.481 57.9879C29.5795 57.6667 29.5514 57.3932 29.3967 57.1674C29.2364 56.9168 28.9282 56.647 28.472 56.3581L17.9108 49.6695C17.4546 49.3806 17.091 49.2142 16.8199 49.1703C16.5489 49.1265 16.2881 49.217 16.0375 49.4419C15.7815 49.6419 15.4693 50.0301 15.1009 50.6064C15.0815 50.6367 15.0262 50.623 14.9349 50.5652C14.8437 50.5074 14.8078 50.4634 14.8271 50.433L15.5771 49.31C16.0146 48.6923 16.3546 48.1939 16.597 47.8147C16.8781 47.3749 17.2071 46.8269 17.5839 46.1706L18.2445 45.0869C18.2736 45.0414 18.3338 45.0476 18.425 45.1054C18.5162 45.1632 18.5473 45.2148 18.5182 45.2603C18.1595 45.8214 17.9386 46.2674 17.8553 46.5982C17.7817 46.9138 17.8251 47.1969 17.9853 47.4475C18.14 47.6734 18.4455 47.9307 18.9017 48.2197L23.7147 51.2678L21.9681 43.3224C21.7862 42.5041 21.5736 42.0179 21.3302 41.8638C21.0261 41.6712 20.588 42.0223 20.0161 42.9171C19.9967 42.9475 19.9414 42.9337 19.8501 42.8759C19.7589 42.8182 19.723 42.7741 19.7423 42.7438L20.3905 41.78C20.8087 41.1926 21.1777 40.6487 21.4976 40.1482C21.8176 39.6477 22.1368 39.1148 22.4554 38.5496L22.9707 37.6934C22.9997 37.6479 23.0599 37.6541 23.1512 37.7119C23.2424 37.7696 23.2735 37.8213 23.2444 37.8668C22.8469 38.4886 22.562 39.235 22.3898 40.106C22.2176 40.977 22.2341 41.9036 22.4394 42.8859L23.6773 48.7194L29.9685 48.1016C32.1208 47.9094 33.6777 47.713 34.6392 47.5122C35.6104 47.2964 36.251 47.0629 36.561 46.8118C36.871 46.5607 37.2199 46.1319 37.6077 45.5252Z" fill="#B08EB2"/>
<path d="M43.3628 37.784C43.7286 38.1813 44.0428 38.4428 44.3054 38.5687C44.5559 38.6813 44.8247 38.6676 45.1117 38.5276C45.412 38.3755 45.8149 38.0689 46.3202 37.608C46.3601 37.5716 46.4167 37.5931 46.4898 37.6726C46.563 37.752 46.5796 37.8099 46.5397 37.8463C46.1407 38.2102 45.8155 38.4947 45.5639 38.6998L44.1293 39.9719L42.7712 41.2472C42.544 41.4788 42.2243 41.7826 41.812 42.1586C41.7721 42.195 41.7156 42.1735 41.6424 42.094C41.5693 42.0146 41.5527 41.9567 41.5925 41.9203C42.0979 41.4593 42.4331 41.0926 42.5983 40.8202C42.7767 40.5357 42.8204 40.2643 42.7295 40.0061C42.6398 39.7226 42.412 39.3822 42.0462 38.9849L33.5791 29.788C33.2134 29.3907 32.8986 29.1418 32.6349 29.0413C32.3844 28.9287 32.109 28.9485 31.8086 29.1006C31.5094 29.2274 31.1071 29.5212 30.6018 29.9822C30.5619 30.0186 30.5053 29.997 30.4322 29.9176C30.359 29.8381 30.3424 29.7802 30.3823 29.7438L31.3781 28.8721C31.961 28.3891 32.432 27.9839 32.7911 27.6563C33.19 27.2924 33.6566 26.8425 34.1907 26.3065L35.11 25.4315C35.1499 25.3951 35.2064 25.4166 35.2796 25.4961C35.3527 25.5755 35.3694 25.6335 35.3295 25.6699C34.8374 26.1187 34.5083 26.492 34.342 26.7898C34.1891 27.0755 34.1575 27.3601 34.2473 27.6436C34.3382 27.9018 34.5665 28.2295 34.9323 28.6268L43.3628 37.784Z" fill="#B08EB2"/>
<path d="M57.8737 11.9032C57.9221 11.8791 57.9705 11.9154 58.019 12.0119C58.0674 12.1084 58.0675 12.1687 58.0191 12.1927C57.3422 12.5294 56.9435 12.9589 56.8231 13.4812C56.7026 14.0035 56.8523 14.6829 57.2723 15.5194L63.6562 28.2359C63.6723 28.2681 63.6441 28.3123 63.5716 28.3684C63.4991 28.4246 63.4387 28.4446 63.3903 28.4285L45.5226 20.5191L45.1838 20.386L50.5623 31.0997C50.9823 31.9363 51.4301 32.4674 51.906 32.6931C52.3899 32.8947 52.9622 32.8311 53.623 32.5025C53.6713 32.4784 53.7197 32.5147 53.7682 32.6112C53.8166 32.7077 53.8167 32.768 53.7683 32.792C53.3654 32.9924 53.0552 33.1367 52.8376 33.2248L51.6167 33.8019L50.3959 34.4393C50.1784 34.5676 49.852 34.7399 49.4169 34.9564C49.3846 34.9724 49.3443 34.9322 49.2958 34.8356C49.2474 34.7391 49.2393 34.6828 49.2715 34.6668C49.9645 34.3221 50.3672 33.9007 50.4797 33.4025C50.584 32.8882 50.4262 32.2128 50.0063 31.3763L44.3371 20.0834C43.4178 19.8169 42.6358 19.844 41.9912 20.1647C41.9428 20.1887 41.8944 20.1525 41.846 20.0559C41.7975 19.9594 41.7975 19.8991 41.8458 19.8751L42.7524 19.4543C42.9539 19.3742 43.2238 19.25 43.5623 19.0817C43.9169 18.9053 44.2029 18.753 44.4205 18.6247C44.638 18.4964 44.8113 18.4001 44.9402 18.336C45.0691 18.2719 45.1739 18.26 45.2546 18.3003C45.3433 18.3165 45.5005 18.389 45.7264 18.5179C46.0651 18.7113 46.3918 18.8805 46.7063 19.0257L61.7434 25.8099L56.7162 15.796C56.2963 14.9594 55.8484 14.4283 55.3726 14.2026C54.9128 13.9689 54.3526 14.0164 53.6918 14.345C53.6596 14.3611 53.6192 14.3208 53.5708 14.2243C53.5223 14.1278 53.5142 14.0715 53.5464 14.0555L54.5014 13.6107C55.001 13.4024 55.404 13.2221 55.7102 13.0697C56.0003 12.9255 56.3951 12.709 56.8947 12.4203L57.8737 11.9032Z" fill="#B08EB2"/>
<path d="M79.4123 7.46533C80.2723 7.38255 81.1491 7.37953 82.0427 7.45627C82.9363 7.533 83.6577 7.69865 84.2069 7.95321C84.3751 8.00935 84.4815 8.08048 84.526 8.16661C84.5868 8.2331 84.6356 8.36402 84.6727 8.55937L85.2607 11.5407C85.266 11.5945 85.2246 11.6346 85.1368 11.6612C85.0472 11.6698 84.9909 11.6481 84.9677 11.5961C84.4395 10.2545 83.6066 9.31298 82.4689 8.77149C81.3474 8.21035 79.9983 8.00567 78.4215 8.15743C77.0598 8.28849 75.8979 8.70774 74.9358 9.41517C73.972 10.1047 73.2654 11.0226 72.8162 12.1689C72.3669 13.3152 72.2119 14.605 72.3511 16.0383C72.513 17.7044 73.0031 19.2124 73.8215 20.5622C74.6577 21.9103 75.6982 22.9403 76.9429 23.6524C78.2055 24.3627 79.5176 24.6523 80.8793 24.5212C82.1694 24.3971 83.2553 23.9399 84.137 23.1498C85.017 22.3418 85.6365 21.1791 85.9954 19.6617C85.9902 19.608 86.0234 19.5776 86.0951 19.5707C86.1488 19.5656 86.1945 19.5702 86.2321 19.5847C86.2876 19.5974 86.3171 19.6217 86.3205 19.6575L86.2393 22.7305C86.2243 22.9489 86.1935 23.0965 86.1467 23.1734C86.1161 23.2306 86.0236 23.3028 85.8693 23.3899C84.3229 24.2259 82.6538 24.7302 80.8621 24.9026C78.7121 25.1096 76.8696 24.8529 75.3348 24.1326C73.8161 23.3927 72.6511 22.3837 71.8397 21.1056C71.0283 19.8274 70.5504 18.4449 70.4059 16.9579C70.2458 15.3096 70.5591 13.7876 71.3458 12.3918C72.1326 10.996 73.2436 9.86738 74.6791 9.00589C76.1145 8.1444 77.6922 7.63088 79.4123 7.46533Z" fill="#B08EB2"/>
<path d="M110.186 28.7207C110.256 28.7392 110.276 28.8006 110.248 28.9049C110.22 29.0093 110.172 29.0522 110.102 29.0337C109.772 28.9459 109.263 28.7921 108.576 28.5725C107.89 28.3528 107.39 28.2014 107.077 28.1182C106.694 28.0165 106.202 27.9045 105.602 27.7821C105.036 27.669 104.605 27.5731 104.309 27.4945C104.239 27.4761 104.219 27.4147 104.247 27.3103C104.275 27.206 104.323 27.1631 104.393 27.1816C105.037 27.3526 105.523 27.4166 105.851 27.3734C106.179 27.3303 106.383 27.161 106.462 26.8654C106.528 26.622 106.515 26.2182 106.424 25.6539L105.136 18.4673L100.205 17.157L96.5338 21.8808C96.1317 22.4072 95.8794 22.8616 95.7768 23.2441C95.5017 24.2699 96.2166 25.0092 97.9215 25.4622C98.0085 25.4853 98.038 25.549 98.01 25.6533C97.982 25.7576 97.9245 25.7983 97.8376 25.7751C97.5244 25.6919 97.0768 25.5544 96.4946 25.3625C95.8429 25.1521 95.2735 24.9821 94.7864 24.8527C94.334 24.7326 93.8075 24.6113 93.2067 24.4889C92.6755 24.385 92.2359 24.2868 91.888 24.1944C91.801 24.1713 91.7715 24.1076 91.7995 24.0033C91.8274 23.8989 91.8849 23.8583 91.9719 23.8815C92.459 24.0109 92.8911 24.0326 93.2683 23.9465C93.6675 23.8477 94.0756 23.6116 94.4925 23.2381C94.9315 22.8519 95.4503 22.2727 96.0487 21.5005L105.037 9.97623C105.086 9.93332 105.154 9.92341 105.241 9.94652C105.328 9.96963 105.373 10.0096 105.377 10.0664L108.059 24.6636C108.306 26.1073 108.577 27.1106 108.873 27.6736C109.174 28.2192 109.612 28.5682 110.186 28.7207ZM100.586 16.6717L105.022 17.8504L104.003 12.2715L100.586 16.6717Z" fill="#B08EB2"/>
<path d="M127.62 40.495C127.65 40.5157 127.633 40.5701 127.571 40.6582C127.508 40.7463 127.462 40.7801 127.433 40.7594L124.582 38.7581C124.214 38.4996 123.964 37.3893 123.832 35.4273C123.725 33.4609 123.746 30.8475 123.895 27.5868C123.468 27.4414 123.034 27.2136 122.592 26.9033C122.312 26.7068 121.991 26.4594 121.629 26.1611L117.914 31.4043C117.591 31.8596 117.401 32.221 117.344 32.4887C117.286 32.7564 117.357 33.0148 117.555 33.2641C117.768 33.5237 118.155 33.85 118.715 34.243C118.759 34.274 118.75 34.3336 118.687 34.4217C118.625 34.5099 118.572 34.5384 118.527 34.5074C118.071 34.1868 117.715 33.926 117.46 33.7252L115.951 32.6327L114.433 31.5998C114.157 31.4283 113.776 31.1719 113.29 30.8306C113.261 30.8099 113.277 30.7555 113.34 30.6674C113.402 30.5793 113.448 30.5456 113.478 30.5663C114.037 30.9593 114.476 31.2122 114.793 31.3249C115.121 31.4229 115.409 31.4053 115.658 31.2721C115.907 31.1389 116.187 30.852 116.499 30.4114L123.727 20.2115C124.039 19.7709 124.216 19.4116 124.259 19.1336C124.316 18.8659 124.238 18.6023 124.025 18.3427C123.837 18.0787 123.463 17.7502 122.903 17.3572C122.859 17.3262 122.868 17.2666 122.931 17.1785C122.993 17.0904 123.047 17.0618 123.091 17.0929L124.158 17.8751C124.756 18.3388 125.246 18.7052 125.629 18.9741C125.895 19.1602 126.15 19.3287 126.396 19.4795C126.642 19.6303 126.859 19.7604 127.046 19.8698C127.549 20.1567 127.992 20.4346 128.375 20.7035C129.568 21.5413 130.317 22.43 130.622 23.3697C130.927 24.3095 130.772 25.2126 130.158 26.0791C129.659 26.7841 128.979 27.3075 128.119 27.6494C127.269 27.9767 126.376 28.086 125.438 27.9774C125.368 30.7218 125.386 32.9226 125.491 34.5799C125.607 36.2225 125.83 37.5115 126.16 38.4469C126.5 39.3676 126.987 40.0503 127.62 40.495ZM122.019 25.6104C122.346 25.9277 122.759 26.2622 123.26 26.6138C124.277 27.3274 125.157 27.6264 125.901 27.5108C126.655 27.3805 127.391 26.8086 128.109 25.7952C129.618 23.6656 129.474 21.97 127.677 20.7082C127.279 20.4289 126.951 20.2536 126.693 20.1823C126.459 20.1066 126.221 20.1478 125.976 20.3061C125.742 20.4496 125.453 20.7638 125.11 21.2484L122.019 25.6104Z" fill="#B08EB2"/>
<path d="M140.509 51.197C140.538 51.1755 140.574 51.1936 140.617 51.2513C140.649 51.2946 140.669 51.3359 140.676 51.3755C140.694 51.4295 140.688 51.4672 140.659 51.4886C139.651 52.0339 138.648 52.6762 137.65 53.4156C137.534 53.5013 137.426 53.5368 137.325 53.522C137.249 53.5109 137.163 53.4404 137.066 53.3107L130.291 44.2506C130.269 44.2218 130.302 44.1752 130.389 44.1109C130.476 44.0466 130.53 44.0289 130.551 44.0577C130.961 44.6055 131.294 44.9752 131.549 45.1666C131.816 45.3725 132.082 45.4437 132.349 45.3802C132.642 45.3204 133.005 45.1298 133.439 44.8083L143.484 37.3666C143.917 37.0451 144.198 36.759 144.325 36.508C144.463 36.2715 144.471 35.9968 144.349 35.6837C144.253 35.3743 144 34.9458 143.59 34.398C143.568 34.3692 143.601 34.3226 143.688 34.2583C143.775 34.194 143.829 34.1763 143.85 34.2051L150.35 42.8976C150.447 43.0274 150.431 43.1405 150.301 43.2369L147.664 45.2571C147.621 45.2892 147.565 45.2746 147.497 45.2133C147.443 45.1412 147.432 45.0819 147.465 45.0353C148.199 44.4242 148.62 43.7542 148.726 43.0254C148.848 42.2859 148.65 41.5702 148.132 40.8782L147.146 39.5592C146.769 39.0547 146.445 38.712 146.175 38.5312C145.93 38.3542 145.669 38.2902 145.391 38.3393C145.138 38.3921 144.817 38.5632 144.426 38.8525L140.022 42.1152L141.995 44.7533C142.512 45.4452 142.994 45.8496 143.441 45.9665C143.899 46.0978 144.403 45.9598 144.952 45.5526C144.981 45.5312 145.028 45.5637 145.093 45.6502C145.157 45.7367 145.175 45.7907 145.146 45.8121L143.373 47.0924C142.954 47.4031 142.641 47.6461 142.435 47.8212L141.409 48.6143C141.38 48.6358 141.334 48.6032 141.269 48.5167C141.204 48.4302 141.186 48.3763 141.215 48.3548C141.852 47.8834 142.189 47.3873 142.226 46.8666C142.275 46.3602 142.03 45.7467 141.491 45.0259L139.566 42.4528L134.577 46.1495C134.172 46.4495 133.908 46.7124 133.784 46.9382C133.661 47.164 133.649 47.419 133.749 47.7033C133.85 47.9875 134.083 48.3746 134.449 48.8648L135.743 50.5946C136.26 51.2866 136.937 51.681 137.774 51.778C138.611 51.875 139.522 51.6813 140.509 51.197Z" fill="#B08EB2"/>
<path d="M152.625 65.1712C152.532 65.6656 152.2 66.0453 151.949 66.456C150.902 68.156 149.251 68.9242 147.392 69.3434C147.348 69.3523 147.308 69.3612 147.264 69.3657C146.889 69.3746 146.823 69.2246 146.982 68.8582C147.335 68.059 147.944 67.4538 148.576 66.9108C149.657 65.9793 150.84 65.1845 152.28 64.8841C152.589 64.8223 152.677 64.8797 152.625 65.1712ZM152.832 64.0012C152.81 64.0012 152.788 63.9967 152.77 64.0052C151.556 64.3145 150.368 64.7208 149.335 65.4186C148.509 65.9793 147.763 66.6679 147.114 67.4493C146.836 67.7805 146.62 68.1249 146.456 68.5134C146.324 68.8227 146.191 69.136 146.05 69.4408C145.886 69.8027 146.147 70.2664 146.504 70.1516C147.012 69.9883 147.569 70.1297 148.041 69.8516C148.213 69.7501 148.403 69.7453 148.593 69.7368C148.827 69.7279 149.048 69.6794 149.247 69.5294C149.516 69.3216 149.829 69.189 150.152 69.0742C150.35 69.0038 150.536 68.9153 150.695 68.7653C151.415 68.0853 152.152 67.4319 152.686 66.5664C153.039 66.0012 153.3 65.4186 153.459 64.7826C153.605 64.2219 153.415 64.0012 152.832 64.0012Z" fill="#B08EB2"/>
<path d="M19.8005 88.4118C19.0101 88.9548 18.092 89.0918 17.1734 89.2022C17.0056 89.224 16.8334 89.2066 16.6616 89.2066C15.4649 89.2685 14.3741 88.88 13.3234 88.3588C13.266 88.3277 13.213 88.2925 13.16 88.2574C12.7493 87.9703 12.7626 87.8862 13.213 87.6303C13.853 87.2725 14.5686 87.1492 15.2619 86.9722C15.809 86.8355 16.3701 86.6766 16.9438 86.7029C17.9771 86.7514 19.0016 86.8133 19.8361 87.5551C20.2464 87.9174 20.2557 88.0985 19.8005 88.4118ZM20.6883 87.2948C19.6549 86.4647 18.4894 85.9744 17.1338 86.001C16.829 86.1025 16.5067 86.054 16.1934 86.0673C15.1293 86.1203 14.2197 86.6677 13.2174 86.9018C12.9037 86.9766 12.6389 87.1622 12.3696 87.3299C11.9678 87.5814 11.8926 87.904 12.1489 88.2881C12.4048 88.677 12.7448 88.9814 13.213 89.0829C13.3674 89.1137 13.4956 89.18 13.6015 89.2814C13.7956 89.4626 14.0256 89.5155 14.2726 89.5951C14.9789 89.8114 15.7123 89.7763 16.423 89.9396C16.7012 90.0055 17.0056 89.9837 17.2971 89.9614C18.3746 89.8689 19.3194 89.4051 20.2157 88.8444C20.5027 88.6677 20.7546 88.4251 20.8294 88.0629C20.8868 87.7936 20.9353 87.4933 20.6883 87.2948Z" fill="#B08EB2"/>
</svg>
